<?xml version="1.0" encoding="UTF-8"?>
<!DOCTYPE svg PUBLIC "-//W3C//DTD SVG 1.1//EN" "http://www.w3.org/Graphics/SVG/1.1/DTD/svg11.dtd">
<svg xmlns="http://www.w3.org/2000/svg" version="1.1" width="900px" height="780px" style="shape-rendering:geometricPrecision; text-rendering:geometricPrecision; image-rendering:optimizeQuality; fill-rule:evenodd; clip-rule:evenodd" xmlns:xlink="http://www.w3.org/1999/xlink">
<g><path style="opacity:1" fill="#fefefe" d="M -0.5,-0.5 C 299.5,-0.5 599.5,-0.5 899.5,-0.5C 899.5,259.5 899.5,519.5 899.5,779.5C 599.5,779.5 299.5,779.5 -0.5,779.5C -0.5,519.5 -0.5,259.5 -0.5,-0.5 Z"/></g>
<g><path style="opacity:1" fill="#951f1e" d="M 352.5,339.5 C 352.7,324.496 353.033,309.496 353.5,294.5C 353.968,277.63 357.135,261.296 363,245.5C 371.737,229.166 381.57,213.666 392.5,199C 397.683,197.181 400.516,199.014 401,204.5C 402.418,226.507 407.752,247.507 417,267.5C 417.804,273.569 417.471,279.569 416,285.5C 411.205,295.226 407.205,305.226 404,315.5C 399.83,340.855 395.497,366.188 391,391.5C 388.226,410.865 391.892,428.865 402,445.5C 413.77,455.268 424.937,465.768 435.5,477C 448.027,486.36 460.694,495.527 473.5,504.5C 473.833,504.167 474.167,503.833 474.5,503.5C 466.699,485.296 461.865,466.296 460,446.5C 459.667,430.5 459.333,414.5 459,398.5C 457.303,390.517 455.803,382.517 454.5,374.5C 454.353,366.791 456.52,359.791 461,353.5C 466.333,348.167 471.667,348.167 477,353.5C 479.177,357.031 480.344,360.864 480.5,365C 479.023,376.102 475.19,386.268 469,395.5C 468.023,397.74 467.523,400.073 467.5,402.5C 466.339,417.995 466.172,433.661 467,449.5C 467.191,451.708 467.691,453.708 468.5,455.5C 471.726,487.448 484.726,514.614 507.5,537C 525.349,554.349 543.349,571.516 561.5,588.5C 561.833,588.167 562.167,587.833 562.5,587.5C 546.728,551.08 537.894,513.08 536,473.5C 540.382,456.637 545.382,439.97 551,423.5C 556.748,414.416 563.915,406.583 572.5,400C 579.221,395.686 583.387,397.519 585,405.5C 591.189,429.613 596.023,453.947 599.5,478.5C 598.556,487.823 598.389,497.156 599,506.5C 601.046,516.308 603.712,525.975 607,535.5C 607.771,540.855 608.605,546.188 609.5,551.5C 609.665,559.862 609.332,568.195 608.5,576.5C 606.04,590.133 603.707,603.8 601.5,617.5C 601.369,621.607 602.536,625.274 605,628.5C 632.592,651.131 661.592,671.797 692,690.5C 692.667,689.5 692.667,688.5 692,687.5C 684.16,672.157 677.16,656.491 671,640.5C 666.739,619.122 661.072,598.122 654,577.5C 651.91,569.296 650.577,560.963 650,552.5C 639.872,537.873 637.872,522.207 644,505.5C 647.04,499.632 651.54,498.132 657.5,501C 666.392,508.732 668.892,518.232 665,529.5C 663.086,534.335 660.419,538.669 657,542.5C 656.778,551.283 657.778,559.95 660,568.5C 667.652,595.41 674.985,622.41 682,649.5C 689.06,665.287 696.393,680.954 704,696.5C 706.045,699.423 708.212,702.257 710.5,705C 738.973,727.915 770.307,746.248 804.5,760C 812.28,762.683 820.28,764.35 828.5,765C 832.037,766.826 832.371,769.16 829.5,772C 819.468,772.606 809.801,770.939 800.5,767C 776.63,757.067 753.963,745.067 732.5,731C 717.678,719.756 702.678,708.756 687.5,698C 679.827,694.685 671.827,693.685 663.5,695C 647.243,699.13 631.909,705.463 617.5,714C 608.938,716.974 600.271,719.641 591.5,722C 584.167,726.667 576.833,731.333 569.5,736C 555.248,742.646 540.248,746.313 524.5,747C 512.167,747.333 499.833,747.667 487.5,748C 482.107,750.702 477.441,754.369 473.5,759C 470.167,760.667 466.833,762.333 463.5,764C 449.961,769.041 436.295,773.708 422.5,778C 398.827,777.999 375.827,773.999 353.5,766C 341.5,759.667 329.5,753.333 317.5,747C 312.833,743.667 308.167,740.333 303.5,737C 300.388,734.561 298.055,731.561 296.5,728C 297.153,725.347 298.82,723.68 301.5,723C 316.428,718.135 331.428,713.469 346.5,709C 366.06,699.054 386.393,691.054 407.5,685C 436.36,671.949 466.36,662.282 497.5,656C 513.942,654.413 530.275,652.08 546.5,649C 550.833,648.333 555.167,648.333 559.5,649C 567.211,650.792 574.878,652.792 582.5,655C 598.91,660.803 615.244,666.803 631.5,673C 640.755,675.98 650.088,678.314 659.5,680C 599.686,635.937 532.686,609.27 458.5,600C 438.434,598.954 418.434,599.621 398.5,602C 392.5,606.667 386.5,611.333 380.5,616C 370.451,621.231 359.784,623.231 348.5,622C 338.069,619.629 334.569,613.462 338,603.5C 346.394,594.81 356.727,590.477 369,590.5C 378.005,590.953 386.838,592.286 395.5,594.5C 425.235,591.423 454.902,591.923 484.5,596C 512.204,602.425 539.538,610.092 566.5,619C 574.955,622.727 583.288,626.727 591.5,631C 592.5,631.667 593.5,631.667 594.5,631C 560.259,600.429 526.926,568.762 494.5,536C 489.167,531.333 483.833,526.667 478.5,522C 476.833,521.333 475.167,521.333 473.5,522C 468.167,526.667 462.833,531.333 457.5,536C 453.993,538.254 450.327,540.254 446.5,542C 402.416,558.528 357.082,563.194 310.5,556C 302.63,554.783 294.964,552.783 287.5,550C 273.5,544 259.5,538 245.5,532C 225.796,525.988 206.462,518.988 187.5,511C 174.559,503.735 163.059,494.568 153,483.5C 149.254,479.012 149.754,475.178 154.5,472C 177.451,472.376 200.117,470.042 222.5,465C 235.506,464.429 248.506,464.595 261.5,465.5C 270.868,465.09 280.202,464.257 289.5,463C 297.5,462.333 305.5,462.333 313.5,463C 325.785,464.857 337.785,467.857 349.5,472C 365.5,478.667 381.5,485.333 397.5,492C 416.355,496.468 435.355,499.801 454.5,502C 435.691,488.868 418.357,473.868 402.5,457C 374.101,434.134 342.101,418.134 306.5,409C 292.656,405.465 278.656,402.631 264.5,400.5C 259.975,401.428 255.642,402.928 251.5,405C 235.669,408.296 219.669,409.296 203.5,408C 189.082,402.906 186.748,394.572 196.5,383C 206.263,376.765 216.929,374.765 228.5,377C 238.928,379.548 248.262,384.214 256.5,391C 297.454,396.541 336.288,408.708 373,427.5C 373.5,427.167 374,426.833 374.5,426.5C 366.308,413.453 357.142,401.12 347,389.5C 336.064,373.298 324.398,357.631 312,342.5C 309.463,339.628 306.63,337.128 303.5,335C 292.475,330.41 281.141,326.743 269.5,324C 242.541,322.711 215.541,322.044 188.5,322C 171.627,323.505 156.293,319.505 142.5,310C 130.907,295.736 118.573,282.069 105.5,269C 98.3199,263.907 90.6533,259.574 82.5,256C 72.8473,250.193 68.3473,241.693 69,230.5C 74.0681,223.584 80.9014,220.751 89.5,222C 94.3849,223.711 99.3849,225.045 104.5,226C 139.703,231.717 174.037,240.717 207.5,253C 215.828,257.162 223.828,261.829 231.5,267C 242.475,276.14 254.142,284.307 266.5,291.5C 266.833,291.167 267.167,290.833 267.5,290.5C 254.851,276.677 244.351,261.343 236,244.5C 203.7,196.532 162.2,158.699 111.5,131C 107.401,131.7 103.401,133.033 99.5,135C 90.3188,137.213 82.4855,135.047 76,128.5C 70.7021,111.46 76.8688,104.96 94.5,109C 101.305,111.8 106.971,116.133 111.5,122C 129.299,131.48 146.299,142.147 162.5,154C 171.426,161.381 180.26,168.881 189,176.5C 179.288,150.386 168.955,124.386 158,98.5C 154.663,88.4891 151.33,78.4891 148,68.5C 141.155,58.1448 133.822,48.1448 126,38.5C 121.675,31.3569 118.842,23.6902 117.5,15.5C 118.817,2.97916 125.15,-0.85417 136.5,4C 146.523,10.8696 152.356,20.3696 154,32.5C 154.207,41.508 154.207,50.508 154,59.5C 165.043,94.5841 178.043,128.917 193,162.5C 191.67,149.563 191.336,136.563 192,123.5C 197.251,105.999 204.918,89.6655 215,74.5C 217.084,67.2434 219.751,60.2434 223,53.5C 229.121,47.3549 235.455,47.0215 242,52.5C 241.185,65.4755 240.852,78.4755 241,91.5C 243.229,108.646 246.229,125.646 250,142.5C 253.229,158.511 253.229,174.511 250,190.5C 244.372,206.796 243.039,223.463 246,240.5C 250.089,252.013 255.756,262.679 263,272.5C 273.446,285.444 284.946,297.111 297.5,307.5C 294.427,288.582 291.927,269.582 290,250.5C 290.707,224.147 290.373,197.814 289,171.5C 289.621,164.722 291.621,158.389 295,152.5C 298.509,148.387 302.676,147.554 307.5,150C 315.515,156.712 318.348,165.212 316,175.5C 312.562,188.043 307.228,199.709 300,210.5C 298.287,219.247 297.454,228.08 297.5,237C 298.798,261.682 301.631,286.182 306,310.5C 307.804,315.58 309.804,320.58 312,325.5C 323.738,340.641 334.738,356.308 345,372.5C 350.805,380.606 356.972,388.439 363.5,396C 364.332,396.688 364.998,396.521 365.5,395.5C 358.682,377.387 354.349,358.72 352.5,339.5 Z"/></g>
<g><path style="opacity:1" fill="#a84643" d="M 353.5,294.5 C 353.033,309.496 352.7,324.496 352.5,339.5C 351.834,334.177 351.501,328.677 351.5,323C 351.409,313.294 352.076,303.794 353.5,294.5 Z"/></g>
<g><path style="opacity:1" fill="#f1e1e1" d="M 467.5,402.5 C 467.286,420.183 467.619,437.85 468.5,455.5C 467.691,453.708 467.191,451.708 467,449.5C 466.172,433.661 466.339,417.995 467.5,402.5 Z"/></g>
<g><path style="opacity:1" fill="#e0bbba" d="M 609.5,551.5 C 610.656,558.989 610.822,566.655 610,574.5C 609.722,575.416 609.222,576.082 608.5,576.5C 609.332,568.195 609.665,559.862 609.5,551.5 Z"/></g>
</svg>
