<?xml version="1.0" encoding="UTF-8"?>
<!DOCTYPE svg PUBLIC "-//W3C//DTD SVG 1.1//EN" "http://www.w3.org/Graphics/SVG/1.1/DTD/svg11.dtd">
<svg xmlns="http://www.w3.org/2000/svg" version="1.1" width="900px" height="780px" style="shape-rendering:geometricPrecision; text-rendering:geometricPrecision; image-rendering:optimizeQuality; fill-rule:evenodd; clip-rule:evenodd" xmlns:xlink="http://www.w3.org/1999/xlink">
<g><path style="opacity:1" fill="#fefefe" d="M -0.5,-0.5 C 299.5,-0.5 599.5,-0.5 899.5,-0.5C 899.5,259.5 899.5,519.5 899.5,779.5C 599.5,779.5 299.5,779.5 -0.5,779.5C -0.5,519.5 -0.5,259.5 -0.5,-0.5 Z"/></g>
<g><path style="opacity:1" fill="#951f1e" d="M 290.5,576.5 C 289.668,568.195 289.335,559.862 289.5,551.5C 290.395,546.188 291.229,540.855 292,535.5C 295.288,525.975 297.954,516.308 300,506.5C 300.611,497.156 300.444,487.823 299.5,478.5C 302.977,453.947 307.811,429.613 314,405.5C 315.613,397.519 319.779,395.686 326.5,400C 335.085,406.583 342.252,414.416 348,423.5C 353.618,439.97 358.618,456.637 363,473.5C 361.106,513.08 352.272,551.08 336.5,587.5C 336.833,587.833 337.167,588.167 337.5,588.5C 361.206,566.627 384.039,543.961 406,520.5C 419.794,501.016 427.961,479.349 430.5,455.5C 431.309,453.708 431.809,451.708 432,449.5C 432.828,433.661 432.661,417.995 431.5,402.5C 430.126,396.412 427.626,390.745 424,385.5C 421.461,378.842 419.627,372.009 418.5,365C 418.565,358.532 421.232,353.532 426.5,350C 430.982,348.989 434.816,350.156 438,353.5C 442.48,359.791 444.647,366.791 444.5,374.5C 443.197,382.517 441.697,390.517 440,398.5C 441.466,427.589 438.799,456.255 432,484.5C 430.189,491.099 427.689,497.433 424.5,503.5C 424.833,503.833 425.167,504.167 425.5,504.5C 438.306,495.527 450.973,486.36 463.5,477C 474.063,465.768 485.23,455.268 497,445.5C 507.108,428.865 510.774,410.865 508,391.5C 503.503,366.188 499.17,340.855 495,315.5C 491.795,305.226 487.795,295.226 483,285.5C 481.529,279.569 481.196,273.569 482,267.5C 491.248,247.507 496.582,226.507 498,204.5C 499.666,198.15 503.333,196.817 509,200.5C 518.252,215.334 527.252,230.334 536,245.5C 541.865,261.296 545.032,277.63 545.5,294.5C 545.967,309.496 546.3,324.496 546.5,339.5C 544.651,358.72 540.318,377.387 533.5,395.5C 534.002,396.521 534.668,396.688 535.5,396C 542.028,388.439 548.195,380.606 554,372.5C 564.943,355.891 576.277,339.558 588,323.5C 593.852,308.753 597.185,293.42 598,277.5C 599.681,264.041 600.847,250.541 601.5,237C 601.546,228.08 600.713,219.247 599,210.5C 591.772,199.709 586.438,188.043 583,175.5C 580.665,165.172 583.498,156.672 591.5,150C 596.226,147.745 600.393,148.578 604,152.5C 607.379,158.389 609.379,164.722 610,171.5C 608.627,197.814 608.293,224.147 609,250.5C 607.073,269.582 604.573,288.582 601.5,307.5C 621.388,291.431 637.554,272.098 650,249.5C 651.399,246.637 652.399,243.637 653,240.5C 655.961,223.463 654.628,206.796 649,190.5C 645.771,174.511 645.771,158.511 649,142.5C 652.771,125.646 655.771,108.646 658,91.5C 658.148,78.4755 657.815,65.4755 657,52.5C 665.231,46.3495 672.231,47.6828 678,56.5C 680.002,62.5115 682.002,68.5115 684,74.5C 693.19,88.548 700.524,103.548 706,119.5C 707.81,131.13 707.976,142.797 706.5,154.5C 705.257,157.633 704.757,160.967 705,164.5C 706.319,162.713 707.152,160.713 707.5,158.5C 721.623,126.229 734.123,93.2291 745,59.5C 744.793,50.508 744.793,41.508 745,32.5C 746.644,20.3696 752.477,10.8696 762.5,4C 771.672,-0.829063 777.839,1.67094 781,11.5C 781.34,20.5134 779.007,28.8467 774,36.5C 766.333,46.8333 758.667,57.1667 751,67.5C 738.567,104.034 724.733,140.034 709.5,175.5C 709.667,175.833 709.833,176.167 710,176.5C 732.945,155.558 758.112,137.725 785.5,123C 790.928,117.569 796.928,112.902 803.5,109C 809.675,106.744 815.675,107.077 821.5,110C 826.314,115.688 826.814,121.855 823,128.5C 816.114,135.092 807.948,137.259 798.5,135C 795.047,132.76 791.381,131.427 787.5,131C 725.615,164.552 678.115,212.385 645,274.5C 641.064,280.273 636.564,285.606 631.5,290.5C 632.365,291.583 633.365,291.749 634.5,291C 648.5,281 662.5,271 676.5,261C 687.799,254.121 699.799,248.788 712.5,245C 746.836,233.997 781.836,226.331 817.5,222C 822.835,223.241 827.002,226.074 830,230.5C 830.653,241.693 826.153,250.193 816.5,256C 808.347,259.574 800.68,263.907 793.5,269C 780.427,282.069 768.093,295.736 756.5,310C 747.317,316.839 736.983,320.506 725.5,321C 694.512,322.139 663.512,322.805 632.5,323C 619.804,325.923 607.471,329.923 595.5,335C 589.667,339.5 584.5,344.667 580,350.5C 564.769,372.399 548.769,393.732 532,414.5C 529.302,418.367 526.802,422.367 524.5,426.5C 525,426.833 525.5,427.167 526,427.5C 562.274,408.521 600.774,396.354 641.5,391C 649.777,385.027 658.777,380.361 668.5,377C 675.167,376.333 681.833,376.333 688.5,377C 695.427,378.212 701.26,381.379 706,386.5C 710.646,394.858 708.812,401.358 700.5,406C 698.5,406.667 696.5,407.333 694.5,408C 679.401,409.088 664.401,408.422 649.5,406C 644.528,403.565 639.361,401.732 634,400.5C 589.138,406.005 547.972,421.172 510.5,446C 495.139,457.851 480.805,470.851 467.5,485C 459.833,490.667 452.167,496.333 444.5,502C 464.347,499.631 484.013,495.965 503.5,491C 519.5,484.333 535.5,477.667 551.5,471C 570.191,463.663 589.524,460.996 609.5,463C 618.798,464.257 628.132,465.09 637.5,465.5C 650.494,464.595 663.494,464.429 676.5,465C 698.537,470.094 720.87,472.428 743.5,472C 749.121,474.657 749.954,478.491 746,483.5C 735.093,496.414 721.926,506.247 706.5,513C 689.867,519.989 672.867,525.989 655.5,531C 641.5,537 627.5,543 613.5,549C 559.903,564.526 506.903,562.526 454.5,543C 444.431,538.599 435.764,532.266 428.5,524C 426.086,522.115 423.419,521.448 420.5,522C 395.257,544.24 370.924,567.573 347.5,592C 332.569,604.261 318.235,617.261 304.5,631C 313.924,627.632 323.257,623.632 332.5,619C 366.918,606.562 402.251,597.896 438.5,593C 459.527,592.273 480.527,592.773 501.5,594.5C 510.086,592.857 518.753,591.523 527.5,590.5C 540.655,590.046 551.822,594.379 561,603.5C 564.477,614.028 560.643,620.195 549.5,622C 538.524,623.339 528.191,621.339 518.5,616C 512.877,612.045 507.543,607.712 502.5,603C 460.417,595.873 419.084,598.873 378.5,612C 327.65,625.927 281.317,648.594 239.5,680C 263.475,674.564 286.808,666.898 309.5,657C 318.721,653.926 328.054,651.259 337.5,649C 342.5,648.333 347.5,648.333 352.5,649C 366.636,652.373 380.97,654.373 395.5,655C 419.61,659.704 443.277,666.037 466.5,674C 486.549,683.572 507.216,691.572 528.5,698C 550.475,709.103 573.475,717.437 597.5,723C 602.853,725.051 603.686,728.218 600,732.5C 595.5,736.333 591,740.167 586.5,744C 573.341,750.746 560.341,757.746 547.5,765C 523.924,773.716 499.591,778.049 474.5,778C 457.56,773.242 441.227,766.909 425.5,759C 422.084,754.913 418.084,751.58 413.5,749C 399.221,747.736 384.888,747.069 370.5,747C 347.552,745.349 327.219,737.349 309.5,723C 301.787,720.822 294.12,718.488 286.5,716C 270.082,706.793 252.749,699.793 234.5,695C 225.067,693.121 216.4,694.788 208.5,700C 186.659,716.837 163.993,732.504 140.5,747C 122.52,756.658 103.853,764.658 84.5,771C 79.5445,772.218 74.5445,772.551 69.5,772C 66.6293,769.16 66.9626,766.826 70.5,765C 81.9515,763.72 92.9515,760.72 103.5,756C 118.414,749.209 133.081,741.876 147.5,734C 161.342,724.579 175.009,714.912 188.5,705C 190.788,702.257 192.955,699.423 195,696.5C 202.607,680.954 209.94,665.287 217,649.5C 224.015,622.41 231.348,595.41 239,568.5C 241.222,559.95 242.222,551.283 242,542.5C 233.371,533.315 230.704,522.649 234,510.5C 236.859,503.268 242.025,499.768 249.5,500C 254.205,503.226 257.038,507.726 258,513.5C 259.932,527.691 256.932,540.691 249,552.5C 247.39,569.726 243.39,586.393 237,602.5C 234.276,615.243 231.276,627.91 228,640.5C 221.823,656.521 214.823,672.188 207,687.5C 206.333,688.5 206.333,689.5 207,690.5C 237.408,671.797 266.408,651.131 294,628.5C 296.464,625.274 297.631,621.607 297.5,617.5C 295.293,603.8 292.96,590.133 290.5,576.5 Z"/></g>
<g><path style="opacity:1" fill="#e1bdbc" d="M 706.5,154.5 C 706.232,156.099 706.566,157.432 707.5,158.5C 707.152,160.713 706.319,162.713 705,164.5C 704.757,160.967 705.257,157.633 706.5,154.5 Z"/></g>
<g><path style="opacity:1" fill="#a84643" d="M 545.5,294.5 C 546.924,303.794 547.591,313.294 547.5,323C 547.499,328.677 547.166,334.177 546.5,339.5C 546.3,324.496 545.967,309.496 545.5,294.5 Z"/></g>
<g><path style="opacity:1" fill="#f1e1e1" d="M 431.5,402.5 C 432.661,417.995 432.828,433.661 432,449.5C 431.809,451.708 431.309,453.708 430.5,455.5C 431.381,437.85 431.714,420.183 431.5,402.5 Z"/></g>
<g><path style="opacity:1" fill="#e0bbba" d="M 289.5,551.5 C 289.335,559.862 289.668,568.195 290.5,576.5C 289.778,576.082 289.278,575.416 289,574.5C 288.178,566.655 288.344,558.989 289.5,551.5 Z"/></g>
</svg>
