<?xml version="1.0" encoding="UTF-8"?>
<!DOCTYPE svg PUBLIC "-//W3C//DTD SVG 1.1//EN" "http://www.w3.org/Graphics/SVG/1.1/DTD/svg11.dtd">
<svg xmlns="http://www.w3.org/2000/svg" version="1.1" width="900px" height="780px" style="shape-rendering:geometricPrecision; text-rendering:geometricPrecision; image-rendering:optimizeQuality; fill-rule:evenodd; clip-rule:evenodd" xmlns:xlink="http://www.w3.org/1999/xlink">
<g><path style="opacity:1" fill="#fefefe" d="M -0.5,-0.5 C 299.5,-0.5 599.5,-0.5 899.5,-0.5C 899.5,259.5 899.5,519.5 899.5,779.5C 599.5,779.5 299.5,779.5 -0.5,779.5C -0.5,519.5 -0.5,259.5 -0.5,-0.5 Z"/></g>
<g><path style="opacity:1" fill="#2dc4e1" d="M 409.5,0.5 C 413.851,-0.467041 416.185,1.19963 416.5,5.5C 419.159,4.51451 421.826,3.51451 424.5,2.5C 428.825,3.72486 433.159,3.72486 437.5,2.5C 439.926,2.40355 442.093,3.07022 444,4.5C 451.766,30.56 458.099,56.8933 463,83.5C 467.105,75.8584 470.439,67.8584 473,59.5C 478.332,48.3373 485.499,38.504 494.5,30C 498.975,26.0599 503.808,25.5599 509,28.5C 510.895,26.8179 513.062,26.3179 515.5,27C 519.615,29.4476 523.448,32.2809 527,35.5C 527.433,41.7744 526.267,47.7744 523.5,53.5C 526.503,52.3575 529.003,50.0242 531,46.5C 535.719,41.2785 540.885,36.6118 546.5,32.5C 548.772,33.4411 550.772,34.7745 552.5,36.5C 555.267,34.7005 558.101,33.0338 561,31.5C 562.961,32.8966 565.128,33.8966 567.5,34.5C 570.978,33.4223 574.478,32.4223 578,31.5C 582.581,38.4109 585.081,46.0775 585.5,54.5C 584.524,69.2133 581.691,83.5466 577,97.5C 576.333,99.1667 576.333,100.833 577,102.5C 585.375,90.4519 594.875,79.2852 605.5,69C 608.217,66.9238 611.217,66.2571 614.5,67C 617.927,68.0857 621.26,69.2524 624.5,70.5C 628.693,69.736 632.693,68.4027 636.5,66.5C 639.861,67.0276 642.194,68.8609 643.5,72C 646.956,72.1802 650.289,72.8468 653.5,74C 657.959,107.467 653.792,139.967 641,171.5C 637.015,182.13 632.515,192.463 627.5,202.5C 628.552,202.649 629.552,202.483 630.5,202C 652.849,178.969 677.516,158.969 704.5,142C 712.442,138.125 720.775,136.125 729.5,136C 733.165,137.497 736.498,139.497 739.5,142C 743.87,142.919 748.203,143.919 752.5,145C 756.43,150.053 760.93,154.553 766,158.5C 768.782,163.582 769.282,168.915 767.5,174.5C 778.496,171.827 785.83,175.661 789.5,186C 801.187,187.002 806.02,193.169 804,204.5C 802.892,208.491 801.392,212.325 799.5,216C 803.771,218.81 808.104,221.644 812.5,224.5C 815.326,227.141 817.326,230.307 818.5,234C 825.663,234.665 829.663,238.498 830.5,245.5C 835.353,247.536 837.353,251.202 836.5,256.5C 835.676,265.161 832.842,273.161 828,280.5C 819.676,296.985 808.176,310.818 793.5,322C 782.965,328.699 772.298,335.199 761.5,341.5C 775.451,341.494 789.451,341.66 803.5,342C 811.521,342.836 819.521,343.836 827.5,345C 833.041,346.685 837.874,349.518 842,353.5C 843.94,357.943 844.94,362.61 845,367.5C 847.77,369.601 849.77,372.268 851,375.5C 851.667,382.5 851.667,389.5 851,396.5C 844.745,402.759 837.912,408.259 830.5,413C 819.88,417.538 809.213,421.871 798.5,426C 806.327,429.612 814.494,431.778 823,432.5C 822.878,437.021 824.211,441.021 827,444.5C 827.3,450.186 827.3,455.853 827,461.5C 830.496,464.152 832.996,467.486 834.5,471.5C 832.192,475.795 829.526,479.795 826.5,483.5C 829.673,487.042 832.84,490.709 836,494.5C 837.358,499.993 836.191,504.827 832.5,509C 828.461,512.019 824.128,514.519 819.5,516.5C 822.494,518.662 824.994,521.328 827,524.5C 827.891,528.372 827.391,532.038 825.5,535.5C 829.171,540.811 829.338,546.145 826,551.5C 816.241,557.965 806.074,563.799 795.5,569C 784.026,572.753 772.36,573.42 760.5,571C 740.281,565.195 719.948,560.195 699.5,556C 713.354,572.871 725.854,590.704 737,609.5C 743.484,621.785 747.651,634.785 749.5,648.5C 749.832,654.839 746.832,658.505 740.5,659.5C 739.401,667.528 735.401,673.695 728.5,678C 725.5,678.667 722.5,678.667 719.5,678C 715.986,676.438 712.319,675.605 708.5,675.5C 709.616,682.189 710.949,688.856 712.5,695.5C 712.099,700.203 710.599,704.536 708,708.5C 700.301,713.52 692.134,717.687 683.5,721C 677.876,729.121 670.21,731.788 660.5,729C 655.979,728.271 651.646,726.937 647.5,725C 631.81,716.488 615.81,708.488 599.5,701C 595,697.833 591.167,694 588,689.5C 590.098,709.384 587.764,728.717 581,747.5C 576.052,761.391 566.219,767.891 551.5,767C 549.651,768.093 547.984,769.426 546.5,771C 543.167,771 539.833,771 536.5,771C 531.76,775.179 526.76,775.512 521.5,772C 511.283,763.74 504.45,753.24 501,740.5C 499.226,731.522 497.559,722.522 496,713.5C 492.514,724.443 489.18,735.443 486,746.5C 483.174,758.005 477.008,767.172 467.5,774C 463.5,774.333 459.5,774.667 455.5,775C 453.955,776.94 451.955,778.106 449.5,778.5C 444.621,777.011 439.621,776.178 434.5,776C 432.208,774.71 430.208,773.043 428.5,771C 427.127,770.125 425.627,769.625 424,769.5C 420.212,770.978 416.378,772.312 412.5,773.5C 409.988,773.006 407.655,772.006 405.5,770.5C 403.088,771.818 400.754,771.651 398.5,770C 394.455,765.418 391.289,760.251 389,754.5C 384.536,741.579 379.536,728.913 374,716.5C 366.619,725.426 359.119,734.26 351.5,743C 349.833,743.667 348.167,743.667 346.5,743C 344.487,741.743 342.321,740.909 340,740.5C 336.054,742.056 331.887,742.889 327.5,743C 324.726,745.471 321.56,747.305 318,748.5C 310.797,744.96 306.13,739.293 304,731.5C 297.428,702.051 299.928,673.384 311.5,645.5C 310.336,640.811 308.503,640.477 306,644.5C 298.461,664.686 286.961,682.186 271.5,697C 269.5,698 267.5,699 265.5,700C 259.446,700.971 253.446,702.137 247.5,703.5C 246.5,703.333 245.5,703.167 244.5,703C 242.591,700.75 240.425,698.916 238,697.5C 230.906,700.141 225.24,698.474 221,692.5C 209.07,675.087 206.236,656.254 212.5,636C 212.167,635.5 211.833,635 211.5,634.5C 200.472,644.36 188.472,652.86 175.5,660C 171.358,662.072 167.025,663.572 162.5,664.5C 156.715,663.542 151.715,661.042 147.5,657C 143.465,653.3 139.798,649.3 136.5,645C 129.274,643.941 125.941,639.775 126.5,632.5C 130.343,608.812 141.01,588.812 158.5,572.5C 158.167,572.167 157.833,571.833 157.5,571.5C 143.709,576.966 129.376,579.966 114.5,580.5C 111.741,580.458 109.075,579.958 106.5,579C 98.7756,573.888 90.609,569.721 82,566.5C 81.6667,562.5 81.3333,558.5 81,554.5C 77.555,549.945 74.8883,544.945 73,539.5C 72.1915,534.637 72.8582,529.97 75,525.5C 82.5071,513.171 92.0071,502.671 103.5,494C 113.542,488.319 123.209,482.152 132.5,475.5C 121.975,473.16 111.309,471.327 100.5,470C 87.1745,465.175 77.5078,456.341 71.5,443.5C 73.6864,438.376 75.1864,433.043 76,427.5C 76.4652,426.069 77.2986,424.903 78.5,424C 72.8642,422.945 67.1975,421.945 61.5,421C 58.8221,419.159 57.1555,416.659 56.5,413.5C 54.8333,412.167 53.1667,410.833 51.5,409.5C 43.7608,397.209 43.9275,384.876 52,372.5C 56.5452,367.488 61.3785,362.822 66.5,358.5C 57.7916,353.111 51.9582,345.444 49,335.5C 48.3333,333.5 48.3333,331.5 49,329.5C 52.8333,325.667 56.6667,321.833 60.5,318C 61.448,317.517 62.448,317.351 63.5,317.5C 61.6907,309.843 64.0241,304.01 70.5,300C 74.0569,298.592 77.7235,297.592 81.5,297C 91.1895,296.648 100.856,295.981 110.5,295C 102.32,287.485 94.8198,279.319 88,270.5C 68.699,246.065 71.8657,225.232 97.5,208C 106.167,207.333 114.833,207.333 123.5,208C 138.423,211.863 153.09,216.53 167.5,222C 169.81,222.497 172.143,222.663 174.5,222.5C 174.509,220.692 174.009,219.025 173,217.5C 155.968,198.442 143.301,176.775 135,152.5C 134.099,144.421 134.432,136.421 136,128.5C 136.465,127.069 137.299,125.903 138.5,125C 141.941,123.224 145.108,121.057 148,118.5C 151.46,112.41 155.294,106.577 159.5,101C 164.334,98.0031 169.667,96.6698 175.5,97C 178.254,93.1215 181.921,91.7882 186.5,93C 194.739,96.119 202.739,99.7857 210.5,104C 219.712,110.11 228.378,116.944 236.5,124.5C 237.662,119.869 237.828,115.202 237,110.5C 234.561,97.5914 232.727,84.5914 231.5,71.5C 232.707,54.9217 239.374,41.0883 251.5,30C 257.213,29.8891 262.88,29.0558 268.5,27.5C 272.201,29.2388 275.535,28.7388 278.5,26C 280.833,25.3333 283.167,25.3333 285.5,26C 300.435,32.9316 312.269,43.4316 321,57.5C 334.636,78.1056 345.636,100.106 354,123.5C 358.491,133.151 363.491,142.485 369,151.5C 366.781,110.595 372.114,70.5948 385,31.5C 390.319,18.8325 398.486,8.49914 409.5,0.5 Z"/></g>
<g><path style="opacity:1" fill="#fefefe" d="M 466.5,298.5 C 466.56,299.043 466.893,299.376 467.5,299.5C 468.809,295.351 468.809,291.351 467.5,287.5C 467.664,284.813 467.497,282.146 467,279.5C 464.61,278.109 462.943,276.109 462,273.5C 462.779,208.052 478.445,146.385 509,88.5C 518.502,72.666 529.168,57.666 541,43.5C 543.481,40.1282 545.981,39.9615 548.5,43C 550.167,43.6667 551.833,43.6667 553.5,43C 555.641,41.6924 557.641,40.1924 559.5,38.5C 561.475,40.3206 563.809,41.3206 566.5,41.5C 569.832,40.3273 573.165,39.494 576.5,39C 578.068,41.3041 579.235,43.8041 580,46.5C 580.537,53.8626 580.203,61.196 579,68.5C 571.359,104.732 561.692,140.399 550,175.5C 543.455,208.475 531.788,239.475 515,268.5C 509.769,277.066 503.769,285.066 497,292.5C 494,297.5 491,302.5 488,307.5C 485.528,305.702 483.861,303.368 483,300.5C 483.146,295.176 483.146,289.843 483,284.5C 482.667,283.833 482.333,283.167 482,282.5C 479.296,289.198 477.963,296.198 478,303.5C 477.152,306.698 475.652,309.531 473.5,312C 474.025,312.692 474.692,313.192 475.5,313.5C 481.045,308.909 485.378,309.742 488.5,316C 487.38,317.737 486.38,319.571 485.5,321.5C 485.833,321.833 486.167,322.167 486.5,322.5C 496.028,317.805 503.028,310.638 507.5,301C 504.791,300.459 502.791,298.959 501.5,296.5C 527.003,263.151 544.17,225.818 553,184.5C 560.006,165.816 566.006,146.816 571,127.5C 579.665,105.977 592.832,87.8099 610.5,73C 614.484,71.8846 617.818,72.8846 620.5,76C 625.72,77.0531 630.553,76.2198 635,73.5C 636.107,73.5852 637.107,73.9186 638,74.5C 638.273,76.1012 638.773,77.6012 639.5,79C 642.514,79.1276 645.514,79.1276 648.5,79C 651.604,122.101 642.437,162.601 621,200.5C 609.674,221.828 597.34,242.495 584,262.5C 569.248,281.254 553.082,298.754 535.5,315C 533.63,316.366 531.63,317.533 529.5,318.5C 529.346,317.091 529.179,315.424 529,313.5C 523.549,316.304 518.716,319.804 514.5,324C 514.645,324.772 514.978,325.439 515.5,326C 510.527,326.491 507.193,328.991 505.5,333.5C 505.833,334.167 506.167,334.833 506.5,335.5C 508.662,333.98 510.995,332.98 513.5,332.5C 513.891,336.383 513.224,340.05 511.5,343.5C 514.228,344.94 516.395,344.274 518,341.5C 518.995,338.23 519.828,334.897 520.5,331.5C 527.359,326.14 534.359,320.974 541.5,316C 568.887,289.323 593.054,260.156 614,228.5C 625.397,214.098 637.897,200.598 651.5,188C 663.833,177.667 676.167,167.333 688.5,157C 698.853,149.239 710.353,144.073 723,141.5C 725.925,141.523 728.759,142.023 731.5,143C 736.031,147.893 741.698,150.226 748.5,150C 749.786,153.153 751.786,155.819 754.5,158C 761.526,159.878 764.026,164.378 762,171.5C 761.071,179.287 758.738,186.62 755,193.5C 743.5,209 732,224.5 720.5,240C 716.281,241.012 713.448,243.512 712,247.5C 704.852,252.65 698.352,258.483 692.5,265C 681.554,272.279 670.888,279.946 660.5,288C 645.797,301.705 630.797,315.038 615.5,328C 595.746,340.543 575.413,352.043 554.5,362.5C 553.09,362.132 552.09,361.299 551.5,360C 555.689,356.31 560.022,352.81 564.5,349.5C 560.526,348.459 556.859,349.293 553.5,352C 547.735,355.703 544.068,360.87 542.5,367.5C 543.833,367.5 545.167,367.5 546.5,367.5C 546.007,369.806 545.674,372.139 545.5,374.5C 551.175,371.683 556.509,368.183 561.5,364C 588.197,351.33 612.863,335.664 635.5,317C 645.602,305.892 656.602,295.892 668.5,287C 688.815,271.842 709.482,257.175 730.5,243C 744.113,235.241 758.447,229.241 773.5,225C 779.778,223.757 786.111,222.924 792.5,222.5C 803.525,222.349 810.359,227.683 813,238.5C 815.564,240.077 818.397,241.077 821.5,241.5C 822.314,243.766 822.814,246.1 823,248.5C 825.543,250.105 828.209,251.438 831,252.5C 831.667,255.167 831.667,257.833 831,260.5C 813.922,305.643 781.755,333.476 734.5,344C 694.06,346.155 654.393,352.822 615.5,364C 598.391,370.055 581.391,376.389 564.5,383C 561.328,385.006 558.662,387.506 556.5,390.5C 555.914,390.291 555.414,389.957 555,389.5C 554.502,386.518 554.335,383.518 554.5,380.5C 548.782,378.528 545.115,380.528 543.5,386.5C 545.001,388.957 546.668,388.957 548.5,386.5C 548.887,388.731 549.053,391.064 549,393.5C 551.304,395.068 553.804,396.235 556.5,397C 552.455,399.573 548.122,401.573 543.5,403C 541.65,404.845 541.317,406.845 542.5,409C 544.443,408.695 546.443,408.695 548.5,409C 549.081,409.893 549.415,410.893 549.5,412C 546.803,416.894 544.803,422.061 543.5,427.5C 545.167,427.5 546.833,427.5 548.5,427.5C 548.113,433.717 544.779,436.55 538.5,436C 537.54,437.419 536.707,438.919 536,440.5C 536.874,434.921 534.708,431.254 529.5,429.5C 530.495,423.886 531.162,418.22 531.5,412.5C 532.822,412.33 533.989,412.663 535,413.5C 535.912,415.659 536.745,417.825 537.5,420C 538.449,420.617 539.282,420.451 540,419.5C 542.857,410.026 539.357,405.526 529.5,406C 530.159,402.162 530.492,398.329 530.5,394.5C 531.818,396.751 533.484,398.751 535.5,400.5C 537.256,398.809 537.756,396.809 537,394.5C 532.414,388.993 529.747,382.659 529,375.5C 526.293,373.114 523.46,372.948 520.5,375C 516.073,377.685 514.24,381.518 515,386.5C 515.667,387.167 516.333,387.833 517,388.5C 518.185,386.623 519.185,384.623 520,382.5C 524.058,379.411 525.725,380.411 525,385.5C 522.333,389.5 519,392.833 515,395.5C 512.791,398.988 513.291,401.988 516.5,404.5C 517.298,402.922 517.798,401.256 518,399.5C 519.133,397.789 520.633,397.289 522.5,398C 523.495,401.654 525.495,404.654 528.5,407C 523.43,409.614 519.597,413.448 517,418.5C 516.333,419.833 516.333,421.167 517,422.5C 517.718,423.451 518.551,423.617 519.5,423C 520.5,421.333 521.5,419.667 522.5,418C 523.448,417.517 524.448,417.351 525.5,417.5C 524.739,422.361 525.739,426.695 528.5,430.5C 526.424,432.288 524.257,433.954 522,435.5C 521.115,438 519.948,440.333 518.5,442.5C 520.343,445.422 523.01,446.755 526.5,446.5C 526.523,448.927 527.023,451.26 528,453.5C 532.368,457.533 536.368,461.866 540,466.5C 541.117,465.051 541.784,463.384 542,461.5C 542.561,460.978 543.228,460.645 544,460.5C 546.741,461.789 549.241,463.455 551.5,465.5C 551.833,465.167 552.167,464.833 552.5,464.5C 550.192,461.025 547.692,457.692 545,454.5C 544.312,453.668 544.479,453.002 545.5,452.5C 547.349,453.593 549.016,454.926 550.5,456.5C 551.736,457.246 553.07,457.579 554.5,457.5C 553.462,452.941 550.962,449.274 547,446.5C 545.872,444.655 545.372,442.655 545.5,440.5C 548.263,440.744 550.429,442.077 552,444.5C 553.267,448.046 555.267,451.046 558,453.5C 559.059,453.37 559.892,452.87 560.5,452C 559.62,450.644 559.286,449.144 559.5,447.5C 562.016,447.755 564.35,448.589 566.5,450C 590.235,467.584 616.902,477.917 646.5,481C 656.583,487.279 667.583,491.279 679.5,493C 700.726,501.807 722.726,507.807 745.5,511C 765.52,513.521 785.52,516.187 805.5,519C 811.195,520.006 816.361,522.173 821,525.5C 820.922,529.592 820.088,533.592 818.5,537.5C 819.833,539.833 821.167,542.167 822.5,544.5C 821.781,546.728 820.448,548.561 818.5,550C 807.295,557.602 795.295,563.602 782.5,568C 768.904,568.083 755.57,566.083 742.5,562C 727.074,557.643 711.741,552.977 696.5,548C 659.864,529.518 623.53,510.851 587.5,492C 591.914,497.409 597.247,501.742 603.5,505C 627.15,516.824 650.483,529.157 673.5,542C 682.499,547.762 690.666,554.595 698,562.5C 710.316,577.798 721.65,593.798 732,610.5C 735.726,619.01 739.059,627.677 742,636.5C 743.271,641.754 743.771,647.087 743.5,652.5C 737.951,652.762 733.951,655.262 731.5,660C 732.606,661.882 732.606,663.716 731.5,665.5C 728.67,667.322 726.67,669.822 725.5,673C 709.365,671.433 695.698,664.766 684.5,653C 675.622,648.394 666.622,644.061 657.5,640C 640.489,629.826 623.156,620.16 605.5,611C 591.956,601.789 580.789,590.289 572,576.5C 554.748,547.664 537.748,518.664 521,489.5C 517.818,482.469 516.818,475.135 518,467.5C 522.783,462.522 522.616,457.855 517.5,453.5C 515.634,445.442 511.467,438.775 505,433.5C 504.014,430.258 504.848,427.592 507.5,425.5C 510.248,428.661 511.581,432.327 511.5,436.5C 514.85,436.349 516.516,434.515 516.5,431C 516,423.255 512,419.922 504.5,421C 500.882,424.335 498.882,428.501 498.5,433.5C 498.472,430.003 498.306,426.336 498,422.5C 497.626,421.584 497.126,420.75 496.5,420C 493.556,419.03 490.556,418.196 487.5,417.5C 484.459,411.757 479.793,409.09 473.5,409.5C 472.537,413.796 472.371,418.129 473,422.5C 474.828,424.081 476.828,425.415 479,426.5C 481.075,435.69 483.409,435.69 486,426.5C 491.173,421.771 493.506,422.771 493,429.5C 488.678,432.979 485.178,437.145 482.5,442C 480.741,442.798 479.074,442.631 477.5,441.5C 470.528,432.73 465.528,433.897 462.5,445C 463.125,448.584 464.792,451.584 467.5,454C 464.943,455.119 462.443,455.285 460,454.5C 457.908,443.06 451.408,439.227 440.5,443C 437.724,445.994 436.558,449.494 437,453.5C 440.677,458.589 445.51,462.089 451.5,464C 452.609,467.826 451.609,471.159 448.5,474C 444.818,474.241 441.984,472.741 440,469.5C 436.922,458.143 430.922,456.477 422,464.5C 420.399,467.094 420.233,469.761 421.5,472.5C 424.086,467.552 428.086,465.219 433.5,465.5C 433.657,466.873 433.49,468.207 433,469.5C 427.399,473.368 424.399,478.701 424,485.5C 422.947,478.103 418.78,474.936 411.5,476C 405.567,479.675 401.401,484.842 399,491.5C 398.202,493.259 398.369,494.926 399.5,496.5C 401.817,494.758 403.317,492.424 404,489.5C 408.125,486.806 409.958,488.139 409.5,493.5C 410.675,493.719 411.675,493.386 412.5,492.5C 413.161,489.008 414.494,485.841 416.5,483C 417.725,482.437 418.725,482.77 419.5,484C 407.657,504.189 397.823,525.356 390,547.5C 388.744,528.039 387.078,508.706 385,489.5C 389.137,484.692 393.304,479.859 397.5,475C 398.899,474.405 400.232,474.572 401.5,475.5C 402.216,473.518 403.383,471.851 405,470.5C 403.483,465.228 402.316,459.728 401.5,454C 401.877,446.945 405.211,444.945 411.5,448C 413.202,450.235 414.202,452.735 414.5,455.5C 417.5,455.5 420.5,455.5 423.5,455.5C 423.073,448.526 426.406,445.36 433.5,446C 432.471,444.302 430.971,443.468 429,443.5C 424.992,444.336 421.159,445.669 417.5,447.5C 414.58,445.778 412.747,443.445 412,440.5C 415.93,437.951 418.93,434.618 421,430.5C 421.625,421.515 424.792,420.349 430.5,427C 429.667,428.5 428.5,429.667 427,430.5C 426.333,431.167 426.333,431.833 427,432.5C 434.817,439.044 442.484,438.711 450,431.5C 452.209,428.012 451.709,425.012 448.5,422.5C 447.646,430.354 443.312,433.688 435.5,432.5C 436.055,428.44 438.055,425.273 441.5,423C 433.538,423.019 427.205,419.852 422.5,413.5C 423.924,408.883 426.924,407.05 431.5,408C 432.435,410.381 432.768,412.881 432.5,415.5C 438.704,412.095 439.037,407.928 433.5,403C 431.305,401.627 428.971,401.294 426.5,402C 423.238,404.592 420.738,407.759 419,411.5C 417.848,417.77 417.182,424.103 417,430.5C 413.69,426.629 410.524,426.629 407.5,430.5C 408.472,432.636 410.139,433.803 412.5,434C 409.706,436.638 406.539,437.138 403,435.5C 402.859,431.411 402.692,427.411 402.5,423.5C 398.29,420.907 393.957,420.407 389.5,422C 384.949,425.74 384.449,429.907 388,434.5C 390.596,436.02 393.429,436.853 396.5,437C 398.641,438.308 400.641,439.808 402.5,441.5C 400.468,444.368 398.635,447.368 397,450.5C 394.588,453.792 391.421,454.959 387.5,454C 385.743,451.154 383.743,448.488 381.5,446C 375.275,444.221 369.609,441.388 364.5,437.5C 363.703,441.842 362.87,446.176 362,450.5C 351.59,464.315 341.924,478.649 333,493.5C 324.449,511.935 316.449,530.601 309,549.5C 303.556,569.493 301.556,589.826 303,610.5C 304.55,618.448 305.217,626.448 305,634.5C 299.606,646.289 293.939,657.956 288,669.5C 282.205,679.958 274.372,688.458 264.5,695C 261.167,695 257.833,695 254.5,695C 249.288,700.424 245.621,699.591 243.5,692.5C 242.5,692.167 241.5,691.833 240.5,691.5C 236.598,692.972 232.598,693.472 228.5,693C 213.204,673.38 210.704,652.213 221,629.5C 232.946,600.922 247.946,574.256 266,549.5C 288.678,520.814 312.844,493.314 338.5,467C 342.756,463.955 346.923,460.788 351,457.5C 352.923,453.742 355.423,450.409 358.5,447.5C 358,447.167 357.5,446.833 357,446.5C 354.683,447.826 352.349,449.16 350,450.5C 346.139,445.15 345.972,439.816 349.5,434.5C 347.926,433.369 346.259,433.202 344.5,434C 342.822,439.708 339.155,442.042 333.5,441C 330.402,437.229 331.236,434.729 336,433.5C 340.366,427.626 339.199,426.126 332.5,429C 327.288,431.247 323.788,435.08 322,440.5C 319.5,443 317,445.5 314.5,448C 319.385,446.743 324.385,445.743 329.5,445C 325.5,448 321.5,451 317.5,454C 296.5,473 275.5,492 254.5,511C 244.176,518.497 233.509,525.497 222.5,532C 198.469,544.349 174.469,556.682 150.5,569C 136.769,573.009 122.769,574.676 108.5,574C 105.228,572.392 102.228,570.392 99.5,568C 95.7015,567.04 92.0349,565.706 88.5,564C 87.9415,563.275 87.6082,562.442 87.5,561.5C 90.665,557.254 90.165,553.587 86,550.5C 85.6063,545.778 83.273,542.445 79,540.5C 78.2107,533.532 79.8774,527.199 84,521.5C 91.8697,511.963 100.703,503.463 110.5,496C 121.167,490 131.833,484 142.5,478C 144.788,477.178 147.122,476.511 149.5,476C 177.03,476.893 203.697,472.559 229.5,463C 250.983,452.094 271.983,440.428 292.5,428C 300.625,424.458 308.959,421.625 317.5,419.5C 316.628,416.421 316.628,413.421 317.5,410.5C 330.353,413.196 331.686,410.696 321.5,403C 318.837,403.143 316.171,403.643 313.5,404.5C 307.206,403.275 301.039,401.608 295,399.5C 294.5,399.667 294,399.833 293.5,400C 296.838,401.851 298.171,404.685 297.5,408.5C 301.773,409.078 305.773,410.411 309.5,412.5C 309.822,414.722 309.155,416.556 307.5,418C 301.241,417.658 295.575,419.325 290.5,423C 270.825,434.84 250.825,446.173 230.5,457C 206.278,466.604 181.111,471.104 155,470.5C 137.368,469.911 119.868,468.078 102.5,465C 91.2612,461.926 83.2612,455.092 78.5,444.5C 79.4295,442.394 80.5962,440.394 82,438.5C 82.4978,436.473 82.3311,434.473 81.5,432.5C 81.8333,431.833 82.1667,431.167 82.5,430.5C 85.1886,429.443 87.6886,428.11 90,426.5C 91.2036,422.284 91.8702,417.951 92,413.5C 98.8039,405.39 107.304,399.557 117.5,396C 149.439,382.104 182.772,376.77 217.5,380C 240.162,385.999 262.828,391.999 285.5,398C 287.167,398.667 288.833,398.667 290.5,398C 283.664,394.61 276.664,391.61 269.5,389C 253.829,384.665 238.162,380.331 222.5,376C 196.596,372.469 170.93,373.802 145.5,380C 130.83,384.836 116.497,390.502 102.5,397C 97.2116,400.232 92.3783,404.065 88,408.5C 85.8219,411.863 84.3219,415.529 83.5,419.5C 78.09,417.158 72.4234,415.991 66.5,416C 62,411.5 57.5,407 53,402.5C 49.0322,387.399 53.5322,375.565 66.5,367C 80.0253,360.035 94.3586,355.701 109.5,354C 157.929,347.173 204.929,352.507 250.5,370C 259.94,373.886 268.94,378.553 277.5,384C 287.682,388.061 298.015,391.728 308.5,395C 307.167,395.667 305.833,396.333 304.5,397C 303.167,397.667 303.167,398.333 304.5,399C 311.524,399.831 318.524,399.664 325.5,398.5C 324.086,397.376 322.586,396.376 321,395.5C 320.333,394.5 320.333,393.5 321,392.5C 323.667,391.833 326.333,391.167 329,390.5C 329.119,385.718 329.785,381.051 331,376.5C 333.044,375.228 334.878,375.561 336.5,377.5C 337.712,375.159 337.378,372.993 335.5,371C 328.416,369.043 322.583,365.21 318,359.5C 287.883,307.049 246.716,265.549 194.5,235C 173.061,213.89 155.895,189.724 143,162.5C 140.571,152.308 139.904,141.975 141,131.5C 143.642,129.249 146.642,127.582 150,126.5C 151.878,121.627 154.878,117.627 159,114.5C 159.395,108.348 162.561,104.681 168.5,103.5C 174.636,106.007 179.303,104.507 182.5,99C 185.594,98.3482 188.594,98.6815 191.5,100C 211.128,108.059 227.295,120.559 240,137.5C 241.841,142.703 243.174,148.036 244,153.5C 254.868,184.436 265.534,215.436 276,246.5C 290.054,277.231 309.554,304.065 334.5,327C 342.871,333.519 351.871,339.019 361.5,343.5C 363.029,343.471 364.196,342.804 365,341.5C 366.092,338.956 366.759,336.289 367,333.5C 368.416,330.805 370.416,330.139 373,331.5C 374.275,333.717 375.275,336.051 376,338.5C 376.667,337.833 377.333,337.167 378,336.5C 378.333,332.833 378.667,329.167 379,325.5C 383.872,322.287 387.706,323.287 390.5,328.5C 392.953,326.004 393.12,323.338 391,320.5C 385.593,316.927 381.426,312.26 378.5,306.5C 377.311,305.571 375.978,305.238 374.5,305.5C 378.849,323.296 376.682,323.962 368,307.5C 367,306.5 366,305.5 365,304.5C 364.833,305.5 364.667,306.5 364.5,307.5C 366.582,313.322 368.915,318.989 371.5,324.5C 369.801,324.66 368.134,324.494 366.5,324C 363.98,320.484 361.147,317.317 358,314.5C 356.635,315.593 356.301,316.926 357,318.5C 358.586,321.341 360.42,324.007 362.5,326.5C 361.635,327.583 360.635,327.749 359.5,327C 356.833,325.333 354.167,323.667 351.5,322C 346.617,320.965 345.617,322.299 348.5,326C 352.775,327.957 356.441,330.624 359.5,334C 357.586,335.827 355.586,335.827 353.5,334C 320.118,310.791 295.618,280.291 280,242.5C 272.719,222.046 266.052,201.379 260,180.5C 254.131,166.894 249.465,152.894 246,138.5C 242.943,118.217 240.277,97.8842 238,77.5C 236.395,61.4791 241.228,47.8125 252.5,36.5C 253.607,35.9781 254.774,35.6448 256,35.5C 258,36.1667 260,36.8333 262,37.5C 264.333,36.5 266.667,35.5 269,34.5C 271.478,35.3319 273.978,35.4986 276.5,35C 281.991,30.6144 287.658,30.6144 293.5,35C 306.831,45.3313 317.664,57.8313 326,72.5C 330.255,80.0092 334.255,87.6759 338,95.5C 347.059,116.618 356.392,137.618 366,158.5C 368.761,166.304 370.761,174.304 372,182.5C 372.683,212.599 377.683,241.932 387,270.5C 392.057,283.614 397.39,296.614 403,309.5C 403.667,311.167 403.667,312.833 403,314.5C 401.634,316.37 400.467,318.37 399.5,320.5C 399.919,321.672 400.585,322.672 401.5,323.5C 403.04,321.613 404.707,319.78 406.5,318C 408.367,317.289 409.867,317.789 411,319.5C 411.495,321.473 411.662,323.473 411.5,325.5C 413.39,325.703 414.89,325.037 416,323.5C 419.448,315.759 416.948,311.092 408.5,309.5C 410.871,307.046 411.038,304.379 409,301.5C 404.605,295.434 400.605,289.1 397,282.5C 390.372,265.285 385.372,247.618 382,229.5C 378.215,195.705 375.048,161.872 372.5,128C 374.594,98.271 379.76,69.1043 388,40.5C 390.96,26.8881 398.126,16.2214 409.5,8.5C 411.758,10.6768 413.258,13.3435 414,16.5C 417.523,20.6683 420.356,20.1683 422.5,15C 424.5,15 426.5,15 428.5,15C 429.928,12.8153 431.595,10.8153 433.5,9C 436.347,8.05611 438.847,8.55611 441,10.5C 447.866,34.1619 453.199,58.1619 457,82.5C 457.588,112.175 457.254,141.842 456,171.5C 451.969,200.114 448.302,228.781 445,257.5C 442.042,275.306 443.209,292.806 448.5,310C 446.048,315.779 447.548,317.612 453,315.5C 456.089,315.114 458.589,316.114 460.5,318.5C 461.086,318.291 461.586,317.957 462,317.5C 460.073,311.543 459.24,305.21 459.5,298.5C 459.667,294.833 459.833,291.167 460,287.5C 460.419,286.328 461.085,285.328 462,284.5C 463.544,289.248 465.044,293.914 466.5,298.5 Z"/></g>
<g><path style="opacity:1" fill="#fdfefe" d="M 498.5,33.5 C 499.873,33.3433 501.207,33.51 502.5,34C 503.573,36.6566 505.24,38.8232 507.5,40.5C 509.677,39.3237 511.011,37.4904 511.5,35C 516.423,34.0454 519.923,35.8788 522,40.5C 522.667,43.8333 522.667,47.1667 522,50.5C 519.333,54.5 516.667,58.5 514,62.5C 504.608,84.2847 494.941,105.951 485,127.5C 462.179,185.359 452.345,245.359 455.5,307.5C 454.178,307.33 453.011,307.663 452,308.5C 448.781,285.844 448.781,263.178 452,240.5C 454.814,220.139 457.814,199.805 461,179.5C 461.333,155.833 461.667,132.167 462,108.5C 463.726,95.2681 468.06,82.9347 475,71.5C 479.564,56.6848 487.397,44.0182 498.5,33.5 Z"/></g>
<g><path style="opacity:1" fill="#fdfefe" d="M 774.5,179.5 C 777.785,179.269 780.285,180.603 782,183.5C 782.353,186.539 783.52,189.205 785.5,191.5C 789.63,192.624 793.63,193.957 797.5,195.5C 799.177,204.979 795.844,212.146 787.5,217C 768.368,221.211 750.035,227.711 732.5,236.5C 731.417,235.635 731.251,234.635 732,233.5C 738.667,224.833 745.333,216.167 752,207.5C 756.759,200.989 760.759,193.989 764,186.5C 766.998,183.262 770.498,180.929 774.5,179.5 Z"/></g>
<g><path style="opacity:1" fill="#fefefe" d="M 103.5,211.5 C 116.082,211.597 128.415,213.43 140.5,217C 152.282,221.927 164.282,226.261 176.5,230C 224.546,254.462 264.379,288.629 296,332.5C 301.667,342.167 307.333,351.833 313,361.5C 317.033,365.868 321.366,369.868 326,373.5C 326.684,374.784 326.517,375.951 325.5,377C 321.83,377.279 318.163,377.112 314.5,376.5C 314.297,378.39 314.963,379.89 316.5,381C 319.244,381.803 321.911,382.803 324.5,384C 322.956,385.187 321.289,385.52 319.5,385C 310.724,379.279 301.391,374.612 291.5,371C 254.227,355.353 216.561,340.686 178.5,327C 142.605,312.648 111.439,291.481 85,263.5C 76.0058,245.101 79.5058,229.267 95.5,216C 98.0993,214.205 100.766,212.705 103.5,211.5 Z"/></g>
<g><path style="opacity:1" fill="#22c2e0" d="M 429.5,280.5 C 430.496,280.414 431.329,280.748 432,281.5C 432.333,282.833 432.667,284.167 433,285.5C 434.019,284.313 435.186,283.313 436.5,282.5C 438.154,289.388 437.654,296.055 435,302.5C 434.147,304.125 433.147,304.458 432,303.5C 428.08,298.327 425.247,292.66 423.5,286.5C 424.93,286.421 426.264,286.754 427.5,287.5C 428.275,285.157 428.942,282.823 429.5,280.5 Z"/></g>
<g><path style="opacity:1" fill="#bdedf6" d="M 467.5,287.5 C 468.809,291.351 468.809,295.351 467.5,299.5C 466.893,299.376 466.56,299.043 466.5,298.5C 467.482,295.038 467.815,291.371 467.5,287.5 Z"/></g>
<g><path style="opacity:1" fill="#40c9e4" d="M 488.5,283.5 C 489.693,283.97 490.36,284.97 490.5,286.5C 489.667,290.499 488.834,294.499 488,298.5C 484.693,293.445 484.86,288.445 488.5,283.5 Z"/></g>
<g><path style="opacity:1" fill="#3bc7e3" d="M 411.5,286.5 C 412.794,287.29 413.961,288.29 415,289.5C 417.293,293.252 419.46,297.086 421.5,301C 419.322,301.165 417.489,300.332 416,298.5C 413.61,294.829 412.11,290.829 411.5,286.5 Z"/></g>
<g><path style="opacity:1" fill="#fdfefe" d="M 85.5,301.5 C 94.5062,301.334 103.506,301.5 112.5,302C 126.787,306.977 140.454,313.31 153.5,321C 165.5,326.333 177.5,331.667 189.5,337C 226.561,350.353 263.228,364.686 299.5,380C 303.41,381.907 306.744,384.573 309.5,388C 311.218,388.346 312.885,388.846 314.5,389.5C 315.948,391.808 315.282,393.141 312.5,393.5C 308.138,392.435 303.805,391.268 299.5,390C 266.971,371.067 232.304,357.734 195.5,350C 155.583,344.453 115.916,345.953 76.5,354.5C 66.2884,352.799 59.1218,347.132 55,337.5C 54.218,334.743 54.718,332.243 56.5,330C 61.0812,328.129 65.2478,325.629 69,322.5C 69.9581,320.801 70.4581,318.967 70.5,317C 67.7418,310.43 69.7418,306.097 76.5,304C 79.6282,303.159 82.6282,302.325 85.5,301.5 Z"/></g>
<g><path style="opacity:1" fill="#2fc5e1" d="M 516.5,298.5 C 517.097,298.735 517.43,299.235 517.5,300C 515.723,304.387 513.557,308.554 511,312.5C 510.333,313.5 510.333,314.5 511,315.5C 523.224,309.166 524.39,310.666 514.5,320C 511.5,321.833 508.5,323.667 505.5,325.5C 504.205,321.114 504.372,316.781 506,312.5C 508.563,307.108 512.063,302.441 516.5,298.5 Z"/></g>
<g><path style="opacity:1" fill="#cef1f8" d="M 495.5,301.5 C 496.465,302.721 496.298,304.054 495,305.5C 494.044,306.579 493.211,307.745 492.5,309C 491.833,309.667 491.167,309.667 490.5,309C 492.389,306.618 494.055,304.118 495.5,301.5 Z"/></g>
<g><path style="opacity:1" fill="#4dcbe5" d="M 385.5,297.5 C 391.454,301.733 393.787,307.4 392.5,314.5C 389.896,308.956 387.562,303.29 385.5,297.5 Z"/></g>
<g><path style="opacity:1" fill="#2ec5e1" d="M 432.5,311.5 C 438.523,310.197 442.189,312.53 443.5,318.5C 443.363,320.107 442.696,321.441 441.5,322.5C 439.854,321.221 438.687,319.555 438,317.5C 433.649,316.492 429.982,317.825 427,321.5C 426.477,316.88 428.31,313.547 432.5,311.5 Z"/></g>
<g><path style="opacity:1" fill="#31c5e2" d="M 457.5,321.5 C 467.089,322.59 471.256,327.923 470,337.5C 469.692,338.308 469.192,338.975 468.5,339.5C 467.858,335.977 466.692,332.644 465,329.5C 461.218,325.316 457.885,325.649 455,330.5C 454.824,333.882 454.324,337.215 453.5,340.5C 452.522,340.023 451.689,339.357 451,338.5C 449.305,331.241 451.472,325.575 457.5,321.5 Z"/></g>
<g><path style="opacity:1" fill="#f2fbfd" d="M 523.5,321.5 C 524.239,321.369 524.906,321.536 525.5,322C 523.333,324.833 521.167,327.667 519,330.5C 517.916,329.335 517.083,328.002 516.5,326.5C 519.148,325.172 521.481,323.506 523.5,321.5 Z"/></g>
<g><path style="opacity:1" fill="#2ac4e1" d="M 416.5,328.5 C 422.361,328.212 424.361,330.878 422.5,336.5C 420.287,333.92 418.12,333.92 416,336.5C 416.028,340.723 414.695,344.389 412,347.5C 410.036,345.125 408.536,342.459 407.5,339.5C 406.186,340.313 405.019,341.313 404,342.5C 403.667,345.833 403.333,349.167 403,352.5C 398.678,347.908 398.345,342.908 402,337.5C 406.516,333.846 411.35,330.846 416.5,328.5 Z"/></g>
<g><path style="opacity:1" fill="#30c5e2" d="M 541.5,326.5 C 542.239,326.369 542.906,326.536 543.5,327C 538.615,332.388 533.282,337.221 527.5,341.5C 526.432,339.813 526.599,338.146 528,336.5C 531.767,332.048 536.267,328.714 541.5,326.5 Z"/></g>
<g><path style="opacity:1" fill="#2cc4e1" d="M 553.5,330.5 C 554.5,330.5 555.5,330.5 556.5,330.5C 556.649,331.552 556.483,332.552 556,333.5C 549.333,337.5 544,342.833 540,349.5C 539.793,353.089 539.293,356.589 538.5,360C 537.5,360.5 536.5,361 535.5,361.5C 534.686,359.234 534.186,356.9 534,354.5C 531.497,350.71 528.83,350.71 526,354.5C 526.41,359.957 524.744,364.624 521,368.5C 520.017,366.429 519.35,364.429 519,362.5C 517.173,364.302 516.006,366.468 515.5,369C 514.207,369.49 512.873,369.657 511.5,369.5C 511.248,366.68 511.748,364.014 513,361.5C 518.2,356.635 523.033,351.468 527.5,346C 530.956,345.82 534.289,345.153 537.5,344C 542.145,338.508 547.479,334.008 553.5,330.5 Z"/></g>
<g><path style="opacity:1" fill="#2fc5e1" d="M 435.5,332.5 C 444.136,333.735 447.303,338.735 445,347.5C 443.68,351.182 441.18,352.682 437.5,352C 430.31,346.168 429.643,339.668 435.5,332.5 Z"/></g>
<g><path style="opacity:1" fill="#f3fbfd" d="M 435.5,337.5 C 441.979,339.368 443.146,343.034 439,348.5C 436.147,345.423 434.981,341.756 435.5,337.5 Z"/></g>
<g><path style="opacity:1" fill="#31c5e2" d="M 382.5,340.5 C 390.149,340.314 393.315,343.981 392,351.5C 390.556,345.529 387.39,344.196 382.5,347.5C 381.803,350.29 380.803,352.957 379.5,355.5C 377.605,353.133 377.105,350.466 378,347.5C 379.012,344.798 380.512,342.465 382.5,340.5 Z"/></g>
<g><path style="opacity:1" fill="#2ac3e1" d="M 334.5,336.5 C 342.059,339.224 348.726,343.39 354.5,349C 356.5,349.333 358.5,349.667 360.5,350C 362.686,353.181 365.186,356.015 368,358.5C 368.164,361.522 367.164,364.189 365,366.5C 363.376,362.254 362.043,357.92 361,353.5C 360,354.5 359,355.5 358,356.5C 358.092,361.572 356.258,365.739 352.5,369C 351.275,369.563 350.275,369.23 349.5,368C 352.478,363.939 351.645,361.105 347,359.5C 340.407,360.537 338.907,363.871 342.5,369.5C 341.167,370.833 339.833,370.833 338.5,369.5C 333.397,366.198 328.564,362.531 324,358.5C 323.37,356.097 324.203,354.263 326.5,353C 328.9,352.814 331.234,352.314 333.5,351.5C 331.095,349.358 329.762,346.691 329.5,343.5C 331.308,343.491 332.975,343.991 334.5,345C 339.486,349.161 344.819,352.827 350.5,356C 351.784,356.684 352.951,356.517 354,355.5C 354.743,353.559 354.576,351.726 353.5,350C 344.958,348.413 338.624,343.913 334.5,336.5 Z"/></g>
<g><path style="opacity:1" fill="#2ec4e1" d="M 483.5,343.5 C 488.547,342.69 492.214,344.523 494.5,349C 491.21,348.631 487.877,348.631 484.5,349C 481.619,350.251 479.786,352.417 479,355.5C 477.85,353.246 477.516,350.913 478,348.5C 479.812,346.7 481.645,345.033 483.5,343.5 Z"/></g>
<g><path style="opacity:1" fill="#3ac7e2" d="M 558.5,341.5 C 559.873,341.343 561.207,341.51 562.5,342C 556.799,346.852 550.466,350.685 543.5,353.5C 543.167,353.167 542.833,352.833 542.5,352.5C 546.854,347.33 552.187,343.663 558.5,341.5 Z"/></g>
<g><path style="opacity:1" fill="#37c6e2" d="M 460.5,345.5 C 468.846,346.005 472.679,350.338 472,358.5C 471.692,359.308 471.192,359.975 470.5,360.5C 469.298,357.93 467.965,355.43 466.5,353C 461.448,350.38 459.614,351.88 461,357.5C 463.128,360.63 465.628,363.463 468.5,366C 463.023,365.501 459.19,362.668 457,357.5C 454.216,352.215 455.382,348.215 460.5,345.5 Z"/></g>
<g><path style="opacity:1" fill="#fdfefe" d="M 764.5,346.5 C 786.022,345.683 807.355,347.183 828.5,351C 837.278,354.046 840.778,360.213 839,369.5C 840.333,372.167 842.333,374.167 845,375.5C 844.767,382.134 844.767,388.801 845,395.5C 838.452,401.524 831.285,406.691 823.5,411C 807.111,417.908 790.111,422.574 772.5,425C 762.5,425.667 752.5,425.667 742.5,425C 740.487,424.32 739.154,422.987 738.5,421C 740.453,417.595 742.287,414.095 744,410.5C 744.79,407.366 744.457,404.366 743,401.5C 735.797,394.816 727.297,390.649 717.5,389C 692.572,386.213 667.572,385.213 642.5,386C 634.417,386.35 626.417,387.35 618.5,389C 601.97,393.174 585.304,396.174 568.5,398C 573.631,396.797 575.964,393.63 575.5,388.5C 573.143,388.663 570.81,388.497 568.5,388C 621.417,363.522 677.084,350.855 735.5,350C 745.281,348.558 754.948,347.392 764.5,346.5 Z"/></g>
<g><path style="opacity:1" fill="#29c3e1" d="M 496.5,353.5 C 499.119,353.232 501.619,353.565 504,354.5C 504.409,361.059 506.409,367.059 510,372.5C 511.367,377.444 509.534,380.11 504.5,380.5C 506.643,375.498 505.643,371.331 501.5,368C 498.32,366.964 495.82,367.797 494,370.5C 493.012,373.424 492.346,376.424 492,379.5C 491.208,381.587 490.041,383.421 488.5,385C 491.704,387.869 494.537,391.035 497,394.5C 505.425,391.629 509.925,394.629 510.5,403.5C 510.41,405.228 510.077,406.894 509.5,408.5C 508.726,409.711 507.893,409.711 507,408.5C 506.73,405.776 506.23,403.109 505.5,400.5C 501.991,397.717 499.157,398.384 497,402.5C 495.814,407.996 497.981,411.496 503.5,413C 501.386,414.518 499.053,414.851 496.5,414C 494.333,411.833 492.167,409.667 490,407.5C 489.982,405.203 490.149,402.869 490.5,400.5C 487.824,401.008 485.157,401.175 482.5,401C 481.62,399.644 481.286,398.144 481.5,396.5C 480.167,396.5 478.833,396.5 477.5,396.5C 477.715,392.734 479.049,389.4 481.5,386.5C 480.559,384.228 479.226,382.228 477.5,380.5C 475.629,379.233 473.796,379.233 472,380.5C 471.667,384.5 471.333,388.5 471,392.5C 468.528,396.133 468.028,399.966 469.5,404C 466.362,405.244 463.028,405.911 459.5,406C 458.536,408.647 459.036,411.147 461,413.5C 461.495,415.473 461.662,417.473 461.5,419.5C 466.786,420.126 469.12,423.126 468.5,428.5C 466.801,428.34 465.134,428.506 463.5,429C 462.315,430.353 460.981,431.52 459.5,432.5C 459.167,431.333 458.833,430.167 458.5,429C 459.209,426.129 459.709,423.295 460,420.5C 457.656,418.819 455.323,417.152 453,415.5C 451.433,416.856 449.6,417.523 447.5,417.5C 447.338,415.473 447.505,413.473 448,411.5C 451.869,407.966 455.369,404.133 458.5,400C 465.167,398.381 467.333,394.214 465,387.5C 463.612,386.446 462.112,386.28 460.5,387C 458.433,390.382 456.1,393.548 453.5,396.5C 452.914,396.291 452.414,395.957 452,395.5C 451.667,392.5 451.333,389.5 451,386.5C 445.45,385.316 441.783,387.649 440,393.5C 439.818,396.226 439.318,398.893 438.5,401.5C 436.866,401.032 435.7,400.032 435,398.5C 434.77,393.036 433.104,388.036 430,383.5C 429.382,374.232 433.548,370.732 442.5,373C 444.874,375.039 446.874,377.372 448.5,380C 452.555,382.34 456.889,383.007 461.5,382C 468.18,376.985 473.847,370.985 478.5,364C 481.167,363.667 483.833,363.333 486.5,363C 489.072,358.926 492.405,355.759 496.5,353.5 Z"/></g>
<g><path style="opacity:1" fill="#2dc4e1" d="M 428.5,355.5 C 438.897,354.896 442.564,359.563 439.5,369.5C 437.894,367.488 436.727,365.155 436,362.5C 433.88,359.92 431.713,359.92 429.5,362.5C 428.192,370.003 426.525,369.67 424.5,361.5C 425.432,359.235 426.765,357.235 428.5,355.5 Z"/></g>
<g><path style="opacity:1" fill="#d2f2f9" d="M 331.5,357.5 C 332.289,357.783 332.956,358.283 333.5,359C 332.184,359.528 331.517,359.028 331.5,357.5 Z"/></g>
<g><path style="opacity:1" fill="#2bc4e1" d="M 396.5,365.5 C 401.858,365.515 405.191,368.182 406.5,373.5C 404.483,378.7 402.816,378.366 401.5,372.5C 399.051,371.09 396.884,371.424 395,373.5C 394.825,376.95 394.658,380.283 394.5,383.5C 393.201,382.91 392.368,381.91 392,380.5C 391.333,377.167 391.333,373.833 392,370.5C 393.707,368.963 395.207,367.296 396.5,365.5 Z"/></g>
<g><path style="opacity:1" fill="#2fc5e1" d="M 554.5,380.5 C 554.343,379.127 554.51,377.793 555,376.5C 559.933,371.615 565.767,368.782 572.5,368C 567.833,372 563.167,376 558.5,380C 557.207,380.49 555.873,380.657 554.5,380.5 Z"/></g>
<g><path style="opacity:1" fill="#f9fdfe" d="M 483.5,371.5 C 484.833,371.5 486.167,371.5 487.5,371.5C 487.663,373.857 487.497,376.19 487,378.5C 483.299,379.731 480.799,378.397 479.5,374.5C 480.901,373.479 482.235,372.479 483.5,371.5 Z"/></g>
<g><path style="opacity:1" fill="#fafdfe" d="M 435.5,377.5 C 441.466,376.88 442.966,379.213 440,384.5C 436.844,387.178 435.011,386.345 434.5,382C 434.605,380.408 434.939,378.908 435.5,377.5 Z"/></g>
<g><path style="opacity:1" fill="#2ec4e1" d="M 376.5,379.5 C 386.239,379.746 390.406,384.746 389,394.5C 388.588,396.997 387.422,398.997 385.5,400.5C 384.985,396.547 384.819,392.547 385,388.5C 379.623,382.554 376.123,383.554 374.5,391.5C 375.015,394.863 376.348,397.863 378.5,400.5C 375.247,402.112 373.08,401.112 372,397.5C 370.226,390.523 371.726,384.523 376.5,379.5 Z"/></g>
<g><path style="opacity:1" fill="#31c5e1" d="M 345.5,381.5 C 355.345,379.577 361.345,383.411 363.5,393C 363.999,397.063 362.333,398.729 358.5,398C 358.014,395.973 358.014,393.807 358.5,391.5C 355.15,391.651 353.484,393.485 353.5,397C 353.961,400.554 355.294,403.72 357.5,406.5C 352.954,407.483 350.454,405.483 350,400.5C 349.501,395.845 349.334,391.179 349.5,386.5C 346.891,386.83 345.224,388.33 344.5,391C 343.668,391.688 343.002,391.521 342.5,390.5C 341.515,388.902 341.349,387.235 342,385.5C 343.376,384.295 344.542,382.962 345.5,381.5 Z"/></g>
<g><path style="opacity:1" fill="#38c6e2" d="M 403.5,389.5 C 407.224,389.05 409.391,390.717 410,394.5C 411.628,398.781 411.795,403.114 410.5,407.5C 408.466,404.058 406.799,400.391 405.5,396.5C 404.914,396.709 404.414,397.043 404,397.5C 403.814,399.9 403.314,402.234 402.5,404.5C 398.485,399.23 398.819,394.23 403.5,389.5 Z"/></g>
<g><path style="opacity:1" fill="#fefefe" d="M 643.5,390.5 C 667.895,390.389 692.229,391.556 716.5,394C 724.289,395.816 731.456,398.983 738,403.5C 738.781,404.729 739.281,406.062 739.5,407.5C 737.087,412.494 735.087,417.661 733.5,423C 733.667,424.167 733.833,425.333 734,426.5C 736.833,428.667 739.667,430.833 742.5,433C 740.271,435.719 738.271,438.553 736.5,441.5C 737.137,444.107 738.304,446.44 740,448.5C 740.751,455.49 737.918,460.657 731.5,464C 722.329,469.836 712.329,473.502 701.5,475C 647.825,483.571 599.492,471.571 556.5,439C 554.07,436.695 553.07,433.862 553.5,430.5C 556.773,432.061 560.106,433.728 563.5,435.5C 564.348,432.174 563.181,429.507 560,427.5C 559.517,426.552 559.351,425.552 559.5,424.5C 561.861,424.674 564.194,425.007 566.5,425.5C 566.649,424.448 566.483,423.448 566,422.5C 562.528,420.521 559.362,418.188 556.5,415.5C 557.667,415.167 558.833,414.833 560,414.5C 564.479,415.78 568.979,416.613 573.5,417C 573.833,416.667 574.167,416.333 574.5,416C 572.444,413.556 569.944,411.723 567,410.5C 566.316,409.216 566.483,408.049 567.5,407C 571.558,406.66 575.558,405.993 579.5,405C 600.505,398.118 621.838,393.285 643.5,390.5 Z"/></g>
<g><path style="opacity:1" fill="#30c4e1" d="M 385.5,401.5 C 392.154,403.641 394.821,408.141 393.5,415C 391.797,415.745 390.13,416.579 388.5,417.5C 387.558,417.392 386.725,417.059 386,416.5C 383.095,411.525 382.929,406.525 385.5,401.5 Z"/></g>
<g><path style="opacity:1" fill="#f2fbfd" d="M 317.5,410.5 C 313.123,410.423 308.79,409.923 304.5,409C 310.057,405.515 315.723,405.182 321.5,408C 319.934,408.608 318.6,409.442 317.5,410.5 Z"/></g>
<g><path style="opacity:1" fill="#2bc4e1" d="M 350.5,411.5 C 356.023,411.178 360.523,413.178 364,417.5C 364.861,420.994 363.528,423.327 360,424.5C 360.225,421.154 358.892,418.82 356,417.5C 355.087,421.288 356.253,424.788 359.5,428C 352.592,427.759 348.925,424.092 348.5,417C 348.395,414.822 349.061,412.988 350.5,411.5 Z"/></g>
<g><path style="opacity:1" fill="#dff6fa" d="M 388.5,410.5 C 390.273,411.314 390.773,412.648 390,414.5C 388.812,413.437 388.312,412.103 388.5,410.5 Z"/></g>
<g><path style="opacity:1" fill="#b9ecf5" d="M 479.5,416.5 C 481.337,416.639 481.67,417.306 480.5,418.5C 479.702,418.043 479.369,417.376 479.5,416.5 Z"/></g>
<g><path style="opacity:1" fill="#33c5e2" d="M 320.5,419.5 C 324.306,419.02 327.639,420.02 330.5,422.5C 322.013,422.632 319.013,426.632 321.5,434.5C 317.274,439.279 311.941,441.946 305.5,442.5C 305.33,441.178 305.663,440.011 306.5,439C 310.09,438.258 312.923,436.425 315,433.5C 314.805,427.897 316.639,423.23 320.5,419.5 Z"/></g>
<g><path style="opacity:1" fill="#ebf9fc" d="M 392.5,426.5 C 393.833,426.5 395.167,426.5 396.5,426.5C 396.5,427.833 396.5,429.167 396.5,430.5C 393.5,430.833 392.167,429.5 392.5,426.5 Z"/></g>
<g><path style="opacity:1" fill="#fefefe" d="M 753.5,430.5 C 774.438,428.475 794.771,430.975 814.5,438C 818.566,441.306 821.233,445.473 822.5,450.5C 821.229,454.208 819.562,457.708 817.5,461C 820.095,464.396 823.261,467.229 827,469.5C 827.167,470.167 827.333,470.833 827.5,471.5C 824.369,474.981 822.036,478.981 820.5,483.5C 822.682,488.193 825.849,492.193 830,495.5C 832,498.167 832,500.833 830,503.5C 825.447,508.028 819.947,510.861 813.5,512C 779.379,512.027 745.713,508.027 712.5,500C 695.336,493.748 678.002,488.081 660.5,483C 683.444,483.865 705.778,480.532 727.5,473C 734.573,469.262 740.406,464.096 745,457.5C 746.006,455.466 746.506,453.3 746.5,451C 742.489,441.879 744.822,435.046 753.5,430.5 Z"/></g>
<g><path style="opacity:1" fill="#f0fbfd" d="M 528.5,436.5 C 529.043,436.56 529.376,436.893 529.5,437.5C 528.029,441.25 525.695,442.083 522.5,440C 524.727,439.059 526.727,437.892 528.5,436.5 Z"/></g>
<g><path style="opacity:1" fill="#f8fdfe" d="M 490.5,439.5 C 492.971,439.233 494.638,440.233 495.5,442.5C 495.037,445.507 493.537,446.507 491,445.5C 490.505,443.527 490.338,441.527 490.5,439.5 Z"/></g>
<g><path style="opacity:1" fill="#fafdfe" d="M 469.5,440.5 C 473.362,443.302 474.362,446.969 472.5,451.5C 471.672,452.415 470.672,453.081 469.5,453.5C 467.12,449.019 467.12,444.685 469.5,440.5 Z"/></g>
<g><path style="opacity:1" fill="#fefefe" d="M 432.5,498.5 C 433.167,499.5 433.833,500.5 434.5,501.5C 434.967,504.826 436.134,505.159 438,502.5C 438.333,500.5 438.667,498.5 439,496.5C 440.396,494.473 442.062,494.14 444,495.5C 444.333,497.833 444.667,500.167 445,502.5C 445.414,502.957 445.914,503.291 446.5,503.5C 448.557,499.737 450.057,495.737 451,491.5C 453.128,491.927 455.295,491.427 457.5,490C 459.833,487.667 462.167,485.333 464.5,483C 462.011,481.247 459.344,481.08 456.5,482.5C 454.239,481.652 453.239,479.985 453.5,477.5C 453.453,474.927 454.453,472.927 456.5,471.5C 458.167,473.5 459.833,475.5 461.5,477.5C 462.647,475.235 462.814,472.902 462,470.5C 457.692,464.925 458.859,461.258 465.5,459.5C 470.013,459.895 471.513,462.229 470,466.5C 467.151,469.821 466.984,473.154 469.5,476.5C 471.188,474.971 472.521,473.137 473.5,471C 476.347,470.056 478.847,470.556 481,472.5C 481.667,479.167 481.667,485.833 481,492.5C 478.866,494.578 479.032,496.412 481.5,498C 482.944,498.781 484.277,498.614 485.5,497.5C 488.254,488.69 487.754,480.024 484,471.5C 482.039,468.537 479.706,465.871 477,463.5C 477.511,459.856 477.511,456.189 477,452.5C 479.354,447.754 482.688,446.754 487,449.5C 488.041,454.424 486.541,458.424 482.5,461.5C 483.966,463.657 485.8,463.99 488,462.5C 490.359,456.141 494.692,451.807 501,449.5C 502.596,442.412 505.596,441.745 510,447.5C 510.925,452.024 510.092,456.191 507.5,460C 504.188,460.538 501.021,460.038 498,458.5C 494.518,458.906 491.851,460.572 490,463.5C 489.118,473.436 490.118,483.102 493,492.5C 493.333,491.5 493.667,490.5 494,489.5C 494.183,481.255 494.683,473.088 495.5,465C 496.332,464.312 496.998,464.479 497.5,465.5C 501.318,471.421 504.485,477.754 507,484.5C 507.414,484.957 507.914,485.291 508.5,485.5C 509.806,484.088 510.64,482.421 511,480.5C 527.075,510.328 544.408,539.328 563,567.5C 565.66,571.814 567.327,576.481 568,581.5C 569.138,593.807 569.971,606.14 570.5,618.5C 571.605,629.966 567.938,639.466 559.5,647C 558.167,647.667 556.833,647.667 555.5,647C 552.89,645.519 550.223,644.352 547.5,643.5C 547.975,646.323 546.975,648.323 544.5,649.5C 540.611,648.556 536.944,647.056 533.5,645C 527,638.5 520.5,632 514,625.5C 499.477,604.627 486.144,582.96 474,560.5C 465.921,540.951 462.588,520.617 464,499.5C 464.941,497.939 466.108,496.605 467.5,495.5C 469.167,497.833 471.167,499.833 473.5,501.5C 475.107,501.363 476.441,500.696 477.5,499.5C 478.794,493.192 478.794,486.859 477.5,480.5C 476.201,481.09 475.368,482.09 475,483.5C 474.818,486.226 474.318,488.893 473.5,491.5C 472.396,489.611 471.063,487.945 469.5,486.5C 465.805,489.362 461.971,492.028 458,494.5C 457.76,524.294 464.76,552.294 479,578.5C 486.581,589.328 493.915,600.328 501,611.5C 505.785,633.885 505.452,656.218 500,678.5C 493.741,701.946 487.074,725.279 480,748.5C 477.566,755.874 473.733,762.374 468.5,768C 464.497,768.835 461.164,767.669 458.5,764.5C 455.478,767.024 452.644,769.691 450,772.5C 444.966,770.95 439.799,770.117 434.5,770C 421.141,750.455 409.975,729.622 401,707.5C 395.083,690.331 392.583,672.665 393.5,654.5C 394.188,628.329 396.688,602.329 401,576.5C 403.808,565.216 407.475,554.216 412,543.5C 419.393,528.717 426.226,513.717 432.5,498.5 Z"/></g>
<g><path style="opacity:1" fill="#f3fbfd" d="M 533.5,442.5 C 536.894,444.126 538.227,446.626 537.5,450C 533.945,451.123 531.945,449.789 531.5,446C 531.978,444.697 532.645,443.531 533.5,442.5 Z"/></g>
<g><path style="opacity:1" fill="#fefefe" d="M 339.5,444.5 C 343.076,446.823 344.243,450.157 343,454.5C 322.037,478.465 300.703,502.132 279,525.5C 264.115,543.053 250.781,561.72 239,581.5C 231.691,595.286 224.524,609.119 217.5,623C 215.913,623.862 214.246,624.529 212.5,625C 199.642,639.431 184.309,650.431 166.5,658C 164.167,658.667 161.833,658.667 159.5,658C 157.17,655.833 154.503,654.166 151.5,653C 151.489,648.639 149.489,645.639 145.5,644C 144.128,642.758 143.128,641.258 142.5,639.5C 139.225,638.763 136.058,637.763 133,636.5C 131.517,633.298 131.183,629.964 132,626.5C 137.983,603.709 150.149,584.876 168.5,570C 175.548,563.951 182.881,558.284 190.5,553C 219.773,540.707 246.44,524.374 270.5,504C 285.315,488.509 301.315,474.509 318.5,462C 324.522,454.795 331.522,448.961 339.5,444.5 Z"/></g>
<g><path style="opacity:1" fill="#fefefe" d="M 369.5,448.5 C 380.026,447.27 382.859,451.27 378,460.5C 377.333,463.833 377.333,467.167 378,470.5C 378.667,471.833 379.333,471.833 380,470.5C 380.589,467.103 381.922,464.103 384,461.5C 385.314,463.269 386.147,465.269 386.5,467.5C 385.277,470.947 383.777,474.28 382,477.5C 381.438,479.866 381.604,482.199 382.5,484.5C 381.359,487.544 380.692,490.711 380.5,494C 381.807,508.521 383.307,523.021 385,537.5C 384.875,567.674 378.875,596.674 367,624.5C 365.153,629.694 362.653,634.528 359.5,639C 357.833,639.667 356.167,639.667 354.5,639C 352.63,637.634 350.63,636.467 348.5,635.5C 346.618,637.608 344.285,638.941 341.5,639.5C 338.576,637.918 335.909,635.918 333.5,633.5C 323.605,645.268 316.105,643.935 311,629.5C 303.635,592.723 307.968,557.39 324,523.5C 329.572,513.124 334.572,502.457 339,491.5C 343,486.167 347,480.833 351,475.5C 351.305,473.443 351.305,471.443 351,469.5C 351.956,468.421 352.789,467.255 353.5,466C 356.932,465.884 359.932,464.717 362.5,462.5C 364.283,463.348 364.783,464.681 364,466.5C 362.149,470.203 360.315,473.87 358.5,477.5C 358.728,479.397 359.728,480.73 361.5,481.5C 366.607,476.137 370.607,469.97 373.5,463C 371.698,461.173 369.532,460.006 367,459.5C 365.812,455.259 366.645,451.592 369.5,448.5 Z"/></g>
<g><path style="opacity:1" fill="#eefafc" d="M 443.5,447.5 C 444.465,448.721 444.298,450.054 443,451.5C 442.421,450.072 442.588,448.738 443.5,447.5 Z"/></g>
<g><path style="opacity:1" fill="#f6fcfd" d="M 451.5,449.5 C 456.49,451.519 456.823,454.352 452.5,458C 451.207,458.49 449.873,458.657 448.5,458.5C 448.129,454.997 449.129,451.997 451.5,449.5 Z"/></g>
<g><path style="opacity:1" fill="#2ac4e1" d="M 528.5,460.5 C 531.452,461.359 533.285,463.359 534,466.5C 534.903,470.033 534.57,473.367 533,476.5C 531.159,471.639 529.325,466.805 527.5,462C 528.056,461.617 528.389,461.117 528.5,460.5 Z"/></g>
<g><path style="opacity:1" fill="#ddf6fa" d="M 395.5,460.5 C 397.757,461.562 398.923,463.228 399,465.5C 397.198,464.211 396.031,462.544 395.5,460.5 Z"/></g>
<g><path style="opacity:1" fill="#d7f4f9" d="M 503.5,468.5 C 505.346,468.222 506.68,468.889 507.5,470.5C 505.833,471.833 504.167,471.833 502.5,470.5C 502.863,469.817 503.196,469.15 503.5,468.5 Z"/></g>
<g><path style="opacity:1" fill="#3ac7e3" d="M 553.5,467.5 C 565.612,471.779 576.279,478.945 585.5,489C 574.133,483.13 563.467,475.963 553.5,467.5 Z"/></g>
<g><path style="opacity:1" fill="#f4fcfd" d="M 443.5,480.5 C 449.726,482.214 450.059,484.881 444.5,488.5C 440.933,486.235 440.6,483.568 443.5,480.5 Z"/></g>
<g><path style="opacity:1" fill="#fbfefe" d="M 433.5,475.5 C 434.5,475.5 435.5,475.5 436.5,475.5C 436.663,477.857 436.497,480.19 436,482.5C 422.98,507.541 411.313,533.208 401,559.5C 389.92,602.207 386.587,645.54 391,689.5C 398.307,714.93 408.807,738.93 422.5,761.5C 418.993,762.752 415.993,764.752 413.5,767.5C 409.596,765.001 405.263,763.834 400.5,764C 399.213,762.59 398.046,761.09 397,759.5C 389.826,742.818 383.493,725.818 378,708.5C 378.241,703.014 378.741,697.514 379.5,692C 379.051,686.309 378.385,680.642 377.5,675C 378.591,652.514 379.424,630.014 380,607.5C 385.581,581.76 392.581,556.427 401,531.5C 409.334,517.163 416.334,502.163 422,486.5C 421.582,491.465 421.582,496.465 422,501.5C 424.43,497.791 426.264,493.791 427.5,489.5C 429.307,488.605 430.64,487.272 431.5,485.5C 429.616,481.427 430.283,478.094 433.5,475.5 Z"/></g>
<g><path style="opacity:1" fill="#b9ecf5" d="M 434.5,501.5 C 433.833,500.5 433.167,499.5 432.5,498.5C 433.228,496.488 434.062,494.488 435,492.5C 434.848,495.447 434.681,498.447 434.5,501.5 Z"/></g>
<g><path style="opacity:1" fill="#fefefe" d="M 572.5,587.5 C 574.371,587.859 575.871,588.859 577,590.5C 580.833,595 584.667,599.5 588.5,604C 592.88,608.048 597.546,611.715 602.5,615C 631.167,631 659.833,647 688.5,663C 693.756,667.918 698.589,673.084 703,678.5C 705.619,687.143 705.953,695.81 704,704.5C 700.453,706.617 696.62,708.117 692.5,709C 689.129,713.837 684.462,715.837 678.5,715C 676.833,718 675.167,721 673.5,724C 671.466,725.006 669.3,725.506 667,725.5C 660.666,724.708 654.5,723.208 648.5,721C 632.93,712.369 616.93,704.703 600.5,698C 579.118,673.167 570.618,644.334 575,611.5C 572.909,603.638 572.076,595.638 572.5,587.5 Z"/></g>
<g><path style="opacity:1" fill="#fefefe" d="M 373.5,621.5 C 374.166,625.319 374.499,629.319 374.5,633.5C 373.824,654.495 373.324,675.495 373,696.5C 372.811,701.346 371.811,706.012 370,710.5C 364.658,720.177 358.158,729.01 350.5,737C 349.167,737.667 347.833,737.667 346.5,737C 343.187,730.333 339.187,729.833 334.5,735.5C 332.677,734.155 330.677,733.655 328.5,734C 325.833,736.667 323.167,739.333 320.5,742C 317.38,742.359 314.88,741.192 313,738.5C 308.86,731.747 306.527,724.413 306,716.5C 303.866,697.028 305.866,678.028 312,659.5C 313.455,656.088 315.288,652.921 317.5,650C 322.793,647.687 327.793,644.854 332.5,641.5C 337.38,645.869 342.713,646.536 348.5,643.5C 354.896,646.963 360.396,645.963 365,640.5C 367.848,634.141 370.681,627.807 373.5,621.5 Z"/></g>
<g><path style="opacity:1" fill="#fefefe" d="M 509.5,628.5 C 511.14,629.32 512.807,630.153 514.5,631C 520.19,637.688 526.19,644.022 532.5,650C 536.5,652 540.5,654 544.5,656C 550.359,654.71 556.359,653.71 562.5,653C 564.888,652.697 567.055,651.863 569,650.5C 573.942,664.993 578.276,679.66 582,694.5C 584.52,715.203 581.186,734.87 572,753.5C 571,755.167 569.667,756.5 568,757.5C 566.29,755.62 564.457,753.954 562.5,752.5C 560.233,753.362 559.233,755.029 559.5,757.5C 556.813,757.336 554.146,757.503 551.5,758C 549.692,760.838 547.358,763.005 544.5,764.5C 541.972,763.058 539.305,762.558 536.5,763C 534.173,766.169 531.173,768.336 527.5,769.5C 518.389,764.552 511.889,757.218 508,747.5C 503.866,731.226 501.032,714.726 499.5,698C 501.332,688.842 503.165,679.675 505,670.5C 506.36,656.43 507.86,642.43 509.5,628.5 Z"/></g>
</svg>
