<?xml version="1.0" encoding="UTF-8"?>
<!DOCTYPE svg PUBLIC "-//W3C//DTD SVG 1.1//EN" "http://www.w3.org/Graphics/SVG/1.1/DTD/svg11.dtd">
<svg xmlns="http://www.w3.org/2000/svg" version="1.1" width="900px" height="780px" style="shape-rendering:geometricPrecision; text-rendering:geometricPrecision; image-rendering:optimizeQuality; fill-rule:evenodd; clip-rule:evenodd" xmlns:xlink="http://www.w3.org/1999/xlink">
<g><path style="opacity:1" fill="#fefefe" d="M -0.5,-0.5 C 299.5,-0.5 599.5,-0.5 899.5,-0.5C 899.5,259.5 899.5,519.5 899.5,779.5C 599.5,779.5 299.5,779.5 -0.5,779.5C -0.5,519.5 -0.5,259.5 -0.5,-0.5 Z"/></g>
<g><path style="opacity:1" fill="#02bf63" d="M 481.5,317.5 C 445.804,303.378 413.137,308.378 383.5,332.5C 348.853,295.584 320.353,254.25 298,208.5C 262.269,126.617 288.103,77.6174 375.5,61.5C 383.091,61.4149 390.424,60.4149 397.5,58.5C 422.172,55.2234 446.839,56.0567 471.5,61C 507.154,69.9846 528.321,92.4846 535,128.5C 536.956,152.847 534.956,176.847 529,200.5C 523.191,221.26 516.191,241.593 508,261.5C 499.406,280.351 490.573,299.018 481.5,317.5 Z"/></g>
<g><path style="opacity:1" fill="#62d59a" d="M 397.5,58.5 C 390.424,60.4149 383.091,61.4149 375.5,61.5C 382.601,59.7721 389.934,58.7721 397.5,58.5 Z"/></g>
<g><path style="opacity:1" fill="#02bf63" d="M 656.5,419.5 C 640.164,419.29 623.83,418.957 607.5,418.5C 595.514,417.094 583.514,415.761 571.5,414.5C 568.411,413.215 565.078,412.549 561.5,412.5C 552.476,410.995 543.476,409.328 534.5,407.5C 535.699,370.562 521.032,341.895 490.5,321.5C 513.104,283.047 539.771,247.547 570.5,215C 649.071,137.447 711.238,148.613 757,248.5C 769.003,273.513 775.836,299.847 777.5,327.5C 777.462,368.414 758.128,395.58 719.5,409C 699.014,415.525 678.014,419.025 656.5,419.5 Z"/></g>
<g><path style="opacity:1" fill="#02bf63" d="M 376.5,339.5 C 351.991,369.406 346.991,402.406 361.5,438.5C 330.309,455.432 297.976,469.599 264.5,481C 253.446,484.007 242.446,487.007 231.5,490C 138.908,508.236 95.7415,470.069 102,375.5C 103.537,347.479 109.537,320.479 120,294.5C 142.533,247.162 179.033,231.329 229.5,247C 247.05,252.607 264.05,259.607 280.5,268C 314.725,287.864 346.558,311.031 376,337.5C 376.464,338.094 376.631,338.761 376.5,339.5 Z"/></g>
<g><path style="opacity:1" fill="#feb23d" d="M 481.5,317.5 C 484.256,319.204 487.256,320.537 490.5,321.5C 521.032,341.895 535.699,370.562 534.5,407.5C 533.833,411.167 533.167,414.833 532.5,418.5C 526.851,444.302 512.851,464.136 490.5,478C 483.859,481.477 477.192,484.644 470.5,487.5C 469.833,487.5 469.167,487.5 468.5,487.5C 465.273,487.676 462.273,488.343 459.5,489.5C 459.167,489.5 458.833,489.5 458.5,489.5C 419.199,493.842 388.532,479.842 366.5,447.5C 365.071,444.304 363.405,441.304 361.5,438.5C 346.991,402.406 351.991,369.406 376.5,339.5C 378.5,336.833 380.833,334.5 383.5,332.5C 413.137,308.378 445.804,303.378 481.5,317.5 Z"/></g>
<g><path style="opacity:1" fill="#a9e9ca" d="M 561.5,412.5 C 565.078,412.549 568.411,413.215 571.5,414.5C 567.878,414.678 564.544,414.011 561.5,412.5 Z"/></g>
<g><path style="opacity:1" fill="#02bf63" d="M 470.5,487.5 C 477.192,484.644 483.859,481.477 490.5,478C 512.851,464.136 526.851,444.302 532.5,418.5C 538.172,417.723 543.839,418.223 549.5,420C 587.381,428.405 624.048,440.405 659.5,456C 765.596,507.049 774.929,572.049 687.5,651C 668.266,668.455 646.599,682.121 622.5,692C 604.554,697.512 586.554,697.845 568.5,693C 551.747,685.594 537.914,674.427 527,659.5C 511.183,636.088 499.183,610.755 491,583.5C 481.903,551.839 475.07,519.839 470.5,487.5 Z"/></g>
<g><path style="opacity:1" fill="#a8e8c8" d="M 607.5,418.5 C 623.83,418.957 640.164,419.29 656.5,419.5C 640.142,420.843 623.808,420.509 607.5,418.5 Z"/></g>
<g><path style="opacity:1" fill="#02bf63" d="M 366.5,447.5 C 388.532,479.842 419.199,493.842 458.5,489.5C 465.461,536.425 465.961,583.425 460,630.5C 445.544,726.136 394.377,754.303 306.5,715C 275.396,700.889 248.563,681.056 226,655.5C 207.932,631.068 204.599,604.734 216,576.5C 226.659,554.497 241.159,535.331 259.5,519C 292.096,490.693 327.763,466.859 366.5,447.5 Z"/></g>
<g><path style="opacity:1" fill="#ffddab" d="M 468.5,487.5 C 465.829,489.118 462.829,489.785 459.5,489.5C 462.273,488.343 465.273,487.676 468.5,487.5 Z"/></g>
</svg>
