<?xml version="1.0" encoding="UTF-8"?>
<!DOCTYPE svg PUBLIC "-//W3C//DTD SVG 1.1//EN" "http://www.w3.org/Graphics/SVG/1.1/DTD/svg11.dtd">
<svg xmlns="http://www.w3.org/2000/svg" version="1.1" width="900px" height="780px" style="shape-rendering:geometricPrecision; text-rendering:geometricPrecision; image-rendering:optimizeQuality; fill-rule:evenodd; clip-rule:evenodd" xmlns:xlink="http://www.w3.org/1999/xlink">
<g><path style="opacity:1" fill="#fefefe" d="M -0.5,-0.5 C 299.5,-0.5 599.5,-0.5 899.5,-0.5C 899.5,259.5 899.5,519.5 899.5,779.5C 599.5,779.5 299.5,779.5 -0.5,779.5C -0.5,519.5 -0.5,259.5 -0.5,-0.5 Z"/></g>
<g><path style="opacity:1" fill="#982724" d="M 420.5,1.5 C 431.336,0.56741 441.669,2.40074 451.5,7C 454.333,9.83333 457.167,12.6667 460,15.5C 468.333,26.8333 476.667,38.1667 485,49.5C 487.894,52.3614 491.061,54.8614 494.5,57C 497.5,57.6667 500.5,57.6667 503.5,57C 507.968,54.6189 512.635,52.6189 517.5,51C 529.56,49.8111 541.226,51.4778 552.5,56C 564.752,61.5451 577.252,66.3784 590,70.5C 591.436,70.4411 592.769,70.1078 594,69.5C 594.084,65.5651 595.084,61.8984 597,58.5C 600.465,54.0332 604.298,49.8666 608.5,46C 613.814,44.8453 618.814,42.8453 623.5,40C 630.276,33.1135 637.943,27.4469 646.5,23C 649.075,22.042 651.741,21.542 654.5,21.5C 658.501,22.35 662.501,22.85 666.5,23C 672.234,19.8012 678.234,17.1345 684.5,15C 693.712,15.0237 702.378,13.0237 710.5,9C 730.786,6.58917 750.952,4.4225 771,2.5C 771.11,15.0502 772.777,27.3835 776,39.5C 776.856,56.5293 776.523,73.5293 775,90.5C 773.469,96.015 771.969,101.515 770.5,107C 773.139,118.745 770.639,129.245 763,138.5C 762.012,145.814 759.345,152.48 755,158.5C 742.423,174.412 727.923,188.245 711.5,200C 708.865,201.961 707.031,204.461 706,207.5C 705.097,233.857 705.43,260.191 707,286.5C 707.957,290.956 709.29,295.289 711,299.5C 718.333,312.833 725.667,326.167 733,339.5C 733.667,341.5 733.667,343.5 733,345.5C 729.5,350.333 725.333,354.5 720.5,358C 708.008,367.08 695.341,375.913 682.5,384.5C 685.513,388.086 689.013,391.086 693,393.5C 698.079,385.419 704.246,378.252 711.5,372C 718.966,367.845 726.966,365.511 735.5,365C 751.857,364.217 768.19,364.55 784.5,366C 796.709,374.435 810.042,380.769 824.5,385C 835.695,388.193 847.029,390.693 858.5,392.5C 848.961,401.937 840.128,411.937 832,422.5C 829.746,426.007 827.746,429.673 826,433.5C 823.397,441.975 820.397,450.308 817,458.5C 813.054,464.779 808.721,470.779 804,476.5C 802.549,481.291 800.216,485.624 797,489.5C 783.228,503.639 767.061,514.139 748.5,521C 743.708,523.961 739.375,527.461 735.5,531.5C 738.142,535.309 740.975,538.976 744,542.5C 748.143,551.454 752.81,560.12 758,568.5C 760.594,574.209 761.927,580.209 762,586.5C 765.006,594.51 768.006,602.51 771,610.5C 772.567,636.142 772.9,661.809 772,687.5C 768.668,702.503 762.835,716.503 754.5,729.5C 752.016,727.517 749.683,725.35 747.5,723C 737.377,718.397 726.71,716.064 715.5,716C 707.938,713.389 700.271,711.056 692.5,709C 684.51,707.927 676.51,706.927 668.5,706C 662.255,703.71 655.921,701.71 649.5,700C 643.086,699.871 636.753,699.204 630.5,698C 618.009,688.918 605.009,680.585 591.5,673C 587,668.5 582.5,664 578,659.5C 572.469,647.629 564.969,637.129 555.5,628C 554.123,626.759 552.79,626.592 551.5,627.5C 553.965,633.572 554.965,639.905 554.5,646.5C 553.786,672.828 553.286,699.162 553,725.5C 552.667,727.5 552.333,729.5 552,731.5C 548.506,737.488 545.839,743.821 544,750.5C 542.745,760.187 540.245,769.52 536.5,778.5C 530.676,772.844 524.676,767.344 518.5,762C 495.332,747.917 472.332,733.584 449.5,719C 436.749,709.586 424.582,699.42 413,688.5C 409.689,685.208 408.022,681.208 408,676.5C 404.994,669.157 401.994,661.823 399,654.5C 398.17,647.483 399.337,640.816 402.5,634.5C 402.182,633.353 401.516,632.519 400.5,632C 392.006,630.934 383.672,631.601 375.5,634C 345.911,650.316 314.245,659.983 280.5,663C 273.714,663.543 267.048,663.21 260.5,662C 257.035,664.463 253.869,667.296 251,670.5C 246.76,677.978 242.76,685.644 239,693.5C 229.331,707.095 216.165,715.262 199.5,718C 193.96,721.27 188.293,724.27 182.5,727C 171.189,728.133 159.855,729.133 148.5,730C 143.853,731.964 139.186,733.964 134.5,736C 122.435,735.733 110.768,737.733 99.5,742C 78.6414,745.119 71.1414,736.286 77,715.5C 74.9086,703.863 72.9086,692.196 71,680.5C 70.3333,675.833 70.3333,671.167 71,666.5C 72.2268,663.093 73.0601,659.593 73.5,656C 71.597,650.287 70.097,644.454 69,638.5C 67.8218,619.373 68.8218,600.373 72,581.5C 73.3333,578.167 74.6667,574.833 76,571.5C 76.1019,563.496 76.1019,555.496 76,547.5C 77,544.833 78,542.167 79,539.5C 89.9816,526.204 99.9816,512.204 109,497.5C 109.808,495.577 110.308,493.577 110.5,491.5C 106.959,482.757 102.126,474.757 96,467.5C 78.3333,447.167 60.6667,426.833 43,406.5C 41.4661,402.289 41.1327,397.956 42,393.5C 43.9343,389.241 46.2677,385.241 49,381.5C 60.9781,366.687 73.1448,352.021 85.5,337.5C 63.8296,314.317 57.9962,287.65 68,257.5C 79.3333,226.833 90.6667,196.167 102,165.5C 102.76,161.181 103.427,156.848 104,152.5C 104.167,139.82 104.667,127.154 105.5,114.5C 125.457,113.678 145.457,113.178 165.5,113C 176.678,111.83 187.345,108.83 197.5,104C 213.706,95.0638 230.04,86.3972 246.5,78C 262.148,78.662 277.815,78.9953 293.5,79C 318.492,69.3005 341.492,56.3005 362.5,40C 373.878,30.2867 385.545,20.9534 397.5,12C 404.76,7.36591 412.427,3.86591 420.5,1.5 Z"/></g>
<g><path style="opacity:1" fill="#fefdfd" d="M 430.5,8.5 C 435.548,8.12698 440.215,9.29365 444.5,12C 458.778,26.9471 473.111,41.9471 487.5,57C 513.345,75.7561 539.011,94.7561 564.5,114C 572.355,121.535 578.355,130.368 582.5,140.5C 581.635,141.583 580.635,141.749 579.5,141C 557.822,129.501 537.155,116.501 517.5,102C 511.288,102.622 505.288,104.289 499.5,107C 492.639,110.263 485.972,113.763 479.5,117.5C 473.461,113.971 468.127,109.471 463.5,104C 455.685,99.7328 447.685,99.3995 439.5,103C 429.685,107.991 419.851,112.825 410,117.5C 403.169,115.668 396.336,113.834 389.5,112C 384.833,111.333 380.167,111.333 375.5,112C 373.391,113.141 371.558,114.641 370,116.5C 368.237,119.702 366.237,122.702 364,125.5C 346.451,108.468 326.618,105.302 304.5,116C 285.803,129.025 267.969,143.192 251,158.5C 247.608,136.675 253.775,118.175 269.5,103C 275.972,97.2638 282.972,92.2638 290.5,88C 310.081,78.8761 329.414,69.2095 348.5,59C 367.893,45.2754 387.56,31.9421 407.5,19C 415.019,14.9028 422.685,11.4028 430.5,8.5 Z"/></g>
<g><path style="opacity:1" fill="#fdfcfc" d="M 721.5,102.5 C 712.5,101.833 703.5,101.167 694.5,100.5C 698.607,100.075 702.274,98.5754 705.5,96C 719.406,84.0961 731.906,70.9294 743,56.5C 751.916,35.5681 750.916,35.2348 740,55.5C 737.667,58.5 735.333,61.5 733,64.5C 720.377,76.5338 707.544,88.2004 694.5,99.5C 690.486,101.334 686.153,102.001 681.5,101.5C 673.344,101.991 665.344,101.158 657.5,99C 655.391,97.8589 653.558,96.3589 652,94.5C 649.395,85.9236 644.395,79.2569 637,74.5C 636.333,75.1667 636.333,75.8333 637,76.5C 642.277,81.5582 646.443,87.3915 649.5,94C 649.355,94.772 649.022,95.4387 648.5,96C 642.932,96.4832 637.599,95.4832 632.5,93C 620.981,88.3258 610.148,82.4925 600,75.5C 599.125,74.1268 598.625,72.6268 598.5,71C 600.499,63.0127 604.832,56.6794 611.5,52C 625.07,47.2158 637.07,39.8825 647.5,30C 654.833,29.6667 662.167,29.3333 669.5,29C 677.026,26.9057 684.359,24.239 691.5,21C 695.833,20.6667 700.167,20.3333 704.5,20C 716.235,14.5864 728.569,12.2531 741.5,13C 748.748,11.8754 755.915,10.3754 763,8.5C 763.945,8.90536 764.612,9.57203 765,10.5C 768.933,49.6441 767.933,88.6441 762,127.5C 757.92,133.662 754.92,140.329 753,147.5C 745.995,158.514 737.495,168.347 727.5,177C 721.39,181.476 715.557,186.309 710,191.5C 713.841,182.628 716.507,173.295 718,163.5C 720.164,143.227 721.331,122.893 721.5,102.5 Z"/></g>
<g><path style="opacity:1" fill="#a33a37" d="M 719.5,33.5 C 721.067,34.6808 721.901,36.3474 722,38.5C 722.667,47.5 722.667,56.5 722,65.5C 720.746,62.0244 720.079,58.3577 720,54.5C 719.5,47.5079 719.334,40.5079 719.5,33.5 Z"/></g>
<g><path style="opacity:1" fill="#fefdfc" d="M 514.5,59.5 C 525.39,58.8002 536.057,59.9668 546.5,63C 574.953,73.2269 602.953,84.5603 630.5,97C 657.439,108.344 685.439,111.844 714.5,107.5C 715.763,131.75 713.93,155.75 709,179.5C 705.126,192.788 701.459,206.121 698,219.5C 692.64,261.389 700.307,300.723 721,337.5C 722.318,340.406 722.652,343.406 722,346.5C 719.872,349.63 717.372,352.463 714.5,355C 698.978,364.593 683.978,374.926 669.5,386C 657.623,396.377 646.623,407.543 636.5,419.5C 633.548,411.363 631.714,403.029 631,394.5C 648.583,378.263 663.916,360.263 677,340.5C 679.127,336.584 680.96,332.584 682.5,328.5C 678.118,319.737 674.285,310.737 671,301.5C 667.325,283.363 667.991,265.363 673,247.5C 679.398,227.243 683.898,206.576 686.5,185.5C 686.064,177.124 682.397,170.624 675.5,166C 646.536,157.259 617.202,150.092 587.5,144.5C 585.69,135.526 581.857,127.526 576,120.5C 568.803,112.969 561.303,105.802 553.5,99C 538.43,88.5989 523.93,77.4323 510,65.5C 509.753,62.2406 511.253,60.2406 514.5,59.5 Z"/></g>
<g><path style="opacity:1" fill="#9a2927" d="M 694.5,100.5 C 694.5,100.167 694.5,99.8333 694.5,99.5C 707.544,88.2004 720.377,76.5338 733,64.5C 735.333,61.5 737.667,58.5 740,55.5C 750.916,35.2348 751.916,35.5681 743,56.5C 731.906,70.9294 719.406,84.0961 705.5,96C 702.274,98.5754 698.607,100.075 694.5,100.5 Z"/></g>
<g><path style="opacity:1" fill="#9b2b29" d="M 675.5,45.5 C 676.496,45.4142 677.329,45.7476 678,46.5C 686.434,63.7304 689.768,81.7304 688,100.5C 684.751,88.0274 682.417,75.3607 681,62.5C 679.455,56.7 677.622,51.0334 675.5,45.5 Z"/></g>
<g><path style="opacity:1" fill="#fefdfd" d="M 202.5,177.5 C 197.5,177.5 192.5,177.5 187.5,177.5C 187.216,179.415 187.549,181.081 188.5,182.5C 189.54,196.146 190.207,209.813 190.5,223.5C 177.303,225.765 165.636,231.265 155.5,240C 150.667,244.833 145.833,249.667 141,254.5C 122.5,280.167 104,305.833 85.5,331.5C 71.5698,307.133 68.7365,281.467 77,254.5C 87.5337,225.899 97.867,197.232 108,168.5C 112.417,152.403 113.584,136.07 111.5,119.5C 118.82,120.996 126.154,122.496 133.5,124C 142.546,124.807 151.546,124.474 160.5,123C 169.637,120.399 178.637,117.399 187.5,114C 206.379,104.727 225.379,95.727 244.5,87C 254.147,83.2256 264.147,81.7256 274.5,82.5C 274.649,83.552 274.483,84.552 274,85.5C 264.058,97.4474 255.725,110.447 249,124.5C 245.223,137.537 243.556,150.871 244,164.5C 231.192,172.159 217.359,176.492 202.5,177.5 Z"/></g>
<g><path style="opacity:1" fill="#ca8f8f" d="M 694.5,99.5 C 694.5,99.8333 694.5,100.167 694.5,100.5C 703.5,101.167 712.5,101.833 721.5,102.5C 707.99,102.829 694.656,102.496 681.5,101.5C 686.153,102.001 690.486,101.334 694.5,99.5 Z"/></g>
<g><path style="opacity:1" fill="#fdfbfb" d="M 446.5,104.5 C 449.978,104.184 453.312,104.684 456.5,106C 465.059,113.805 473.392,121.805 481.5,130C 495.349,138.761 509.682,146.761 524.5,154C 527.295,155.793 529.795,157.96 532,160.5C 527.01,203.705 523.01,247.038 520,290.5C 515.409,282.059 512.409,273.059 511,263.5C 510.545,240.498 510.712,217.498 511.5,194.5C 511.613,184.777 511.113,175.11 510,165.5C 495.067,155.57 480.4,145.237 466,134.5C 454.46,140.6 443.127,146.933 432,153.5C 422.771,147.962 413.271,142.795 403.5,138C 395.5,137.333 387.5,137.333 379.5,138C 367.691,146.153 359.191,156.987 354,170.5C 348.897,183.909 344.564,197.575 341,211.5C 340.167,212.5 339.333,213.5 338.5,214.5C 329.089,216.134 320.589,219.801 313,225.5C 303.012,237.804 297.179,251.804 295.5,267.5C 304.086,267.114 312.419,268.281 320.5,271C 322,272.5 323.5,274 325,275.5C 329.361,288.279 334.028,300.946 339,313.5C 344.57,320.067 351.07,325.567 358.5,330C 333.572,325.756 315.405,312.256 304,289.5C 304.235,295.996 306.235,301.996 310,307.5C 325.158,327.657 345.325,336.157 370.5,333C 410.275,327.075 447.942,314.742 483.5,296C 488.167,292.667 492.833,289.333 497.5,286C 500.017,281.472 503.35,277.638 507.5,274.5C 512.46,279.089 514.627,284.755 514,291.5C 498.937,302.949 483.437,313.782 467.5,324C 458.878,327.605 449.878,329.605 440.5,330C 421.259,338.283 403.259,348.617 386.5,361C 375.987,367.799 364.653,370.132 352.5,368C 344.747,365.232 337.747,361.232 331.5,356C 307.118,333.071 288.284,306.238 275,275.5C 274.333,274.167 274.333,272.833 275,271.5C 279.073,259.281 282.74,246.948 286,234.5C 287.527,220.136 289.194,205.803 291,191.5C 294.465,187.033 298.298,182.867 302.5,179C 329.026,160.146 354.692,140.146 379.5,119C 386.149,119.551 392.816,120.551 399.5,122C 404.5,122.667 409.5,122.667 414.5,122C 425.079,115.901 435.746,110.068 446.5,104.5 Z"/></g>
<g><path style="opacity:1" fill="#9c2c2a" d="M 732.5,95.5 C 732.56,94.9569 732.893,94.6236 733.5,94.5C 741.916,99.0828 748.083,105.749 752,114.5C 752.667,116.833 752.667,119.167 752,121.5C 747.668,111.151 741.168,102.484 732.5,95.5 Z"/></g>
<g><path style="opacity:1" fill="#fefdfd" d="M 497.5,469.5 C 491.5,468.833 485.5,468.167 479.5,467.5C 491.653,459.586 504.319,452.419 517.5,446C 537.833,437 558.167,428 578.5,419C 582.667,416.167 586.167,412.667 589,408.5C 593.491,400.519 597.158,392.185 600,383.5C 601.525,347.806 603.525,312.14 606,276.5C 608.721,268.059 611.721,259.726 615,251.5C 617.29,245.299 616.957,239.299 614,233.5C 608.42,228.744 601.92,225.911 594.5,225C 572.7,225.31 552.533,219.81 534,208.5C 532.964,206.13 532.464,203.63 532.5,201C 533.612,191.773 535.112,182.607 537,173.5C 537.667,168.5 537.667,163.5 537,158.5C 535.542,156.04 533.709,153.873 531.5,152C 518.167,144.667 504.833,137.333 491.5,130C 488.487,128.321 486.154,125.987 484.5,123C 492.604,116.116 501.938,111.616 512.5,109.5C 516.374,110.435 520.04,111.935 523.5,114C 549.125,133.002 577.459,146.669 608.5,155C 629.245,159.269 649.578,164.936 669.5,172C 677.397,176.803 680.397,183.803 678.5,193C 677.445,212.058 673.611,230.558 667,248.5C 663.793,262.336 662.793,276.336 664,290.5C 665.978,304.884 668.144,319.217 670.5,333.5C 670.793,337.45 669.96,341.116 668,344.5C 654.374,361.128 640.374,377.461 626,393.5C 621.754,398.991 617.754,404.658 614,410.5C 606.757,424.659 598.757,438.326 590,451.5C 582.931,460.453 573.764,465.953 562.5,468C 540.858,469.349 519.191,469.849 497.5,469.5 Z"/></g>
<g><path style="opacity:1" fill="#fefdfd" d="M 194.5,186.5 C 194.5,185.5 194.5,184.5 194.5,183.5C 199.032,183.818 203.366,183.485 207.5,182.5C 213.311,181.733 218.978,180.233 224.5,178C 230.5,174.667 236.5,171.333 242.5,168C 266.222,150.611 290.222,133.611 314.5,117C 331.055,113.298 345.888,116.798 359,127.5C 359.315,128.908 358.982,130.241 358,131.5C 353.167,135.667 348.333,139.833 343.5,144C 324.579,157.377 305.745,170.877 287,184.5C 285.438,186.957 284.438,189.624 284,192.5C 283.667,201.5 283.333,210.5 283,219.5C 282.587,222.232 281.92,224.899 281,227.5C 274.757,233.953 268.757,240.62 263,247.5C 253.236,266.669 249.57,287.002 252,308.5C 253.027,320.993 255.027,333.326 258,345.5C 259.286,351.571 261.786,357.071 265.5,362C 286.574,364.019 305.241,371.686 321.5,385C 330.236,393.066 338.236,401.733 345.5,411C 388.666,406.278 428.999,392.945 466.5,371C 480.289,362.211 491.789,351.044 501,337.5C 508.212,327.707 510.379,316.874 507.5,305C 507.937,300.73 510.27,298.23 514.5,297.5C 517.441,298.606 519.608,300.606 521,303.5C 526.659,313.648 530.159,324.481 531.5,336C 531.354,341.083 530.188,345.916 528,350.5C 517.282,365.555 504.782,379.055 490.5,391C 463.357,413.814 435.357,435.481 406.5,456C 401.446,459.194 396.112,461.861 390.5,464C 387.833,464.667 385.167,464.667 382.5,464C 378.5,462.333 374.5,460.667 370.5,459C 353.276,448.887 335.61,439.554 317.5,431C 302.356,425.372 286.689,422.538 270.5,422.5C 266.243,405.555 259.743,389.555 251,374.5C 240.705,360.535 228.205,349.035 213.5,340C 191.965,319.401 183.132,294.234 187,264.5C 190.128,251.449 193.461,238.449 197,225.5C 198.078,212.361 197.245,199.361 194.5,186.5 Z"/></g>
<g><path style="opacity:1" fill="#a03431" d="M 732.5,135.5 C 732.802,138.059 732.468,140.393 731.5,142.5C 730.108,135.479 728.941,128.479 728,121.5C 730.811,125.766 732.311,130.433 732.5,135.5 Z"/></g>
<g><path style="opacity:1" fill="#fdfbfb" d="M 464.5,139.5 C 465.552,139.351 466.552,139.517 467.5,140C 478.213,149.048 489.213,157.714 500.5,166C 502.041,167.579 503.208,169.413 504,171.5C 504.667,203.167 504.667,234.833 504,266.5C 489.73,283.436 472.564,296.602 452.5,306C 440.581,311.195 428.581,316.195 416.5,321C 414.833,321.667 413.167,321.667 411.5,321C 402.936,313.05 392.936,307.717 381.5,305C 380.663,303.989 380.33,302.822 380.5,301.5C 387.467,300.779 394.467,300.279 401.5,300C 398.323,298.055 394.823,297.221 391,297.5C 375.115,298.244 360.282,302.41 346.5,310C 351.328,310.629 355.995,309.962 360.5,308C 377.298,305.266 391.632,309.933 403.5,322C 399.854,324.248 395.854,325.582 391.5,326C 377.774,329.252 364.774,327.585 352.5,321C 347.813,316.457 343.98,311.291 341,305.5C 337.399,294.031 333.399,282.698 329,271.5C 327.269,269.383 325.102,267.883 322.5,267C 315.912,265.323 309.412,263.49 303,261.5C 304.134,247.399 309.967,235.566 320.5,226C 326.009,221.989 332.009,220.823 338.5,222.5C 340.262,237.957 344.762,252.624 352,266.5C 357.628,273.457 364.461,278.957 372.5,283C 374.5,283.667 376.5,283.667 378.5,283C 361.284,274.428 350.784,260.595 347,241.5C 343.448,202.133 355.948,168.966 384.5,142C 391.407,139.757 398.074,140.424 404.5,144C 416.49,150.652 426.657,159.485 435,170.5C 445.596,183.352 454.429,197.352 461.5,212.5C 461.828,208.11 460.995,203.776 459,199.5C 452.317,184.302 442.817,171.135 430.5,160C 442.063,153.392 453.396,146.559 464.5,139.5 Z"/></g>
<g><path style="opacity:1" fill="#ba6e6e" d="M 732.5,135.5 C 733.647,139.646 733.814,143.98 733,148.5C 731.681,146.75 731.181,144.75 731.5,142.5C 732.468,140.393 732.802,138.059 732.5,135.5 Z"/></g>
<g><path style="opacity:1" fill="#cd9595" d="M 202.5,177.5 C 198.03,178.486 193.363,178.819 188.5,178.5C 188.5,179.833 188.5,181.167 188.5,182.5C 187.549,181.081 187.216,179.415 187.5,177.5C 192.5,177.5 197.5,177.5 202.5,177.5 Z"/></g>
<g><path style="opacity:1" fill="#b15c5c" d="M 207.5,182.5 C 203.366,183.485 199.032,183.818 194.5,183.5C 194.5,184.5 194.5,185.5 194.5,186.5C 193.566,185.432 193.232,184.099 193.5,182.5C 198.167,182.5 202.833,182.5 207.5,182.5 Z"/></g>
<g><path style="opacity:1" fill="#9b2b29" d="M 407.5,181.5 C 417.12,183.214 426.787,184.714 436.5,186C 444.233,187.734 448.399,192.568 449,200.5C 451.359,214.72 448.526,227.72 440.5,239.5C 440.167,239 439.833,238.5 439.5,238C 443.063,229.983 445.396,221.65 446.5,213C 446.387,208.046 445.553,203.213 444,198.5C 442.878,196.376 441.378,194.543 439.5,193C 429.54,188.785 419.207,187.118 408.5,188C 404.759,189.738 401.592,192.238 399,195.5C 382.529,218.559 381.529,217.892 396,193.5C 399.364,188.971 403.197,184.971 407.5,181.5 Z"/></g>
<g><path style="opacity:1" fill="#9b2c29" d="M 379.5,183.5 C 381.857,183.337 384.19,183.503 386.5,184C 388.861,184.197 390.528,185.364 391.5,187.5C 387.589,187.692 383.589,187.859 379.5,188C 364.494,198.191 358.327,212.358 361,230.5C 362.274,235.714 364.607,240.381 368,244.5C 384.326,261.913 403.493,275.247 425.5,284.5C 442.071,274.883 459.738,268.049 478.5,264C 481.477,262.855 483.144,260.688 483.5,257.5C 480.489,250.733 479.822,243.733 481.5,236.5C 481.085,233 480.085,229.667 478.5,226.5C 478.833,225.833 479.167,225.167 479.5,224.5C 481.718,225.924 483.218,227.924 484,230.5C 484.254,237.513 484.254,244.513 484,251.5C 487.74,254.2 488.407,257.534 486,261.5C 483.617,264.273 480.783,266.439 477.5,268C 461.838,270.493 447.171,275.827 433.5,284C 430.656,285.424 427.656,286.257 424.5,286.5C 419.295,285.71 414.295,284.21 409.5,282C 392.351,273.849 377.517,262.683 365,248.5C 354.873,233.836 352.873,218.17 359,201.5C 363.875,193.116 370.708,187.116 379.5,183.5 Z"/></g>
<g><path style="opacity:1" fill="#fefdfd" d="M 531.5,214.5 C 540.675,217.416 549.675,220.916 558.5,225C 574.058,228.269 589.725,230.936 605.5,233C 607.848,233.11 609.348,234.277 610,236.5C 610.215,248.313 607.882,259.647 603,270.5C 601.615,275.761 600.615,281.094 600,286.5C 598.395,313.486 597.061,340.486 596,367.5C 596.157,387.664 587.99,403.497 571.5,415C 554.106,425.529 535.773,434.196 516.5,441C 498.51,449.658 481.843,460.325 466.5,473C 445.945,492.565 423.945,510.232 400.5,526C 357.779,528.872 319.445,517.205 285.5,491C 274.108,480.023 264.275,467.857 256,454.5C 244.233,441.388 230.733,430.555 215.5,422C 198.939,414.137 182.772,405.637 167,396.5C 166.333,394.833 166.333,393.167 167,391.5C 177.98,374.186 192.48,360.686 210.5,351C 212.833,350.333 215.167,350.333 217.5,351C 242.894,368.732 258.061,392.898 263,423.5C 263.785,425.286 264.951,426.786 266.5,428C 288.227,427.813 308.894,432.48 328.5,442C 345.063,451.448 362.063,460.115 379.5,468C 385.198,471.232 390.864,471.232 396.5,468C 406.68,462.413 416.346,456.079 425.5,449C 453.5,426.333 481.5,403.667 509.5,381C 517.072,374.099 523.905,366.599 530,358.5C 535.961,348.947 537.961,338.613 536,327.5C 533.062,318.688 529.729,310.021 526,301.5C 523.826,272.263 525.659,243.263 531.5,214.5 Z"/></g>
<g><path style="opacity:1" fill="#982725" d="M 439.5,255.5 C 432.978,255.823 426.645,255.49 420.5,254.5C 433.021,254.491 444.521,251.158 455,244.5C 456.943,241.286 457.776,237.786 457.5,234C 456.92,227.961 455.753,222.127 454,216.5C 461.053,224.591 464.72,233.925 465,244.5C 462.833,248 460,250.833 456.5,253C 450.99,254.89 445.324,255.723 439.5,255.5 Z"/></g>
<g><path style="opacity:1" fill="#992826" d="M 419.5,253.5 C 417.2,255.202 414.533,255.868 411.5,255.5C 408.881,255.768 406.381,255.435 404,254.5C 403.568,253.4 404.068,252.733 405.5,252.5C 407.135,253.046 408.801,253.38 410.5,253.5C 410.844,246.664 414.511,243.497 421.5,244C 427.554,237.892 431.221,230.558 432.5,222C 431.317,214.724 426.983,211.89 419.5,213.5C 404.249,213.461 391.916,219.295 382.5,231C 381.552,231.483 380.552,231.649 379.5,231.5C 380.71,226.768 383.377,222.934 387.5,220C 400.72,210.72 415.386,207.22 431.5,209.5C 439.015,227.241 435.015,241.908 419.5,253.5 Z"/></g>
<g><path style="opacity:1" fill="#fefefe" d="M 185.5,227.5 C 187.833,227.5 190.167,227.5 192.5,227.5C 188.833,238.671 185.666,250.005 183,261.5C 178.607,284.483 182.607,305.816 195,325.5C 199.289,331.245 203.456,337.079 207.5,343C 194.037,354.127 180.871,365.627 168,377.5C 164.284,381.548 160.95,385.882 158,390.5C 157.333,392.167 157.333,393.833 158,395.5C 160.511,398.343 163.344,400.843 166.5,403C 190.277,413.715 212.61,426.715 233.5,442C 247.579,453.741 259.079,467.574 268,483.5C 279.258,495.076 292.425,503.91 307.5,510C 322.509,516.172 337.509,522.338 352.5,528.5C 336.059,542.894 318.059,555.06 298.5,565C 288.068,566.594 278.068,565.261 268.5,561C 229.539,539.787 188.872,522.453 146.5,509C 135.211,505.106 125.711,498.606 118,489.5C 111.83,479.156 105.163,469.156 98,459.5C 84.3708,443.535 70.3708,427.869 56,412.5C 52.1759,408.186 48.8425,403.519 46,398.5C 73.4395,366.609 97.7728,331.942 119,294.5C 127.509,281.482 136.509,268.815 146,256.5C 156.729,243.247 169.896,233.581 185.5,227.5 Z"/></g>
<g><path style="opacity:1" fill="#992927" d="M 398.5,229.5 C 403.844,229.334 409.177,229.501 414.5,230C 418.205,231.003 420.871,233.17 422.5,236.5C 420.877,237.476 419.543,236.976 418.5,235C 409.212,230.994 400.546,231.828 392.5,237.5C 391.068,237.267 390.568,236.6 391,235.5C 393.114,232.879 395.614,230.879 398.5,229.5 Z"/></g>
<g><path style="opacity:1" fill="#fdfcfc" d="M 277.5,236.5 C 278.765,237.514 279.431,239.014 279.5,241C 276.774,251.621 272.274,261.454 266,270.5C 265.294,272.971 265.627,275.305 267,277.5C 280.08,295.989 292.414,314.989 304,334.5C 312.5,347 323,357.5 335.5,366C 344.888,371.361 354.554,376.194 364.5,380.5C 370.627,377.603 376.627,374.436 382.5,371C 395.993,361.419 409.66,352.086 423.5,343C 430.595,339.119 437.929,335.785 445.5,333C 451.5,332.667 457.5,332.333 463.5,332C 475.833,323.667 488.167,315.333 500.5,307C 501.635,306.251 502.635,306.417 503.5,307.5C 505.06,318.992 502.227,329.326 495,338.5C 467.497,366.512 434.663,385.678 396.5,396C 380.908,399.511 365.242,402.178 349.5,404C 337.04,391.867 323.707,380.867 309.5,371C 296.903,364.69 283.903,359.356 270.5,355C 268.291,353.127 266.458,350.96 265,348.5C 257.261,325.447 254.594,301.78 257,277.5C 260.139,261.889 266.972,248.222 277.5,236.5 Z"/></g>
<g><path style="opacity:1" fill="#9a2b28" d="M 382.5,253.5 C 383.946,252.387 385.613,252.22 387.5,253C 390.5,254 393.5,255 396.5,256C 399.816,257.251 400.15,258.918 397.5,261C 396.167,261.667 394.833,261.667 393.5,261C 390.226,257.888 386.56,255.388 382.5,253.5 Z"/></g>
<g><path style="opacity:1" fill="#b56363" d="M 419.5,253.5 C 419.5,254.167 419.833,254.5 420.5,254.5C 426.645,255.49 432.978,255.823 439.5,255.5C 430.167,256.833 420.833,256.833 411.5,255.5C 414.533,255.868 417.2,255.202 419.5,253.5 Z"/></g>
<g><path style="opacity:1" fill="#9e312e" d="M 358.5,249.5 C 359.675,249.281 360.675,249.614 361.5,250.5C 364.38,256.218 367.88,261.552 372,266.5C 379.524,275.023 387.358,283.19 395.5,291C 382.889,283.066 372.055,272.899 363,260.5C 360.928,257.029 359.428,253.362 358.5,249.5 Z"/></g>
<g><path style="opacity:1" fill="#be7473" d="M 410.5,263.5 C 413.304,262.362 416.304,262.195 419.5,263C 418.956,263.717 418.289,264.217 417.5,264.5C 415.393,263.532 413.059,263.198 410.5,263.5 Z"/></g>
<g><path style="opacity:1" fill="#9a2b28" d="M 410.5,263.5 C 413.059,263.198 415.393,263.532 417.5,264.5C 414.592,265.692 411.592,266.692 408.5,267.5C 406.341,265.527 407.007,264.194 410.5,263.5 Z"/></g>
<g><path style="opacity:1" fill="#9b2b29" d="M 463.5,190.5 C 478.548,185.488 490.048,189.822 498,203.5C 497.809,222.11 498.976,240.61 501.5,259C 499.187,266.335 494.854,272.335 488.5,277C 467.784,293.793 444.118,302.46 417.5,303C 416.185,301.605 416.519,300.605 418.5,300C 450.64,298.074 477.473,285.241 499,261.5C 497.905,254.522 496.572,247.522 495,240.5C 493.945,229.192 493.279,217.858 493,206.5C 492.547,200.714 489.714,196.547 484.5,194C 477.664,191.857 470.664,190.69 463.5,190.5 Z"/></g>
<g><path style="opacity:1" fill="#fefcfc" d="M 735.5,370.5 C 749.597,369.936 763.597,370.77 777.5,373C 786.638,376.737 795.638,380.737 804.5,385C 817.166,389.533 830.166,392.533 843.5,394C 844.428,394.388 845.095,395.055 845.5,396C 830.919,409.639 820.752,426.139 815,445.5C 805.26,457.977 796.26,470.977 788,484.5C 781.136,491.698 773.97,498.532 766.5,505C 755.883,509.64 745.883,515.307 736.5,522C 731.103,525.797 726.269,525.297 722,520.5C 719.668,514.494 716.334,509.16 712,504.5C 711.833,503.333 711.667,502.167 711.5,501C 715.134,492.096 717.968,482.929 720,473.5C 721.514,450.187 721.848,426.854 721,403.5C 714.853,402.088 708.686,400.588 702.5,399C 700.427,398.882 699.093,397.882 698.5,396C 706.847,381.51 719.18,373.01 735.5,370.5 Z"/></g>
<g><path style="opacity:1" fill="#fefdfd" d="M 675.5,388.5 C 679.472,389.949 682.806,392.449 685.5,396C 694.872,402.104 704.705,406.937 715,410.5C 716.156,454.21 706.156,495.21 685,533.5C 675.381,549.24 661.214,557.74 642.5,559C 637.198,561.651 631.864,564.318 626.5,567C 606.975,579.595 587.975,592.928 569.5,607C 555.383,614.67 540.716,615.67 525.5,610C 511.56,605.689 498.227,600.022 485.5,593C 503.823,574.331 524.157,558.331 546.5,545C 551.624,542.438 556.957,540.438 562.5,539C 571.504,538.559 580.504,538.725 589.5,539.5C 592.833,539.333 596.167,539.167 599.5,539C 602.319,535.195 604.486,531.029 606,526.5C 614.407,499.611 623.407,472.944 633,446.5C 634.637,441.286 635.637,435.953 636,430.5C 638.171,426.156 640.837,422.156 644,418.5C 654.093,407.903 664.593,397.903 675.5,388.5 Z"/></g>
<g><path style="opacity:1" fill="#9f3431" d="M 766.5,383.5 C 767.525,383.897 767.692,384.563 767,385.5C 759.963,394.913 753.963,404.913 749,415.5C 748.688,410.427 750.022,405.76 753,401.5C 756.947,395.057 761.447,389.057 766.5,383.5 Z"/></g>
<g><path style="opacity:1" fill="#a7433e" d="M 728.5,394.5 C 729.919,396.83 729.419,398.83 727,400.5C 726.5,400.167 726,399.833 725.5,399.5C 726.26,397.64 727.26,395.973 728.5,394.5 Z"/></g>
<g><path style="opacity:1" fill="#9e332f" d="M 735.5,441.5 C 756.116,417.679 782.116,402.846 813.5,397C 815.5,396.333 817.5,396.333 819.5,397C 796.021,403.739 774.021,413.739 753.5,427C 747.293,431.721 741.293,436.554 735.5,441.5 Z"/></g>
<g><path style="opacity:1" fill="#fefdfd" d="M 626.5,402.5 C 627.5,402.5 628.5,402.5 629.5,402.5C 631.064,416.898 630.564,431.231 628,445.5C 619.667,469.833 611.333,494.167 603,518.5C 601.587,522.739 600.587,527.072 600,531.5C 598.352,532.717 596.519,533.55 594.5,534C 583.167,534.333 571.833,534.667 560.5,535C 548.451,537.191 537.451,541.858 527.5,549C 504,567.167 483.167,588 465,611.5C 459.294,618.105 452.127,622.272 443.5,624C 412.086,627.62 380.753,626.953 349.5,622C 310.954,616.737 280.621,598.237 258.5,566.5C 260.074,565.369 261.741,565.202 263.5,566C 279.48,573.698 295.147,573.031 310.5,564C 326.5,553.333 342.5,542.667 358.5,532C 367.292,533.102 376.125,534.269 385,535.5C 390.389,535.372 395.555,534.205 400.5,532C 407.436,528.06 414.103,523.727 420.5,519C 434.879,506.953 449.545,495.286 464.5,484C 476.755,476.06 490.255,472.56 505,473.5C 520.545,474.376 536.045,475.71 551.5,477.5C 562.362,477.407 572.029,473.907 580.5,467C 590.436,458.398 598.936,448.564 606,437.5C 612.34,425.477 619.174,413.811 626.5,402.5 Z"/></g>
<g><path style="opacity:1" fill="#9e332f" d="M 779.5,423.5 C 779.56,422.957 779.893,422.624 780.5,422.5C 790.954,425.474 801.621,427.308 812.5,428C 804.167,428.667 795.833,428.667 787.5,428C 784.352,427.262 781.685,425.762 779.5,423.5 Z"/></g>
<g><path style="opacity:1" fill="#ba6b69" d="M 735.5,441.5 C 734.207,443.296 732.707,444.963 731,446.5C 731.177,443.814 732.677,442.148 735.5,441.5 Z"/></g>
<g><path style="opacity:1" fill="#9d312e" d="M 756.5,446.5 C 765.607,452.166 775.273,456.999 785.5,461C 780.561,461.469 775.894,460.469 771.5,458C 767.5,455.667 763.5,453.333 759.5,451C 757.859,449.871 756.859,448.371 756.5,446.5 Z"/></g>
<g><path style="opacity:1" fill="#c98e8e" d="M 479.5,467.5 C 485.5,468.167 491.5,468.833 497.5,469.5C 490.825,469.666 484.158,469.5 477.5,469C 478.044,468.283 478.711,467.783 479.5,467.5 Z"/></g>
<g><path style="opacity:1" fill="#9e3430" d="M 725.5,474.5 C 726.251,473.427 727.251,473.26 728.5,474C 737.152,477.991 745.486,482.491 753.5,487.5C 743.054,485.949 733.721,481.616 725.5,474.5 Z"/></g>
<g><path style="opacity:1" fill="#fefdfd" d="M 115.5,500.5 C 120.985,502.807 125.818,506.14 130,510.5C 134.304,522.376 138.304,534.376 142,546.5C 150.22,561.72 162.053,573.22 177.5,581C 194.988,589.908 211.988,599.574 228.5,610C 231.167,612.667 233.833,615.333 236.5,618C 222.44,622.767 208.107,626.767 193.5,630C 182.44,631.526 171.774,630.192 161.5,626C 144.41,617.122 127.077,608.788 109.5,601C 103.674,598.901 97.6745,597.568 91.5,597C 91,596.5 90.5,596 90,595.5C 89.2787,585.227 87.2787,575.227 84,565.5C 82.2804,558.914 81.6137,552.247 82,545.5C 88.7622,536.981 95.7622,528.648 103,520.5C 107.428,513.973 111.595,507.307 115.5,500.5 Z"/></g>
<g><path style="opacity:1" fill="#fefcfc" d="M 703.5,501.5 C 708.099,509.998 713.265,518.332 719,526.5C 726,534.833 733,543.167 740,551.5C 741.846,554.569 742.846,557.902 743,561.5C 749.044,567.93 752.044,575.597 752,584.5C 758.336,598.844 762.003,613.844 763,629.5C 763.667,651.5 763.667,673.5 763,695.5C 762.55,700.759 761.216,705.759 759,710.5C 754.219,713.363 749.052,714.196 743.5,713C 737.352,711.395 731.352,709.395 725.5,707C 720.5,706.667 715.5,706.333 710.5,706C 700.188,702.203 689.521,700.536 678.5,701C 665.34,697.141 652.007,694.141 638.5,692C 623.01,684.091 608.01,675.425 593.5,666C 587.111,660.064 582.611,652.898 580,644.5C 570.821,637.988 562.988,630.154 556.5,621C 556.759,619.739 557.426,618.739 558.5,618C 564.991,614.922 571.325,611.588 577.5,608C 597.23,594.606 617.23,581.606 637.5,569C 641.048,567.059 644.714,565.393 648.5,564C 657.555,564.091 665.888,561.758 673.5,557C 689.412,541.674 699.412,523.174 703.5,501.5 Z"/></g>
<g><path style="opacity:1" fill="#fefdfd" d="M 138.5,512.5 C 173.99,523.496 208.324,537.329 241.5,554C 246.923,557.419 251.756,561.585 256,566.5C 267.998,588.831 285.498,605.331 308.5,616C 326.457,623.658 345.123,628.658 364.5,631C 334.887,649.071 302.887,656.071 268.5,652C 261.603,636.091 251.269,622.758 237.5,612C 229.778,605.945 221.778,600.278 213.5,595C 199.672,587.587 186.005,579.92 172.5,572C 151.275,557.914 139.941,538.081 138.5,512.5 Z"/></g>
<g><path style="opacity:1" fill="#9d322e" d="M 696.5,552.5 C 711.802,552.987 724.802,558.653 735.5,569.5C 727.892,564.203 719.225,560.036 709.5,557C 702.855,555.394 696.189,555.061 689.5,556C 691.925,554.787 694.259,553.621 696.5,552.5 Z"/></g>
<g><path style="opacity:1" fill="#9a2b28" d="M 652.5,566.5 C 655.016,566.755 657.35,567.589 659.5,569C 691.709,591.542 718.876,619.042 741,651.5C 744.382,657.597 747.216,663.93 749.5,670.5C 749.167,670.833 748.833,671.167 748.5,671.5C 735.569,645.72 718.236,623.22 696.5,604C 682.35,592.094 668.017,580.427 653.5,569C 652.748,568.329 652.414,567.496 652.5,566.5 Z"/></g>
<g><path style="opacity:1" fill="#fefcfc" d="M 78.5,583.5 C 79.1174,583.611 79.6174,583.944 80,584.5C 80.9523,591.371 83.4523,597.538 87.5,603C 96.1635,604.856 104.83,606.856 113.5,609C 129.01,617.255 144.677,625.255 160.5,633C 184.586,637.344 208.253,635.678 231.5,628C 245.503,626.764 254.669,632.931 259,646.5C 259.667,648.833 259.667,651.167 259,653.5C 255.279,660.221 249.946,665.221 243,668.5C 239.518,686.302 229.685,699.135 213.5,707C 200.109,711.353 187.109,716.687 174.5,723C 167.933,725.303 161.6,724.97 155.5,722C 153.167,721.333 150.833,721.333 148.5,722C 136.808,728.733 124.142,732.067 110.5,732C 105.246,732.917 100.246,734.584 95.5,737C 87.2024,739.108 82.7024,735.942 82,727.5C 82.0067,695.611 79.5067,663.945 74.5,632.5C 75.1872,619.508 75.6872,606.508 76,593.5C 76.3033,589.996 77.1366,586.662 78.5,583.5 Z"/></g>
<g><path style="opacity:1" fill="#9c2f2c" d="M 717.5,598.5 C 731.219,602.78 742.719,610.447 752,621.5C 752.667,622.5 752.667,623.5 752,624.5C 742.962,614.399 732.129,606.899 719.5,602C 718.177,601.184 717.511,600.017 717.5,598.5 Z"/></g>
<g><path style="opacity:1" fill="#fefcfc" d="M 406.5,648.5 C 406.5,643.833 406.5,639.167 406.5,634.5C 415.349,634.826 424.016,634.493 432.5,633.5C 441.004,633.207 449.004,631.041 456.5,627C 464.5,620.333 471.833,613 478.5,605C 480.067,603.924 481.734,603.091 483.5,602.5C 500.593,607.698 517.593,613.198 534.5,619C 540.95,620.456 545.116,624.289 547,630.5C 548.164,645.642 547.497,660.642 545,675.5C 544.773,697.901 543.44,720.234 541,742.5C 539.593,750.948 537.76,759.281 535.5,767.5C 526.977,760.476 518.31,753.643 509.5,747C 485.631,732.237 461.965,717.237 438.5,702C 426.183,690.865 416.683,677.698 410,662.5C 408.516,657.899 407.35,653.232 406.5,648.5 Z"/></g>
<g><path style="opacity:1" fill="#a13834" d="M 631.5,584.5 C 632.525,584.897 632.692,585.563 632,586.5C 621.828,593.685 615.161,603.351 612,615.5C 611.551,609.753 612.884,604.42 616,599.5C 620.401,593.597 625.568,588.597 631.5,584.5 Z"/></g>
<g><path style="opacity:1" fill="#9d312e" d="M 498.5,616.5 C 509.593,616.55 518.593,621.216 525.5,630.5C 524.998,631.521 524.332,631.688 523.5,631C 516.385,624.108 508.051,619.274 498.5,616.5 Z"/></g>
<g><path style="opacity:1" fill="#a13a36" d="M 139.5,631.5 C 141.604,631.201 143.604,631.534 145.5,632.5C 137.212,635.484 128.879,637.984 120.5,640C 126.62,636.469 132.953,633.636 139.5,631.5 Z"/></g>
<g><path style="opacity:1" fill="#b96b6a" d="M 432.5,633.5 C 424.016,634.493 415.349,634.826 406.5,634.5C 406.5,639.167 406.5,643.833 406.5,648.5C 405.513,643.695 405.179,638.695 405.5,633.5C 414.5,633.5 423.5,633.5 432.5,633.5 Z"/></g>
<g><path style="opacity:1" fill="#af5756" d="M 465.5,635.5 C 464.527,637.948 464.194,640.615 464.5,643.5C 463.352,639.019 463.185,634.352 464,629.5C 464.813,631.436 465.313,633.436 465.5,635.5 Z"/></g>
<g><path style="opacity:1" fill="#a43d38" d="M 674.5,604.5 C 675.043,604.56 675.376,604.893 675.5,605.5C 669.719,612.722 665.219,620.722 662,629.5C 659.164,642.353 657.164,655.353 656,668.5C 654.912,655.337 655.912,642.337 659,629.5C 662.148,619.862 667.314,611.529 674.5,604.5 Z"/></g>
<g><path style="opacity:1" fill="#9b2c29" d="M 171.5,639.5 C 172.586,639.62 173.253,640.287 173.5,641.5C 169.897,657.373 163.063,671.707 153,684.5C 142.086,698.748 129.253,710.915 114.5,721C 111.281,722.955 107.947,724.288 104.5,725C 136.044,703.634 158.377,675.134 171.5,639.5 Z"/></g>
<g><path style="opacity:1" fill="#a6423f" d="M 221.5,637.5 C 224.527,639.529 226.86,642.196 228.5,645.5C 228.167,645.833 227.833,646.167 227.5,646.5C 224.697,644.031 222.697,641.031 221.5,637.5 Z"/></g>
<g><path style="opacity:1" fill="#9f322f" d="M 443.5,673.5 C 442.515,669.366 442.182,665.032 442.5,660.5C 441.968,651.568 444.801,643.901 451,637.5C 446.67,648.978 444.17,660.978 443.5,673.5 Z"/></g>
<g><path style="opacity:1" fill="#9e332f" d="M 489.5,658.5 C 503.114,660.262 513.614,667.262 521,679.5C 523.866,683.557 525.866,687.89 527,692.5C 521.924,684.753 516.091,677.587 509.5,671C 503.31,666.072 496.643,661.905 489.5,658.5 Z"/></g>
<g><path style="opacity:1" fill="#9d2e2c" d="M 178.5,651.5 C 190.108,665.161 194.274,680.827 191,698.5C 189.785,703.934 187.285,708.601 183.5,712.5C 183.167,712 182.833,711.5 182.5,711C 188.198,701.266 190.031,690.766 188,679.5C 184.924,670.105 181.758,660.772 178.5,651.5 Z"/></g>
<g><path style="opacity:1" fill="#be7777" d="M 442.5,660.5 C 442.182,665.032 442.515,669.366 443.5,673.5C 443.543,677.893 443.043,678.226 442,674.5C 441.185,669.648 441.352,664.981 442.5,660.5 Z"/></g>
<g><path style="opacity:1" fill="#9d2d2a" d="M 712.5,643.5 C 714.018,647.566 714.851,651.899 715,656.5C 715.667,665.167 715.667,673.833 715,682.5C 712.765,669.61 711.932,656.61 712.5,643.5 Z"/></g>
<g><path style="opacity:1" fill="#9c2d2a" d="M 465.5,635.5 C 468.181,650.707 473.347,665.04 481,678.5C 491.524,695.855 503.024,712.521 515.5,728.5C 515.333,728.833 515.167,729.167 515,729.5C 494.561,709.048 478.894,685.381 468,658.5C 466.133,653.666 464.966,648.666 464.5,643.5C 464.194,640.615 464.527,637.948 465.5,635.5 Z"/></g>
<g><path style="opacity:1" fill="#9d302d" d="M 141.5,661.5 C 143.028,661.517 143.528,662.184 143,663.5C 131.102,671.728 118.935,679.561 106.5,687C 103.942,688.626 101.275,689.626 98.5,690C 112.555,679.98 126.889,670.48 141.5,661.5 Z"/></g>
<g><path style="opacity:1" fill="#9f3330" d="M 471.5,692.5 C 473.117,693.589 473.95,695.256 474,697.5C 475.162,702.125 475.496,706.792 475,711.5C 472.133,705.538 470.966,699.204 471.5,692.5 Z"/></g>
</svg>
