<?xml version="1.0" encoding="UTF-8"?>
<!DOCTYPE svg PUBLIC "-//W3C//DTD SVG 1.1//EN" "http://www.w3.org/Graphics/SVG/1.1/DTD/svg11.dtd">
<svg xmlns="http://www.w3.org/2000/svg" version="1.1" width="900px" height="780px" style="shape-rendering:geometricPrecision; text-rendering:geometricPrecision; image-rendering:optimizeQuality; fill-rule:evenodd; clip-rule:evenodd" xmlns:xlink="http://www.w3.org/1999/xlink">
<g><path style="opacity:1" fill="#fefefe" d="M -0.5,-0.5 C 299.5,-0.5 599.5,-0.5 899.5,-0.5C 899.5,259.5 899.5,519.5 899.5,779.5C 702.167,779.5 504.833,779.5 307.5,779.5C 307.832,767.665 310.332,756.332 315,745.5C 354.639,694.883 393.306,643.55 431,591.5C 435.055,583.347 440.055,576.013 446,569.5C 462.864,575.199 480.197,577.532 498,576.5C 552.159,576.334 602.326,562.167 648.5,534C 656.556,528.643 664.223,522.81 671.5,516.5C 679.934,508.897 687.101,500.231 693,490.5C 693.977,488.26 694.477,485.927 694.5,483.5C 696.047,481.193 696.713,478.527 696.5,475.5C 696.495,473.304 696.162,471.304 695.5,469.5C 693.268,463.412 689.935,457.912 685.5,453C 690.202,446.437 694.535,439.603 698.5,432.5C 697.726,431.289 696.893,431.289 696,432.5C 693,437.167 690,441.833 687,446.5C 685.223,448.79 683.056,450.457 680.5,451.5C 679.248,446.409 679.748,441.409 682,436.5C 683.159,426.977 679.993,419.144 672.5,413C 667.555,408.884 662.221,405.384 656.5,402.5C 656.5,399.833 656.5,397.167 656.5,394.5C 658.351,391.622 660.018,388.622 661.5,385.5C 676.302,390.159 688.468,398.492 698,410.5C 699.224,415.386 699.891,420.386 700,425.5C 701.74,424.284 702.74,422.618 703,420.5C 703.499,415.845 703.666,411.179 703.5,406.5C 702.448,406.649 701.448,406.483 700.5,406C 698.443,402.277 695.443,399.61 691.5,398C 679.232,393.291 668.399,386.458 659,377.5C 653.886,367.386 646.386,359.552 636.5,354C 678.684,323.163 717.851,288.663 754,250.5C 771.99,230.513 786.99,208.513 799,184.5C 800.352,181.28 801.186,177.947 801.5,174.5C 796.987,174.588 792.987,176.088 789.5,179C 750.88,213.436 708.547,242.602 662.5,266.5C 661.442,260.61 662.275,254.944 665,249.5C 668.93,233.02 664.764,219.187 652.5,208C 648.581,206.138 644.581,204.471 640.5,203C 639.44,201.702 638.274,200.535 637,199.5C 635.268,199.734 634.434,200.734 634.5,202.5C 634.59,204.425 635.59,205.592 637.5,206C 647.682,206.365 654.682,211.198 658.5,220.5C 660.293,230.386 660.96,240.386 660.5,250.5C 656.09,276.322 645.923,299.655 630,320.5C 623.998,327.999 617.832,335.332 611.5,342.5C 601.073,353.267 590.073,363.267 578.5,372.5C 573.886,375.117 569.553,378.117 565.5,381.5C 552.894,389.302 539.561,395.802 525.5,401C 520.905,402.393 516.239,402.726 511.5,402C 507.684,398.637 506.684,399.471 508.5,404.5C 496.271,443.622 476.437,478.622 449,509.5C 444.018,513.315 439.518,517.648 435.5,522.5C 436.79,523.408 438.123,523.241 439.5,522C 448.167,514 456.833,506 465.5,498C 466.793,497.51 468.127,497.343 469.5,497.5C 471.288,486.099 476.621,476.599 485.5,469C 488.234,468.79 490.734,467.956 493,466.5C 493.591,465.517 493.257,464.85 492,464.5C 490.56,465.148 489.06,465.481 487.5,465.5C 487.343,464.127 487.51,462.793 488,461.5C 497.101,444.198 505.434,426.532 513,408.5C 532.692,402.222 551.192,393.555 568.5,382.5C 590.937,380.845 612.937,383.679 634.5,391C 642.435,393.447 642.435,395.781 634.5,398C 616.505,403.583 598.172,407.416 579.5,409.5C 579.5,410.833 579.5,412.167 579.5,413.5C 577.897,413.312 576.563,413.812 575.5,415C 578.167,415.667 580.833,415.667 583.5,415C 608.744,406.841 634.411,404.841 660.5,409C 676.247,418.007 681.247,431.174 675.5,448.5C 672.108,455.61 667.941,462.277 663,468.5C 657.297,474.035 651.797,479.702 646.5,485.5C 606.988,519.939 562.654,546.773 513.5,566C 503.54,567.462 493.54,567.795 483.5,567C 474.809,565.462 466.143,563.795 457.5,562C 451.469,558.817 445.136,556.483 438.5,555C 437.565,552.619 437.232,550.119 437.5,547.5C 435.5,547.5 433.5,547.5 431.5,547.5C 431.081,550.325 432.081,552.491 434.5,554C 447.895,563.744 462.895,569.244 479.5,570.5C 475.366,571.485 471.032,571.818 466.5,571.5C 461.329,571.124 456.329,569.958 451.5,568C 445.292,564.479 438.792,561.646 432,559.5C 431.5,559.833 431,560.167 430.5,560.5C 433.207,562.843 435.874,565.177 438.5,567.5C 436.863,572.107 434.696,576.44 432,580.5C 416.41,602.025 401.076,623.692 386,645.5C 374.733,657.737 364.733,670.737 356,684.5C 341.675,701.834 327.842,719.501 314.5,737.5C 313.834,732.983 313.167,728.317 312.5,723.5C 310.783,724.668 310.116,726.335 310.5,728.5C 307.173,745.469 304.173,762.469 301.5,779.5C 292.833,779.5 284.167,779.5 275.5,779.5C 276.483,684.847 276.816,590.18 276.5,495.5C 275.317,480.254 276.984,465.42 281.5,451C 288.826,449.855 292.16,445.689 291.5,438.5C 293.655,428.654 295.655,418.654 297.5,408.5C 299.599,389.383 299.932,370.383 298.5,351.5C 299.001,340.334 297.001,329.667 292.5,319.5C 292.167,320 291.833,320.5 291.5,321C 293.182,327.908 294.516,334.742 295.5,341.5C 296.536,361.858 296.536,382.192 295.5,402.5C 294.388,415.049 291.722,427.383 287.5,439.5C 284.217,446.102 278.884,450.102 271.5,451.5C 268.635,449.473 265.635,447.64 262.5,446C 246.055,446.744 231.888,441.577 220,430.5C 213.822,423.155 208.655,415.155 204.5,406.5C 194.117,382.63 188.283,357.63 187,331.5C 186.5,311.836 186.333,292.169 186.5,272.5C 187.159,269.545 187.492,266.545 187.5,263.5C 188.913,260.781 189.58,257.781 189.5,254.5C 195.327,228.185 203.827,202.852 215,178.5C 216.309,176.024 218.142,174.024 220.5,172.5C 221.308,174.423 221.808,176.423 222,178.5C 222.5,201.164 222.667,223.831 222.5,246.5C 222.173,251.214 222.507,255.88 223.5,260.5C 224.107,260.376 224.44,260.043 224.5,259.5C 224.944,231.072 226.777,202.739 230,174.5C 231.873,168.965 234.039,163.632 236.5,158.5C 245.349,145.492 256.682,142.658 270.5,150C 278.753,156.251 285.586,163.751 291,172.5C 306.492,200.815 318.659,230.482 327.5,261.5C 328.057,266.165 329.39,270.498 331.5,274.5C 334.451,283.639 336.785,292.973 338.5,302.5C 338.41,305.152 339.076,307.485 340.5,309.5C 341.178,315.235 342.178,320.902 343.5,326.5C 343.376,332.069 344.043,337.402 345.5,342.5C 345.895,351.965 345.228,361.298 343.5,370.5C 339.933,380.699 336.433,391.032 333,401.5C 328.882,409.272 324.382,416.772 319.5,424C 319.667,424.5 319.833,425 320,425.5C 321.925,424.12 323.759,422.62 325.5,421C 326.749,420.26 327.749,420.427 328.5,421.5C 327.31,423.355 325.977,425.188 324.5,427C 326.772,426.923 328.438,425.757 329.5,423.5C 336.534,414.772 342.034,405.106 346,394.5C 351.86,378.675 355.36,362.342 356.5,345.5C 357.329,337.343 357.829,329.01 358,320.5C 359.039,319.756 359.539,318.756 359.5,317.5C 372.146,302.354 386.812,289.521 403.5,279C 406.561,276.965 409.895,275.799 413.5,275.5C 405.586,291.246 398.253,307.246 391.5,323.5C 388.87,327.431 387.37,331.764 387,336.5C 389.112,333.273 390.945,329.94 392.5,326.5C 401.28,309.113 411.946,292.946 424.5,278C 440.57,263.594 456.07,264.094 471,279.5C 473.705,283.577 475.872,287.91 477.5,292.5C 477.723,296.162 478.723,299.495 480.5,302.5C 482.523,310.694 484.023,319.027 485,327.5C 485.948,345.248 485.448,362.915 483.5,380.5C 482.194,385.616 481.527,390.949 481.5,396.5C 481.5,396.833 481.5,397.167 481.5,397.5C 480.313,400.946 479.646,404.613 479.5,408.5C 477.165,422.511 474.832,436.511 472.5,450.5C 469.882,462.639 465.882,474.305 460.5,485.5C 452.396,494.105 444.063,502.605 435.5,511C 432.048,514.06 428.048,516.06 423.5,517C 422.743,518.512 421.743,519.846 420.5,521C 415.912,522.694 411.579,524.86 407.5,527.5C 409.837,528.512 412.17,528.345 414.5,527C 434.211,518.152 449.878,504.652 461.5,486.5C 467.139,477.544 471.473,467.877 474.5,457.5C 480.568,438.057 484.235,418.057 485.5,397.5C 486.936,391.053 487.603,384.386 487.5,377.5C 488.595,360.187 488.762,342.854 488,325.5C 487.303,310.379 483.636,296.045 477,282.5C 470.391,270.797 460.557,263.964 447.5,262C 440.51,263.942 433.51,265.776 426.5,267.5C 424.589,266.925 422.922,265.925 421.5,264.5C 419.832,262.66 418.332,260.66 417,258.5C 416.333,257.167 416.333,255.833 417,254.5C 423.454,250.691 429.954,247.025 436.5,243.5C 446.743,241.731 456.743,242.565 466.5,246C 468.3,247.812 469.967,249.645 471.5,251.5C 474.389,256.609 476.722,261.943 478.5,267.5C 479.132,271.702 480.132,275.702 481.5,279.5C 481.918,280.222 482.584,280.722 483.5,281C 501.361,279.912 513.028,287.745 518.5,304.5C 518.444,309.731 519.111,314.731 520.5,319.5C 520.5,331.833 520.5,344.167 520.5,356.5C 520.716,361.561 519.549,366.228 517,370.5C 516.265,380.236 515.099,389.903 513.5,399.5C 520.028,399.371 526.028,397.704 531.5,394.5C 545.168,389.248 557.335,381.581 568,371.5C 592.198,339.1 610.532,303.767 623,265.5C 629.062,245.942 631.395,225.942 630,205.5C 629.336,198.324 626.836,191.991 622.5,186.5C 618.041,179.566 611.707,175.066 603.5,173C 588.316,172.394 573.316,170.56 558.5,167.5C 521.009,172.583 488.009,187.417 459.5,212C 446.402,226.102 432.402,239.102 417.5,251C 415.35,252.411 413.016,253.245 410.5,253.5C 410.401,250.763 410.735,248.096 411.5,245.5C 418.308,234.564 425.142,223.564 432,212.5C 432.688,211.668 432.521,211.002 431.5,210.5C 422.833,221.171 415.166,232.504 408.5,244.5C 407.711,244.783 407.044,245.283 406.5,246C 400.833,246.333 395.167,246.667 389.5,247C 387.697,247.637 386.364,248.803 385.5,250.5C 384.029,249.619 383.196,248.286 383,246.5C 382.002,241.18 381.169,235.847 380.5,230.5C 380.808,228.076 380.474,225.743 379.5,223.5C 378.503,230.803 378.169,238.137 378.5,245.5C 377.691,247.292 377.191,249.292 377,251.5C 375.989,252.337 374.822,252.67 373.5,252.5C 373.5,253.5 373.5,254.5 373.5,255.5C 369.023,255.363 366.356,253.029 365.5,248.5C 365.769,246.571 365.269,244.905 364,243.5C 363.501,248.823 363.334,254.156 363.5,259.5C 363.489,261.686 362.489,262.519 360.5,262C 359.578,259.706 358.578,257.539 357.5,255.5C 355.935,246.353 354.269,237.353 352.5,228.5C 352.784,226.585 352.451,224.919 351.5,223.5C 350.306,198.367 354.806,174.367 365,151.5C 381.651,113.684 405.484,81.1841 436.5,54C 437.877,52.759 439.21,52.5923 440.5,53.5C 438.037,61.8217 435.704,70.1551 433.5,78.5C 431.723,81.5046 430.723,84.8379 430.5,88.5C 425.9,99.2712 424.066,110.604 425,122.5C 425.667,123.167 426.333,123.833 427,124.5C 427.445,112.048 430.112,100.048 435,88.5C 439.597,76.6401 445.263,65.3068 452,54.5C 461.955,40.2931 475.122,36.1265 491.5,42C 500.44,47.3766 506.94,54.8766 511,64.5C 514.316,71.4851 516.816,78.8184 518.5,86.5C 518.41,89.1522 519.076,91.4855 520.5,93.5C 521.8,100.054 523.133,106.721 524.5,113.5C 524.717,117.705 525.383,121.705 526.5,125.5C 527.292,131.13 527.625,136.797 527.5,142.5C 526.5,142.5 525.5,142.5 524.5,142.5C 521.165,131.997 517.332,121.664 513,111.5C 505.612,96.0585 498.778,80.3918 492.5,64.5C 492.167,65.6667 491.833,66.8333 491.5,68C 492.178,71.1952 493.012,74.3619 494,77.5C 500.059,91.9509 506.392,106.284 513,120.5C 513.914,124.142 514.748,127.808 515.5,131.5C 518.206,133.524 519.539,136.19 519.5,139.5C 510.858,146.83 501.191,152.663 490.5,157C 475.966,165.6 462.966,176.1 451.5,188.5C 449.097,189.835 447.764,191.502 447.5,193.5C 449.521,192.145 451.188,190.479 452.5,188.5C 471.359,171.559 492.692,158.392 516.5,149C 530.864,143.116 545.53,142.116 560.5,146C 568.717,150.05 574.717,156.216 578.5,164.5C 578.56,165.043 578.893,165.376 579.5,165.5C 580.48,162.914 580.813,160.247 580.5,157.5C 586.359,155.685 592.359,154.185 598.5,153C 590.5,152.667 582.5,152.333 574.5,152C 568.79,149.433 565.957,144.933 566,138.5C 564.874,125.862 564.208,113.195 564,100.5C 562.251,86.0047 557.918,72.338 551,59.5C 541.926,46.0956 529.426,41.2623 513.5,45C 512.29,41.8372 510.624,39.0039 508.5,36.5C 507.686,38.9515 508.186,41.2849 510,43.5C 510.495,45.4727 510.662,47.4727 510.5,49.5C 509.448,49.6495 508.448,49.4828 507.5,49C 501.386,43.5547 494.72,38.888 487.5,35C 483.167,34.3333 478.833,34.3333 474.5,35C 462.51,40.662 450.177,45.3286 437.5,49C 411.086,65.7454 390.586,87.9121 376,115.5C 364.742,136.35 356.575,158.35 351.5,181.5C 350.232,183.905 349.565,186.572 349.5,189.5C 348.38,194.495 347.214,199.495 346,204.5C 338.909,188.439 336.909,171.772 340,154.5C 353.256,123.978 369.589,95.3109 389,68.5C 392.517,65.2835 395.684,61.7835 398.5,58C 407.456,51.3792 416.123,44.3792 424.5,37C 423.167,36.3333 421.833,36.3333 420.5,37C 398.286,50.8805 380.453,69.0471 367,91.5C 359.644,104.211 352.811,117.211 346.5,130.5C 352.89,107.927 362.89,86.5935 376.5,66.5C 385.844,52.3263 398.177,41.4929 413.5,34C 418.303,31.7998 423.303,31.1332 428.5,32C 435.892,34.3624 442.559,37.6957 448.5,42C 447.378,39.8762 445.878,38.0429 444,36.5C 442.872,34.6547 442.372,32.6547 442.5,30.5C 446.55,31.3115 449.216,29.8115 450.5,26C 452.833,25.6667 455.167,25.3333 457.5,25C 458.227,23.6012 458.727,22.1012 459,20.5C 463.084,17.8742 467.25,15.3742 471.5,13C 465.419,13.5267 459.753,15.5267 454.5,19C 450.167,22 445.833,25 441.5,28C 439.091,28.9347 436.591,29.4347 434,29.5C 423.421,27.2691 413.588,29.1024 404.5,35C 392.622,42.7105 382.956,52.5439 375.5,64.5C 359.455,84.5921 348.788,107.259 343.5,132.5C 343.808,134.924 343.474,137.257 342.5,139.5C 340.949,140.8 339.949,142.467 339.5,144.5C 337.723,147.505 336.723,150.838 336.5,154.5C 336.341,158.291 335.675,161.958 334.5,165.5C 333.698,166.952 333.198,168.618 333,170.5C 332.617,169.944 332.117,169.611 331.5,169.5C 326.954,158.455 319.954,149.288 310.5,142C 306.385,139.346 301.885,137.846 297,137.5C 292.375,138.395 287.875,139.728 283.5,141.5C 281.823,140.813 280.156,140.146 278.5,139.5C 271.325,132.161 263.659,125.328 255.5,119C 251.961,117.496 248.295,117.163 244.5,118C 237.176,121.649 230.676,126.482 225,132.5C 220.948,137.712 217.115,143.045 213.5,148.5C 210.792,150.353 207.792,151.353 204.5,151.5C 197.126,153.952 190.959,158.285 186,164.5C 178.983,173.533 173.817,183.533 170.5,194.5C 168.688,196.713 168.355,199.047 169.5,201.5C 174.975,190.55 180.475,179.55 186,168.5C 190.121,162.363 195.621,158.03 202.5,155.5C 202.5,155.833 202.5,156.167 202.5,156.5C 184.368,181.005 172.868,208.338 168,238.5C 166.92,244.809 166.086,251.142 165.5,257.5C 161.713,276.707 160.713,296.041 162.5,315.5C 164.284,326.2 166.284,336.867 168.5,347.5C 168.41,350.152 169.076,352.485 170.5,354.5C 171.939,356.588 172.606,358.921 172.5,361.5C 172.723,365.162 173.723,368.495 175.5,371.5C 182.466,394.76 194.133,415.426 210.5,433.5C 212.82,435.226 215.487,435.893 218.5,435.5C 218.872,439.043 220.872,441.21 224.5,442C 226.464,443.451 227.797,445.284 228.5,447.5C 228.723,451.162 229.723,454.495 231.5,457.5C 232.092,460.127 232.425,462.794 232.5,465.5C 233.147,482.826 233.48,500.159 233.5,517.5C 233.5,520.167 233.5,522.833 233.5,525.5C 232.178,536.642 231.511,547.976 231.5,559.5C 226.448,606.566 223.115,653.733 221.5,701C 221.69,721.728 223.69,742.228 227.5,762.5C 227.41,765.152 228.076,767.485 229.5,769.5C 230.201,772.983 231.201,776.316 232.5,779.5C 154.833,779.5 77.1667,779.5 -0.5,779.5C -0.5,519.5 -0.5,259.5 -0.5,-0.5 Z"/></g>
<g><path style="opacity:1" fill="#2dc775" d="M 475.5,10.5 C 478.304,9.36216 481.304,9.19549 484.5,10C 492.854,14.0182 499.687,19.8515 505,27.5C 505.884,29.6406 505.384,31.3073 503.5,32.5C 498.016,29.5005 492.683,26.3338 487.5,23C 480.542,21.936 473.542,21.2694 466.5,21C 465.655,19.4419 466.321,18.4419 468.5,18C 474.167,17.3333 479.833,17.3333 485.5,18C 488.991,19.3703 492.325,20.8703 495.5,22.5C 494.857,19.0125 492.857,16.5125 489.5,15C 485.195,12.3396 480.528,10.8396 475.5,10.5 Z"/></g>
<g><path style="opacity:1" fill="#e2f8ed" d="M 496.5,23.5 C 500.713,23.6988 502.046,25.6988 500.5,29.5C 497.929,28.2723 496.595,26.2723 496.5,23.5 Z"/></g>
<g><path style="opacity:1" fill="#29c671" d="M 376.5,66.5 C 375.662,66.1583 375.328,65.4916 375.5,64.5C 382.956,52.5439 392.622,42.7105 404.5,35C 413.588,29.1024 423.421,27.2691 434,29.5C 436.591,29.4347 439.091,28.9347 441.5,28C 445.833,25 450.167,22 454.5,19C 459.753,15.5267 465.419,13.5267 471.5,13C 467.25,15.3742 463.084,17.8742 459,20.5C 458.727,22.1012 458.227,23.6012 457.5,25C 455.167,25.3333 452.833,25.6667 450.5,26C 449.216,29.8115 446.55,31.3115 442.5,30.5C 442.372,32.6547 442.872,34.6547 444,36.5C 445.878,38.0429 447.378,39.8762 448.5,42C 442.559,37.6957 435.892,34.3624 428.5,32C 423.303,31.1332 418.303,31.7998 413.5,34C 398.177,41.4929 385.844,52.3263 376.5,66.5 Z"/></g>
<g><path style="opacity:1" fill="#27c670" d="M 580.5,157.5 C 579.833,159.833 579.167,162.167 578.5,164.5C 574.717,156.216 568.717,150.05 560.5,146C 545.53,142.116 530.864,143.116 516.5,149C 492.692,158.392 471.359,171.559 452.5,188.5C 452.167,188.5 451.833,188.5 451.5,188.5C 462.966,176.1 475.966,165.6 490.5,157C 501.191,152.663 510.858,146.83 519.5,139.5C 520.268,138.737 520.768,137.737 521,136.5C 521.333,138.167 521.667,139.833 522,141.5C 522.671,142.252 523.504,142.586 524.5,142.5C 525.5,142.5 526.5,142.5 527.5,142.5C 527.625,136.797 527.292,131.13 526.5,125.5C 526.802,121.21 526.136,117.21 524.5,113.5C 523.133,106.721 521.8,100.054 520.5,93.5C 520.59,90.8478 519.924,88.5145 518.5,86.5C 516.816,78.8184 514.316,71.4851 511,64.5C 506.94,54.8766 500.44,47.3766 491.5,42C 475.122,36.1265 461.955,40.2931 452,54.5C 445.263,65.3068 439.597,76.6401 435,88.5C 430.112,100.048 427.445,112.048 427,124.5C 426.333,123.833 425.667,123.167 425,122.5C 424.066,110.604 425.9,99.2712 430.5,88.5C 432.277,85.4954 433.277,82.1621 433.5,78.5C 435.704,70.1551 438.037,61.8217 440.5,53.5C 439.21,52.5923 437.877,52.759 436.5,54C 405.484,81.1841 381.651,113.684 365,151.5C 354.806,174.367 350.306,198.367 351.5,223.5C 349.7,217.242 348.867,210.575 349,203.5C 348.517,204.448 348.351,205.448 348.5,206.5C 346.089,206.863 344.589,205.863 344,203.5C 343.536,204.094 343.369,204.761 343.5,205.5C 343.167,205.5 342.833,205.5 342.5,205.5C 338.007,187.511 330.507,170.844 320,155.5C 315.31,149.472 309.477,144.972 302.5,142C 292.975,140.263 285.308,143.263 279.5,151C 301.783,181.067 318.116,214.234 328.5,250.5C 329.39,256.166 331.057,261.5 333.5,266.5C 333.41,269.152 334.076,271.485 335.5,273.5C 335.41,276.152 336.076,278.485 337.5,280.5C 341.885,293.749 344.885,307.415 346.5,321.5C 346.376,327.069 347.043,332.402 348.5,337.5C 348.5,344.167 348.5,350.833 348.5,357.5C 347.698,358.952 347.198,360.618 347,362.5C 346.829,354.656 346.329,346.989 345.5,339.5C 345.376,334.951 344.709,330.618 343.5,326.5C 342.178,320.902 341.178,315.235 340.5,309.5C 340.59,306.848 339.924,304.515 338.5,302.5C 336.785,292.973 334.451,283.639 331.5,274.5C 330.943,269.835 329.61,265.502 327.5,261.5C 318.659,230.482 306.492,200.815 291,172.5C 285.586,163.751 278.753,156.251 270.5,150C 256.682,142.658 245.349,145.492 236.5,158.5C 235.538,156.014 234.705,156.014 234,158.5C 233.617,157.944 233.117,157.611 232.5,157.5C 235.952,150.88 240.952,145.714 247.5,142C 251.5,141.333 255.5,141.333 259.5,142C 265.7,144.442 272.034,146.275 278.5,147.5C 278.312,144.794 277.312,142.461 275.5,140.5C 276.209,139.596 277.209,139.263 278.5,139.5C 280.156,140.146 281.823,140.813 283.5,141.5C 287.875,139.728 292.375,138.395 297,137.5C 301.885,137.846 306.385,139.346 310.5,142C 319.954,149.288 326.954,158.455 331.5,169.5C 331.821,171.048 332.821,171.715 334.5,171.5C 334.5,169.5 334.5,167.5 334.5,165.5C 335.675,161.958 336.341,158.291 336.5,154.5C 338.277,151.495 339.277,148.162 339.5,144.5C 339.949,142.467 340.949,140.8 342.5,139.5C 343.474,137.257 343.808,134.924 343.5,132.5C 345.027,132.573 346.027,131.906 346.5,130.5C 352.811,117.211 359.644,104.211 367,91.5C 380.453,69.0471 398.286,50.8805 420.5,37C 421.833,36.3333 423.167,36.3333 424.5,37C 416.123,44.3792 407.456,51.3792 398.5,58C 395.684,61.7835 392.517,65.2835 389,68.5C 369.589,95.3109 353.256,123.978 340,154.5C 336.909,171.772 338.909,188.439 346,204.5C 347.214,199.495 348.38,194.495 349.5,189.5C 351.04,187.162 351.706,184.495 351.5,181.5C 356.575,158.35 364.742,136.35 376,115.5C 390.586,87.9121 411.086,65.7454 437.5,49C 450.177,45.3286 462.51,40.662 474.5,35C 478.833,34.3333 483.167,34.3333 487.5,35C 494.72,38.888 501.386,43.5547 507.5,49C 508.448,49.4828 509.448,49.6495 510.5,49.5C 510.662,47.4727 510.495,45.4727 510,43.5C 508.186,41.2849 507.686,38.9515 508.5,36.5C 510.624,39.0039 512.29,41.8372 513.5,45C 529.426,41.2623 541.926,46.0956 551,59.5C 557.918,72.338 562.251,86.0047 564,100.5C 564.208,113.195 564.874,125.862 566,138.5C 565.957,144.933 568.79,149.433 574.5,152C 582.5,152.333 590.5,152.667 598.5,153C 592.359,154.185 586.359,155.685 580.5,157.5 Z"/></g>
<g><path style="opacity:1" fill="#fafdfb" d="M 557.5,90.5 C 557.676,93.7273 558.343,96.7273 559.5,99.5C 560.788,111.835 560.622,124.169 559,136.5C 557.865,139.859 555.532,141.192 552,140.5C 548.053,140.242 545.553,138.242 544.5,134.5C 538.855,107.299 533.855,79.9656 529.5,52.5C 528.914,52.7093 528.414,53.0426 528,53.5C 528.864,72.3584 531.364,91.0251 535.5,109.5C 535.41,112.152 536.076,114.485 537.5,116.5C 539.784,123.643 540.784,130.976 540.5,138.5C 538.162,141.139 535.995,140.806 534,137.5C 531.13,125.948 528.797,114.281 527,102.5C 525.942,97.2441 524.442,92.2441 522.5,87.5C 521.943,82.8354 520.61,78.5021 518.5,74.5C 516.902,68.6334 514.735,62.9668 512,57.5C 511.192,55.4213 511.359,53.4213 512.5,51.5C 526.903,45.1283 538.737,48.4616 548,61.5C 553.254,70.4293 556.421,80.096 557.5,90.5 Z"/></g>
<g><path style="opacity:1" fill="#77dba8" d="M 518.5,74.5 C 520.61,78.5021 521.943,82.8354 522.5,87.5C 520.39,83.4979 519.057,79.1646 518.5,74.5 Z"/></g>
<g><path style="opacity:1" fill="#44ce82" d="M 375.5,64.5 C 375.328,65.4916 375.662,66.1583 376.5,66.5C 362.89,86.5935 352.89,107.927 346.5,130.5C 346.027,131.906 345.027,132.573 343.5,132.5C 348.788,107.259 359.455,84.5921 375.5,64.5 Z"/></g>
<g><path style="opacity:1" fill="#79dba9" d="M 433.5,78.5 C 433.277,82.1621 432.277,85.4954 430.5,88.5C 430.723,84.8379 431.723,81.5046 433.5,78.5 Z"/></g>
<g><path style="opacity:1" fill="#aaeaca" d="M 518.5,86.5 C 519.924,88.5145 520.59,90.8478 520.5,93.5C 519.076,91.4855 518.41,89.1522 518.5,86.5 Z"/></g>
<g><path style="opacity:1" fill="#9ae5bf" d="M 557.5,90.5 C 559.118,93.1709 559.785,96.1709 559.5,99.5C 558.343,96.7273 557.676,93.7273 557.5,90.5 Z"/></g>
<g><path style="opacity:1" fill="#3acc7d" d="M 544.5,134.5 C 543.768,133.192 542.934,131.858 542,130.5C 541.817,133.365 541.317,136.031 540.5,138.5C 540.784,130.976 539.784,123.643 537.5,116.5C 537.59,113.848 536.924,111.515 535.5,109.5C 531.364,91.0251 528.864,72.3584 528,53.5C 528.414,53.0426 528.914,52.7093 529.5,52.5C 533.855,79.9656 538.855,107.299 544.5,134.5 Z"/></g>
<g><path style="opacity:1" fill="#91e3ba" d="M 535.5,109.5 C 536.924,111.515 537.59,113.848 537.5,116.5C 536.076,114.485 535.41,112.152 535.5,109.5 Z"/></g>
<g><path style="opacity:1" fill="#3dcc7c" d="M 524.5,142.5 C 523.504,142.586 522.671,142.252 522,141.5C 521.667,139.833 521.333,138.167 521,136.5C 520.768,137.737 520.268,138.737 519.5,139.5C 519.539,136.19 518.206,133.524 515.5,131.5C 514.748,127.808 513.914,124.142 513,120.5C 506.392,106.284 500.059,91.9509 494,77.5C 493.012,74.3619 492.178,71.1952 491.5,68C 491.833,66.8333 492.167,65.6667 492.5,64.5C 498.778,80.3918 505.612,96.0585 513,111.5C 517.332,121.664 521.165,131.997 524.5,142.5 Z"/></g>
<g><path style="opacity:1" fill="#37ca7b" d="M 278.5,139.5 C 277.209,139.263 276.209,139.596 275.5,140.5C 269.278,132.78 261.945,126.28 253.5,121C 245.798,119.516 239.131,121.516 233.5,127C 228.383,130.766 224.883,135.599 223,141.5C 220.969,144.355 218.803,147.022 216.5,149.5C 216.631,148.761 216.464,148.094 216,147.5C 215.329,148.252 214.496,148.586 213.5,148.5C 217.115,143.045 220.948,137.712 225,132.5C 230.676,126.482 237.176,121.649 244.5,118C 248.295,117.163 251.961,117.496 255.5,119C 263.659,125.328 271.325,132.161 278.5,139.5 Z"/></g>
<g><path style="opacity:1" fill="#f7fdfa" d="M 275.5,140.5 C 277.312,142.461 278.312,144.794 278.5,147.5C 272.034,146.275 265.7,144.442 259.5,142C 255.5,141.333 251.5,141.333 247.5,142C 240.952,145.714 235.952,150.88 232.5,157.5C 231.521,159.145 230.188,160.479 228.5,161.5C 225.36,159.527 222.36,157.36 219.5,155C 217.393,153.736 216.393,151.903 216.5,149.5C 218.803,147.022 220.969,144.355 223,141.5C 224.883,135.599 228.383,130.766 233.5,127C 239.131,121.516 245.798,119.516 253.5,121C 261.945,126.28 269.278,132.78 275.5,140.5 Z"/></g>
<g><path style="opacity:1" fill="#7eddad" d="M 524.5,113.5 C 526.136,117.21 526.802,121.21 526.5,125.5C 525.383,121.705 524.717,117.705 524.5,113.5 Z"/></g>
<g><path style="opacity:1" fill="#32c876" d="M 243.5,125.5 C 252.982,124.271 260.982,127.104 267.5,134C 264.071,132.472 260.404,131.139 256.5,130C 250.083,129.13 243.749,129.464 237.5,131C 235.721,133.893 233.388,135.06 230.5,134.5C 234.374,130.738 238.707,127.738 243.5,125.5 Z"/></g>
<g><path style="opacity:1" fill="#5ad394" d="M 423.5,130.5 C 424.693,130.97 425.36,131.97 425.5,133.5C 425.167,134.5 424.833,135.5 424.5,136.5C 423.534,134.604 423.201,132.604 423.5,130.5 Z"/></g>
<g><path style="opacity:1" fill="#5fd69b" d="M 415.5,129.5 C 416.765,130.514 417.431,132.014 417.5,134C 417.167,135.5 416.833,137 416.5,138.5C 415.516,135.572 415.183,132.572 415.5,129.5 Z"/></g>
<g><path style="opacity:1" fill="#f9fdfb" d="M 342.5,205.5 C 342.41,208.152 343.076,210.485 344.5,212.5C 345.29,213.609 345.79,214.942 346,216.5C 346.108,223.911 346.775,231.245 348,238.5C 348.671,239.252 349.504,239.586 350.5,239.5C 350.02,244.822 349.687,250.155 349.5,255.5C 351.292,255.366 352.958,255.699 354.5,256.5C 354.119,269.879 354.619,283.212 356,296.5C 356.368,297.91 357.201,298.91 358.5,299.5C 356.329,288.082 360.329,279.915 370.5,275C 374.594,272.802 378.927,271.302 383.5,270.5C 382.289,269.28 382.289,268.113 383.5,267C 389.153,265.177 394.153,262.344 398.5,258.5C 397.833,258.167 397.167,257.833 396.5,257.5C 384.393,261.793 373.393,267.959 363.5,276C 361.655,277.128 359.655,277.628 357.5,277.5C 357.827,272.309 360.16,268.143 364.5,265C 371.442,259.695 379.109,255.695 387.5,253C 401.052,250.85 412.219,255.017 421,265.5C 421.399,265.272 421.565,264.938 421.5,264.5C 422.922,265.925 424.589,266.925 426.5,267.5C 413.996,269.052 402.329,273.218 391.5,280C 382.888,285.613 374.554,291.613 366.5,298C 362.081,302.016 359.081,306.849 357.5,312.5C 355.45,319.894 354.45,327.56 354.5,335.5C 352.186,355.054 348.686,374.387 344,393.5C 341.565,400.373 338.565,407.04 335,413.5C 333.833,414.667 332.667,415.833 331.5,417C 330.668,417.688 330.002,417.521 329.5,416.5C 336.598,403.212 341.931,389.212 345.5,374.5C 347.074,369.056 348.074,363.389 348.5,357.5C 348.5,350.833 348.5,344.167 348.5,337.5C 348.624,331.931 347.957,326.598 346.5,321.5C 344.885,307.415 341.885,293.749 337.5,280.5C 337.59,277.848 336.924,275.515 335.5,273.5C 335.59,270.848 334.924,268.515 333.5,266.5C 332.61,260.834 330.943,255.5 328.5,250.5C 318.116,214.234 301.783,181.067 279.5,151C 285.308,143.263 292.975,140.263 302.5,142C 309.477,144.972 315.31,149.472 320,155.5C 330.507,170.844 338.007,187.511 342.5,205.5 Z"/></g>
<g><path style="opacity:1" fill="#7cdcab" d="M 339.5,144.5 C 339.277,148.162 338.277,151.495 336.5,154.5C 336.723,150.838 337.723,147.505 339.5,144.5 Z"/></g>
<g><path style="opacity:1" fill="#57d395" d="M 538.5,152.5 C 545.655,151.345 552.988,151.178 560.5,152C 557.207,152.826 553.874,153.326 550.5,153.5C 546.702,152.517 542.702,152.183 538.5,152.5 Z"/></g>
<g><path style="opacity:1" fill="#38cb7b" d="M 204.5,151.5 C 204.611,152.117 204.944,152.617 205.5,153C 209.311,152.917 212.645,153.75 215.5,155.5C 211.035,154.264 206.701,154.264 202.5,155.5C 195.621,158.03 190.121,162.363 186,168.5C 180.475,179.55 174.975,190.55 169.5,201.5C 169.993,199.194 170.326,196.861 170.5,194.5C 173.817,183.533 178.983,173.533 186,164.5C 190.959,158.285 197.126,153.952 204.5,151.5 Z"/></g>
<g><path style="opacity:1" fill="#fafdfc" d="M 215.5,155.5 C 219.22,157.05 222.553,159.217 225.5,162C 209.13,175.564 198.463,192.731 193.5,213.5C 190.854,218.782 189.187,224.448 188.5,230.5C 186.927,236.687 185.594,243.02 184.5,249.5C 183.087,252.219 182.42,255.219 182.5,258.5C 178.295,286.565 178.629,314.565 183.5,342.5C 184.426,352.649 186.092,362.649 188.5,372.5C 188.41,375.152 189.076,377.485 190.5,379.5C 191.434,380.568 191.768,381.901 191.5,383.5C 191.41,386.152 192.076,388.485 193.5,390.5C 195.386,397.83 198.053,404.83 201.5,411.5C 203.977,415.778 206.477,420.112 209,424.5C 209.765,426.066 209.598,427.399 208.5,428.5C 193.642,408.943 182.975,387.277 176.5,363.5C 176.59,360.848 175.924,358.515 174.5,356.5C 174.3,353.37 173.634,350.37 172.5,347.5C 172.59,344.848 171.924,342.515 170.5,340.5C 167.146,321.65 165.48,302.65 165.5,283.5C 166.47,276.341 167.136,269.007 167.5,261.5C 170.508,242.652 174.675,223.986 180,205.5C 183.574,198.011 186.907,190.344 190,182.5C 195.646,174.845 200.479,166.678 204.5,158C 204.164,156.97 203.497,156.47 202.5,156.5C 202.5,156.167 202.5,155.833 202.5,155.5C 206.701,154.264 211.035,154.264 215.5,155.5 Z"/></g>
<g><path style="opacity:1" fill="#43cd86" d="M 597.5,156.5 C 599.604,156.201 601.604,156.534 603.5,157.5C 602.5,157.833 601.5,158.167 600.5,158.5C 598.97,158.36 597.97,157.693 597.5,156.5 Z"/></g>
<g><path style="opacity:1" fill="#1fc46c" d="M 153.5,247.5 C 153.59,244.848 152.924,242.515 151.5,240.5C 151.5,239.833 151.5,239.167 151.5,238.5C 151.59,235.848 150.924,233.515 149.5,231.5C 147.067,217.566 145.067,203.566 143.5,189.5C 143.289,180.8 143.623,172.133 144.5,163.5C 145.234,162.292 145.567,160.959 145.5,159.5C 148.595,159.626 150.428,161.293 151,164.5C 156.964,179.725 162.131,195.225 166.5,211C 164.13,228.832 161.797,246.665 159.5,264.5C 156.717,258.994 154.717,253.327 153.5,247.5 Z"/></g>
<g><path style="opacity:1" fill="#4fd28a" d="M 265.5,160.5 C 268.168,161.457 269.668,163.457 270,166.5C 270.814,168.902 270.647,171.235 269.5,173.5C 267.284,169.41 265.95,165.077 265.5,160.5 Z"/></g>
<g><path style="opacity:1" fill="#9fe6c3" d="M 580.5,157.5 C 580.813,160.247 580.48,162.914 579.5,165.5C 578.893,165.376 578.56,165.043 578.5,164.5C 579.167,162.167 579.833,159.833 580.5,157.5 Z"/></g>
<g><path style="opacity:1" fill="#75dba8" d="M 334.5,165.5 C 334.5,167.5 334.5,169.5 334.5,171.5C 332.821,171.715 331.821,171.048 331.5,169.5C 332.117,169.611 332.617,169.944 333,170.5C 333.198,168.618 333.698,166.952 334.5,165.5 Z"/></g>
<g><path style="opacity:1" fill="#29c671" d="M 538.5,152.5 C 542.702,152.183 546.702,152.517 550.5,153.5C 521.829,156.114 495.996,166.114 473,183.5C 472.781,184.938 472.281,186.271 471.5,187.5C 469.568,186.48 467.568,186.313 465.5,187C 461.168,191.643 456.168,194.977 450.5,197C 474.814,172.343 504.148,157.509 538.5,152.5 Z"/></g>
<g><path style="opacity:1" fill="#40cc7f" d="M 611.5,155.5 C 619.014,154.324 625.181,156.991 630,163.5C 633.863,167.912 635.363,172.912 634.5,178.5C 632.021,171.768 630.354,172.101 629.5,179.5C 626.753,174.584 623.42,170.084 619.5,166C 615.079,164.754 611.079,162.754 607.5,160C 609.5,159.333 611.5,159.333 613.5,160C 618.926,163.129 624.093,166.629 629,170.5C 630.293,166.418 629.126,163.251 625.5,161C 621.086,158.474 616.42,156.641 611.5,155.5 Z"/></g>
<g><path style="opacity:1" fill="#fdfefe" d="M 621.5,190.5 C 625.99,197.795 627.99,205.795 627.5,214.5C 627.304,226.001 625.971,237.334 623.5,248.5C 622.076,250.515 621.41,252.848 621.5,255.5C 608.424,293.323 591.258,329.323 570,363.5C 559.326,377.022 545.826,386.355 529.5,391.5C 526.824,392.008 524.157,392.175 521.5,392C 520.398,389.599 520.231,387.099 521,384.5C 524.311,377.514 528.811,371.347 534.5,366C 531.229,366.726 528.229,368.226 525.5,370.5C 524.955,348.954 524.122,327.287 523,305.5C 518.702,294.878 511.868,286.378 502.5,280C 497.351,278.084 492.017,277.084 486.5,277C 482.428,269.131 478.928,260.964 476,252.5C 474.811,250.767 473.644,249.1 472.5,247.5C 466.058,239.736 457.724,236.569 447.5,238C 445.559,239.903 443.226,240.736 440.5,240.5C 440.34,238.801 440.506,237.134 441,235.5C 453.544,222.307 467.711,211.14 483.5,202C 505.949,188.441 529.949,178.774 555.5,173C 560.5,172.333 565.5,172.333 570.5,173C 557.471,186.363 544.138,199.363 530.5,212C 527.51,214.991 524.01,217.157 520,218.5C 516.762,222.309 514.596,226.642 513.5,231.5C 515.908,232.061 518.241,232.561 520.5,233C 522.888,230.95 524.888,228.616 526.5,226C 526.167,225.5 525.833,225 525.5,224.5C 523.5,225.833 521.5,227.167 519.5,228.5C 518.201,225.566 518.868,223.066 521.5,221C 524.952,220.108 527.952,218.442 530.5,216C 546.544,200.289 564.544,187.289 584.5,177C 599.528,174.183 611.862,178.683 621.5,190.5 Z"/></g>
<g><path style="opacity:1" fill="#7edeaf" d="M 144.5,163.5 C 143.623,172.133 143.289,180.8 143.5,189.5C 142.344,182.011 142.178,174.345 143,166.5C 143.232,165.263 143.732,164.263 144.5,163.5 Z"/></g>
<g><path style="opacity:1" fill="#21c46d" d="M 656.5,394.5 C 655.549,393.081 655.216,391.415 655.5,389.5C 657.167,378.994 653.833,370.494 645.5,364C 635.007,357.255 623.674,352.422 611.5,349.5C 609.793,349.728 608.126,350.062 606.5,350.5C 607.278,347.855 609.278,345.688 612.5,344C 611.944,343.617 611.611,343.117 611.5,342.5C 617.832,335.332 623.998,327.999 630,320.5C 645.923,299.655 656.09,276.322 660.5,250.5C 661.656,242.677 661.823,234.677 661,226.5C 660.434,224.277 659.6,222.277 658.5,220.5C 654.682,211.198 647.682,206.365 637.5,206C 635.59,205.592 634.59,204.425 634.5,202.5C 634.434,200.734 635.268,199.734 637,199.5C 638.274,200.535 639.44,201.702 640.5,203C 644.581,204.471 648.581,206.138 652.5,208C 664.764,219.187 668.93,233.02 665,249.5C 662.275,254.944 661.442,260.61 662.5,266.5C 708.547,242.602 750.88,213.436 789.5,179C 792.987,176.088 796.987,174.588 801.5,174.5C 801.186,177.947 800.352,181.28 799,184.5C 786.99,208.513 771.99,230.513 754,250.5C 717.851,288.663 678.684,323.163 636.5,354C 646.386,359.552 653.886,367.386 659,377.5C 668.399,386.458 679.232,393.291 691.5,398C 695.443,399.61 698.443,402.277 700.5,406C 701.448,406.483 702.448,406.649 703.5,406.5C 703.666,411.179 703.499,415.845 703,420.5C 702.74,422.618 701.74,424.284 700,425.5C 699.891,420.386 699.224,415.386 698,410.5C 688.468,398.492 676.302,390.159 661.5,385.5C 660.018,388.622 658.351,391.622 656.5,394.5 Z"/></g>
<g><path style="opacity:1" fill="#25c56f" d="M 216.5,149.5 C 216.393,151.903 217.393,153.736 219.5,155C 222.36,157.36 225.36,159.527 228.5,161.5C 230.188,160.479 231.521,159.145 232.5,157.5C 233.117,157.611 233.617,157.944 234,158.5C 234.705,156.014 235.538,156.014 236.5,158.5C 234.039,163.632 231.873,168.965 230,174.5C 226.777,202.739 224.944,231.072 224.5,259.5C 223.833,255.167 223.167,250.833 222.5,246.5C 222.667,223.831 222.5,201.164 222,178.5C 221.808,176.423 221.308,174.423 220.5,172.5C 218.142,174.024 216.309,176.024 215,178.5C 203.827,202.852 195.327,228.185 189.5,254.5C 187.882,257.171 187.215,260.171 187.5,263.5C 187.492,266.545 187.159,269.545 186.5,272.5C 185.668,294.33 185.168,316.33 185,338.5C 184.79,340.058 184.29,341.391 183.5,342.5C 178.629,314.565 178.295,286.565 182.5,258.5C 183.913,255.781 184.58,252.781 184.5,249.5C 185.594,243.02 186.927,236.687 188.5,230.5C 190.741,225.1 192.408,219.433 193.5,213.5C 198.463,192.731 209.13,175.564 225.5,162C 222.553,159.217 219.22,157.05 215.5,155.5C 212.645,153.75 209.311,152.917 205.5,153C 204.944,152.617 204.611,152.117 204.5,151.5C 207.792,151.353 210.792,150.353 213.5,148.5C 214.496,148.586 215.329,148.252 216,147.5C 216.464,148.094 216.631,148.761 216.5,149.5 Z"/></g>
<g><path style="opacity:1" fill="#3fcc7e" d="M 202.5,156.5 C 203.497,156.47 204.164,156.97 204.5,158C 200.479,166.678 195.646,174.845 190,182.5C 186.907,190.344 183.574,198.011 180,205.5C 174.675,223.986 170.508,242.652 167.5,261.5C 167.663,259.143 167.497,256.81 167,254.5C 166.768,255.737 166.268,256.737 165.5,257.5C 166.086,251.142 166.92,244.809 168,238.5C 172.868,208.338 184.368,181.005 202.5,156.5 Z"/></g>
<g><path style="opacity:1" fill="#35ca78" d="M 294.5,146.5 C 296.686,147.823 298.186,149.823 299,152.5C 310.906,180.98 323.906,208.98 338,236.5C 341.863,245.754 345.529,255.088 349,264.5C 349.667,266.5 349.667,268.5 349,270.5C 333.907,236.976 318.24,203.643 302,170.5C 300.126,164.303 297.793,158.303 295,152.5C 294.505,150.527 294.338,148.527 294.5,146.5 Z"/></g>
<g><path style="opacity:1" fill="#94e3b9" d="M 635.5,186.5 C 636.5,186.5 637.5,186.5 638.5,186.5C 638.5,189.167 638.5,191.833 638.5,194.5C 637.5,194.5 636.5,194.5 635.5,194.5C 635.5,191.833 635.5,189.167 635.5,186.5 Z"/></g>
<g><path style="opacity:1" fill="#8de2b7" d="M 351.5,181.5 C 351.706,184.495 351.04,187.162 349.5,189.5C 349.565,186.572 350.232,183.905 351.5,181.5 Z"/></g>
<g><path style="opacity:1" fill="#fcfefd" d="M 787.5,187.5 C 789.225,187.843 789.725,188.843 789,190.5C 777.21,211.75 763.21,231.416 747,249.5C 714.123,284.398 678.29,315.565 639.5,343C 637.06,344.303 634.56,345.47 632,346.5C 629.032,344.922 625.865,344.255 622.5,344.5C 622.144,341.436 622.977,338.769 625,336.5C 640.87,319.428 653.203,300.095 662,278.5C 673.248,267.934 686.081,259.767 700.5,254C 702.473,253.505 704.473,253.338 706.5,253.5C 706.081,250.675 707.081,248.509 709.5,247C 732.051,232.558 753.717,216.891 774.5,200C 779.336,196.33 783.669,192.164 787.5,187.5 Z"/></g>
<g><path style="opacity:1" fill="#effbf5" d="M 157.5,225.5 C 156.833,226.833 156.167,228.167 155.5,229.5C 153.01,215.585 151.51,201.585 151,187.5C 158.006,199.2 160.173,211.867 157.5,225.5 Z"/></g>
<g><path style="opacity:1" fill="#b3ebcf" d="M 451.5,188.5 C 451.833,188.5 452.167,188.5 452.5,188.5C 451.188,190.479 449.521,192.145 447.5,193.5C 447.764,191.502 449.097,189.835 451.5,188.5 Z"/></g>
<g><path style="opacity:1" fill="#89e0b5" d="M 170.5,194.5 C 170.326,196.861 169.993,199.194 169.5,201.5C 168.355,199.047 168.688,196.713 170.5,194.5 Z"/></g>
<g><path style="opacity:1" fill="#33c977" d="M 271.5,177.5 C 288.494,195.143 303.327,214.476 316,235.5C 317.301,237.365 317.635,239.365 317,241.5C 313.667,236.833 310.333,232.167 307,227.5C 304.211,224.221 301.211,221.221 298,218.5C 297.667,216.833 297.333,215.167 297,213.5C 288.235,201.617 279.735,189.617 271.5,177.5 Z"/></g>
<g><path style="opacity:1" fill="#24c56e" d="M 351.5,223.5 C 352.451,224.919 352.784,226.585 352.5,228.5C 353.724,235.217 353.557,241.883 352,248.5C 351.819,245.305 351.319,242.305 350.5,239.5C 349.504,239.586 348.671,239.252 348,238.5C 346.775,231.245 346.108,223.911 346,216.5C 345.79,214.942 345.29,213.609 344.5,212.5C 344.326,210.139 343.993,207.806 343.5,205.5C 343.369,204.761 343.536,204.094 344,203.5C 344.589,205.863 346.089,206.863 348.5,206.5C 348.351,205.448 348.517,204.448 349,203.5C 348.867,210.575 349.7,217.242 351.5,223.5 Z"/></g>
<g><path style="opacity:1" fill="#aaeaca" d="M 342.5,205.5 C 342.833,205.5 343.167,205.5 343.5,205.5C 343.993,207.806 344.326,210.139 344.5,212.5C 343.076,210.485 342.41,208.152 342.5,205.5 Z"/></g>
<g><path style="opacity:1" fill="#86dfb1" d="M 193.5,213.5 C 192.408,219.433 190.741,225.1 188.5,230.5C 189.187,224.448 190.854,218.782 193.5,213.5 Z"/></g>
<g><path style="opacity:1" fill="#3bcb7c" d="M 646.5,214.5 C 647.376,214.369 648.043,214.702 648.5,215.5C 645.686,223.081 643.186,230.748 641,238.5C 634.134,269.421 625.467,299.755 615,329.5C 611.224,336.324 609.891,335.991 611,328.5C 615.568,317.803 619.568,306.803 623,295.5C 628.182,273.78 633.182,252.113 638,230.5C 640.067,224.695 642.901,219.362 646.5,214.5 Z"/></g>
<g><path style="opacity:1" fill="#62d79d" d="M 360.5,213.5 C 361.818,216.258 362.485,219.424 362.5,223C 362.167,226.167 361.833,229.333 361.5,232.5C 360.504,226.202 360.17,219.868 360.5,213.5 Z"/></g>
<g><path style="opacity:1" fill="#3ecc7e" d="M 411.5,245.5 C 410.791,244.596 409.791,244.263 408.5,244.5C 415.166,232.504 422.833,221.171 431.5,210.5C 432.521,211.002 432.688,211.668 432,212.5C 425.142,223.564 418.308,234.564 411.5,245.5 Z"/></g>
<g><path style="opacity:1" fill="#a6e8c8" d="M 157.5,225.5 C 157.813,228.247 157.48,230.914 156.5,233.5C 155.571,232.311 155.238,230.978 155.5,229.5C 156.167,228.167 156.833,226.833 157.5,225.5 Z"/></g>
<g><path style="opacity:1" fill="#85e0b3" d="M 380.5,230.5 C 379.833,235.5 379.167,240.5 378.5,245.5C 378.169,238.137 378.503,230.803 379.5,223.5C 380.474,225.743 380.808,228.076 380.5,230.5 Z"/></g>
<g><path style="opacity:1" fill="#25c56f" d="M 622.5,186.5 C 622.768,188.099 622.434,189.432 621.5,190.5C 611.862,178.683 599.528,174.183 584.5,177C 564.544,187.289 546.544,200.289 530.5,216C 527.952,218.442 524.952,220.108 521.5,221C 518.868,223.066 518.201,225.566 519.5,228.5C 521.5,227.167 523.5,225.833 525.5,224.5C 525.833,225 526.167,225.5 526.5,226C 524.888,228.616 522.888,230.95 520.5,233C 518.241,232.561 515.908,232.061 513.5,231.5C 514.596,226.642 516.762,222.309 520,218.5C 524.01,217.157 527.51,214.991 530.5,212C 544.138,199.363 557.471,186.363 570.5,173C 565.5,172.333 560.5,172.333 555.5,173C 529.949,178.774 505.949,188.441 483.5,202C 467.711,211.14 453.544,222.307 441,235.5C 440.506,237.134 440.34,238.801 440.5,240.5C 443.226,240.736 445.559,239.903 447.5,238C 457.724,236.569 466.058,239.736 472.5,247.5C 472.567,248.959 472.234,250.292 471.5,251.5C 469.967,249.645 468.3,247.812 466.5,246C 456.743,242.565 446.743,241.731 436.5,243.5C 429.954,247.025 423.454,250.691 417,254.5C 416.333,255.833 416.333,257.167 417,258.5C 418.332,260.66 419.832,262.66 421.5,264.5C 421.565,264.938 421.399,265.272 421,265.5C 412.219,255.017 401.052,250.85 387.5,253C 379.109,255.695 371.442,259.695 364.5,265C 360.16,268.143 357.827,272.309 357.5,277.5C 359.655,277.628 361.655,277.128 363.5,276C 373.393,267.959 384.393,261.793 396.5,257.5C 397.167,257.833 397.833,258.167 398.5,258.5C 394.153,262.344 389.153,265.177 383.5,267C 382.289,268.113 382.289,269.28 383.5,270.5C 378.927,271.302 374.594,272.802 370.5,275C 360.329,279.915 356.329,288.082 358.5,299.5C 357.201,298.91 356.368,297.91 356,296.5C 354.619,283.212 354.119,269.879 354.5,256.5C 355.169,253.284 356.169,252.951 357.5,255.5C 358.578,257.539 359.578,259.706 360.5,262C 362.489,262.519 363.489,261.686 363.5,259.5C 364.167,255.833 364.833,252.167 365.5,248.5C 366.356,253.029 369.023,255.363 373.5,255.5C 373.5,254.5 373.5,253.5 373.5,252.5C 374.822,252.67 375.989,252.337 377,251.5C 377.191,249.292 377.691,247.292 378.5,245.5C 379.167,240.5 379.833,235.5 380.5,230.5C 381.169,235.847 382.002,241.18 383,246.5C 383.196,248.286 384.029,249.619 385.5,250.5C 386.364,248.803 387.697,247.637 389.5,247C 395.167,246.667 400.833,246.333 406.5,246C 407.044,245.283 407.711,244.783 408.5,244.5C 409.791,244.263 410.791,244.596 411.5,245.5C 410.735,248.096 410.401,250.763 410.5,253.5C 413.016,253.245 415.35,252.411 417.5,251C 432.402,239.102 446.402,226.102 459.5,212C 488.009,187.417 521.009,172.583 558.5,167.5C 573.316,170.56 588.316,172.394 603.5,173C 611.707,175.066 618.041,179.566 622.5,186.5 Z"/></g>
<g><path style="opacity:1" fill="#b8edd3" d="M 658.5,220.5 C 659.6,222.277 660.434,224.277 661,226.5C 661.823,234.677 661.656,242.677 660.5,250.5C 660.96,240.386 660.293,230.386 658.5,220.5 Z"/></g>
<g><path style="opacity:1" fill="#9fe6c3" d="M 149.5,231.5 C 150.924,233.515 151.59,235.848 151.5,238.5C 150.076,236.485 149.41,234.152 149.5,231.5 Z"/></g>
<g><path style="opacity:1" fill="#43d082" d="M 607.5,284.5 C 606.504,269.676 606.171,254.676 606.5,239.5C 606.97,228.8 607.803,218.133 609,207.5C 617.224,195.386 618.224,196.052 612,209.5C 611.667,211.833 611.333,214.167 611,216.5C 610.013,239.232 608.846,261.899 607.5,284.5 Z"/></g>
<g><path style="opacity:1" fill="#47cd82" d="M 352.5,228.5 C 354.269,237.353 355.935,246.353 357.5,255.5C 356.169,252.951 355.169,253.284 354.5,256.5C 352.958,255.699 351.292,255.366 349.5,255.5C 349.687,250.155 350.02,244.822 350.5,239.5C 351.319,242.305 351.819,245.305 352,248.5C 353.557,241.883 353.724,235.217 352.5,228.5 Z"/></g>
<g><path style="opacity:1" fill="#aceacb" d="M 151.5,240.5 C 152.924,242.515 153.59,244.848 153.5,247.5C 152.076,245.485 151.41,243.152 151.5,240.5 Z"/></g>
<g><path style="opacity:1" fill="#37c979" d="M 452.5,247.5 C 460.103,248.139 466.103,251.639 470.5,258C 469.833,258.667 469.167,258.667 468.5,258C 464.533,253.507 459.533,251.007 453.5,250.5C 452.614,249.675 452.281,248.675 452.5,247.5 Z"/></g>
<g><path style="opacity:1" fill="#9ae5c1" d="M 365.5,248.5 C 364.833,252.167 364.167,255.833 363.5,259.5C 363.334,254.156 363.501,248.823 364,243.5C 365.269,244.905 365.769,246.571 365.5,248.5 Z"/></g>
<g><path style="opacity:1" fill="#88e1b5" d="M 222.5,246.5 C 223.167,250.833 223.833,255.167 224.5,259.5C 224.44,260.043 224.107,260.376 223.5,260.5C 222.507,255.88 222.173,251.214 222.5,246.5 Z"/></g>
<g><path style="opacity:1" fill="#73daa5" d="M 328.5,250.5 C 330.943,255.5 332.61,260.834 333.5,266.5C 331.057,261.5 329.39,256.166 328.5,250.5 Z"/></g>
<g><path style="opacity:1" fill="#65d69b" d="M 229.5,250.5 C 230.765,251.514 231.431,253.014 231.5,255C 231.577,257.051 231.077,258.884 230,260.5C 229.502,257.183 229.335,253.85 229.5,250.5 Z"/></g>
<g><path style="opacity:1" fill="#7cddac" d="M 623.5,248.5 C 623.59,251.152 622.924,253.485 621.5,255.5C 621.41,252.848 622.076,250.515 623.5,248.5 Z"/></g>
<g><path style="opacity:1" fill="#87e0b3" d="M 184.5,249.5 C 184.58,252.781 183.913,255.781 182.5,258.5C 182.42,255.219 183.087,252.219 184.5,249.5 Z"/></g>
<g><path style="opacity:1" fill="#9de6c3" d="M 606.5,239.5 C 606.171,254.676 606.504,269.676 607.5,284.5C 607.44,285.043 607.107,285.376 606.5,285.5C 605.174,270.005 605.174,254.672 606.5,239.5 Z"/></g>
<g><path style="opacity:1" fill="#85dfb2" d="M 189.5,254.5 C 189.58,257.781 188.913,260.781 187.5,263.5C 187.215,260.171 187.882,257.171 189.5,254.5 Z"/></g>
<g><path style="opacity:1" fill="#aae9c9" d="M 327.5,261.5 C 329.61,265.502 330.943,269.835 331.5,274.5C 329.39,270.498 328.057,266.165 327.5,261.5 Z"/></g>
<g><path style="opacity:1" fill="#2dc773" d="M 487.5,377.5 C 486.532,379.607 486.198,381.941 486.5,384.5C 485.5,384.5 484.5,384.5 483.5,384.5C 483.5,383.167 483.5,381.833 483.5,380.5C 485.448,362.915 485.948,345.248 485,327.5C 484.023,319.027 482.523,310.694 480.5,302.5C 480.277,298.838 479.277,295.505 477.5,292.5C 475.872,287.91 473.705,283.577 471,279.5C 456.07,264.094 440.57,263.594 424.5,278C 411.946,292.946 401.28,309.113 392.5,326.5C 391.596,325.791 391.263,324.791 391.5,323.5C 398.253,307.246 405.586,291.246 413.5,275.5C 409.895,275.799 406.561,276.965 403.5,279C 386.812,289.521 372.146,302.354 359.5,317.5C 358.883,317.611 358.383,317.944 358,318.5C 357.505,316.527 357.338,314.527 357.5,312.5C 359.081,306.849 362.081,302.016 366.5,298C 374.554,291.613 382.888,285.613 391.5,280C 402.329,273.218 413.996,269.052 426.5,267.5C 433.51,265.776 440.51,263.942 447.5,262C 460.557,263.964 470.391,270.797 477,282.5C 483.636,296.045 487.303,310.379 488,325.5C 488.762,342.854 488.595,360.187 487.5,377.5 Z"/></g>
<g><path style="opacity:1" fill="#6fd9a3" d="M 333.5,266.5 C 334.924,268.515 335.59,270.848 335.5,273.5C 334.076,271.485 333.41,269.152 333.5,266.5 Z"/></g>
<g><path style="opacity:1" fill="#a3e7c4" d="M 478.5,267.5 C 480.692,271.098 481.692,275.098 481.5,279.5C 480.132,275.702 479.132,271.702 478.5,267.5 Z"/></g>
<g><path style="opacity:1" fill="#71daa4" d="M 335.5,273.5 C 336.924,275.515 337.59,277.848 337.5,280.5C 336.076,278.485 335.41,276.152 335.5,273.5 Z"/></g>
<g><path style="opacity:1" fill="#4ad084" d="M 167.5,261.5 C 167.136,269.007 166.47,276.341 165.5,283.5C 164.977,294.092 163.977,304.759 162.5,315.5C 160.713,296.041 161.713,276.707 165.5,257.5C 166.268,256.737 166.768,255.737 167,254.5C 167.497,256.81 167.663,259.143 167.5,261.5 Z"/></g>
<g><path style="opacity:1" fill="#32c978" d="M 472.5,247.5 C 473.644,249.1 474.811,250.767 476,252.5C 478.928,260.964 482.428,269.131 486.5,277C 492.017,277.084 497.351,278.084 502.5,280C 511.868,286.378 518.702,294.878 523,305.5C 524.122,327.287 524.955,348.954 525.5,370.5C 525.44,371.043 525.107,371.376 524.5,371.5C 523.667,351.508 523.167,331.508 523,311.5C 521.978,326.642 521.145,341.642 520.5,356.5C 520.5,344.167 520.5,331.833 520.5,319.5C 520.698,314.25 520.031,309.25 518.5,304.5C 513.028,287.745 501.361,279.912 483.5,281C 482.584,280.722 481.918,280.222 481.5,279.5C 481.692,275.098 480.692,271.098 478.5,267.5C 476.722,261.943 474.389,256.609 471.5,251.5C 472.234,250.292 472.567,248.959 472.5,247.5 Z"/></g>
<g><path style="opacity:1" fill="#6fdaa4" d="M 463.5,300.5 C 462.676,296.688 462.176,292.688 462,288.5C 460.734,292.395 460.234,296.395 460.5,300.5C 459.357,297.024 459.19,293.358 460,289.5C 460.583,287.998 461.416,286.665 462.5,285.5C 463.494,290.456 463.827,295.456 463.5,300.5 Z"/></g>
<g><path style="opacity:1" fill="#51d393" d="M 496.5,288.5 C 495.507,296.984 495.174,305.651 495.5,314.5C 494.178,305.658 494.178,296.658 495.5,287.5C 496.107,287.624 496.44,287.957 496.5,288.5 Z"/></g>
<g><path style="opacity:1" fill="#a9e9c9" d="M 477.5,292.5 C 479.277,295.505 480.277,298.838 480.5,302.5C 478.723,299.495 477.723,296.162 477.5,292.5 Z"/></g>
<g><path style="opacity:1" fill="#a3e8c6" d="M 338.5,302.5 C 339.924,304.515 340.59,306.848 340.5,309.5C 339.076,307.485 338.41,305.152 338.5,302.5 Z"/></g>
<g><path style="opacity:1" fill="#3ccd7d" d="M 463.5,300.5 C 466.183,312.566 469.183,324.566 472.5,336.5C 472.41,339.152 473.076,341.485 474.5,343.5C 477.462,353.223 479.795,363.223 481.5,373.5C 481.167,374.167 480.833,374.833 480.5,375.5C 479.757,374.092 478.923,372.759 478,371.5C 472.052,347.83 466.219,324.163 460.5,300.5C 460.234,296.395 460.734,292.395 462,288.5C 462.176,292.688 462.676,296.688 463.5,300.5 Z"/></g>
<g><path style="opacity:1" fill="#8de2b8" d="M 518.5,304.5 C 520.031,309.25 520.698,314.25 520.5,319.5C 519.111,314.731 518.444,309.731 518.5,304.5 Z"/></g>
<g><path style="opacity:1" fill="#93e4bc" d="M 323.5,319.5 C 322.517,323.298 322.183,327.298 322.5,331.5C 321.189,327.317 321.189,322.984 322.5,318.5C 323.107,318.624 323.44,318.957 323.5,319.5 Z"/></g>
<g><path style="opacity:1" fill="#37cc7a" d="M 496.5,288.5 C 497.185,290.414 497.685,292.414 498,294.5C 498.5,304.494 498.666,314.494 498.5,324.5C 498.32,339.028 498.987,353.361 500.5,367.5C 501.661,381.994 501.828,396.661 501,411.5C 500.418,414.668 499.418,415.001 498,412.5C 497.886,379.804 497.053,347.137 495.5,314.5C 495.174,305.651 495.507,296.984 496.5,288.5 Z"/></g>
<g><path style="opacity:1" fill="#5bd493" d="M 391.5,323.5 C 391.263,324.791 391.596,325.791 392.5,326.5C 390.945,329.94 389.112,333.273 387,336.5C 387.37,331.764 388.87,327.431 391.5,323.5 Z"/></g>
<g><path style="opacity:1" fill="#5dd495" d="M 357.5,312.5 C 357.338,314.527 357.505,316.527 358,318.5C 358.383,317.944 358.883,317.611 359.5,317.5C 359.539,318.756 359.039,319.756 358,320.5C 357.829,329.01 357.329,337.343 356.5,345.5C 356.666,340.489 356.499,335.489 356,330.5C 355.802,332.382 355.302,334.048 354.5,335.5C 354.45,327.56 355.45,319.894 357.5,312.5 Z"/></g>
<g><path style="opacity:1" fill="#73daa6" d="M 346.5,321.5 C 347.957,326.598 348.624,331.931 348.5,337.5C 347.043,332.402 346.376,327.069 346.5,321.5 Z"/></g>
<g><path style="opacity:1" fill="#54d28e" d="M 298.5,351.5 C 297.566,346.661 296.732,341.661 296,336.5C 295.506,338.134 295.34,339.801 295.5,341.5C 294.516,334.742 293.182,327.908 291.5,321C 291.833,320.5 292.167,320 292.5,319.5C 297.001,329.667 299.001,340.334 298.5,351.5 Z"/></g>
<g><path style="opacity:1" fill="#0fd06f" d="M 323.5,319.5 C 323.5,320.167 323.5,320.833 323.5,321.5C 324.324,337.486 324.657,353.486 324.5,369.5C 323.833,358.5 323.167,347.5 322.5,336.5C 322.5,334.833 322.5,333.167 322.5,331.5C 322.183,327.298 322.517,323.298 323.5,319.5 Z"/></g>
<g><path style="opacity:1" fill="#4fcf8b" d="M 250.5,336.5 C 251.725,337.152 252.392,338.319 252.5,340C 252.167,341.167 251.833,342.333 251.5,343.5C 250.526,341.257 250.192,338.924 250.5,336.5 Z"/></g>
<g><path style="opacity:1" fill="#6fd9a3" d="M 472.5,336.5 C 473.924,338.515 474.59,340.848 474.5,343.5C 473.076,341.485 472.41,339.152 472.5,336.5 Z"/></g>
<g><path style="opacity:1" fill="#b7edd2" d="M 343.5,326.5 C 344.709,330.618 345.376,334.951 345.5,339.5C 345.5,340.5 345.5,341.5 345.5,342.5C 344.043,337.402 343.376,332.069 343.5,326.5 Z"/></g>
<g><path style="opacity:1" fill="#32ca77" d="M 165.5,283.5 C 165.48,302.65 167.146,321.65 170.5,340.5C 170.41,343.152 171.076,345.485 172.5,347.5C 173.634,350.37 174.3,353.37 174.5,356.5C 174.41,359.152 175.076,361.485 176.5,363.5C 182.975,387.277 193.642,408.943 208.5,428.5C 208.062,428.435 207.728,428.601 207.5,429C 209.863,429.589 210.863,431.089 210.5,433.5C 194.133,415.426 182.466,394.76 175.5,371.5C 175.277,367.838 174.277,364.505 172.5,361.5C 172.606,358.921 171.939,356.588 170.5,354.5C 170.59,351.848 169.924,349.515 168.5,347.5C 166.284,336.867 164.284,326.2 162.5,315.5C 163.977,304.759 164.977,294.092 165.5,283.5 Z"/></g>
<g><path style="opacity:1" fill="#5bd394" d="M 213.5,340.5 C 214.693,340.97 215.36,341.97 215.5,343.5C 215.167,344.5 214.833,345.5 214.5,346.5C 213.534,344.604 213.201,342.604 213.5,340.5 Z"/></g>
<g><path style="opacity:1" fill="#64d79f" d="M 323.5,321.5 C 325.055,330.444 325.722,339.611 325.5,349C 325.5,356.008 325.166,362.842 324.5,369.5C 324.657,353.486 324.324,337.486 323.5,321.5 Z"/></g>
<g><path style="opacity:1" fill="#76dca9" d="M 170.5,340.5 C 171.924,342.515 172.59,344.848 172.5,347.5C 171.076,345.485 170.41,343.152 170.5,340.5 Z"/></g>
<g><path style="opacity:1" fill="#53d18d" d="M 378.5,344.5 C 379.725,345.152 380.392,346.319 380.5,348C 380.167,349.167 379.833,350.333 379.5,351.5C 378.526,349.257 378.192,346.924 378.5,344.5 Z"/></g>
<g><path style="opacity:1" fill="#44ce82" d="M 386.5,345.5 C 387.5,345.5 388.5,345.5 389.5,345.5C 388.203,350.093 385.87,354.093 382.5,357.5C 382.167,357.167 381.833,356.833 381.5,356.5C 383.359,352.923 385.026,349.256 386.5,345.5 Z"/></g>
<g><path style="opacity:1" fill="#fafdfb" d="M 655.5,389.5 C 654.232,391.905 653.565,394.572 653.5,397.5C 632.675,382.67 609.341,375.003 583.5,374.5C 583.082,373.778 582.416,373.278 581.5,373C 590.352,365.976 598.686,358.476 606.5,350.5C 608.126,350.062 609.793,349.728 611.5,349.5C 623.674,352.422 635.007,357.255 645.5,364C 653.833,370.494 657.167,378.994 655.5,389.5 Z"/></g>
<g><path style="opacity:1" fill="#b1ebce" d="M 168.5,347.5 C 169.924,349.515 170.59,351.848 170.5,354.5C 169.076,352.485 168.41,350.152 168.5,347.5 Z"/></g>
<g><path style="opacity:1" fill="#6ed9a2" d="M 174.5,356.5 C 175.924,358.515 176.59,360.848 176.5,363.5C 175.076,361.485 174.41,359.152 174.5,356.5 Z"/></g>
<g><path style="opacity:1" fill="#1bc46b" d="M 525.5,370.5 C 528.229,368.226 531.229,366.726 534.5,366C 528.811,371.347 524.311,377.514 521,384.5C 520.231,387.099 520.398,389.599 521.5,392C 524.157,392.175 526.824,392.008 529.5,391.5C 531.048,391.821 531.715,392.821 531.5,394.5C 526.028,397.704 520.028,399.371 513.5,399.5C 515.099,389.903 516.265,380.236 517,370.5C 519.549,366.228 520.716,361.561 520.5,356.5C 521.145,341.642 521.978,326.642 523,311.5C 523.167,331.508 523.667,351.508 524.5,371.5C 525.107,371.376 525.44,371.043 525.5,370.5 Z"/></g>
<g><path style="opacity:1" fill="#2ec774" d="M 622.5,186.5 C 626.836,191.991 629.336,198.324 630,205.5C 631.395,225.942 629.062,245.942 623,265.5C 610.532,303.767 592.198,339.1 568,371.5C 557.335,381.581 545.168,389.248 531.5,394.5C 531.715,392.821 531.048,391.821 529.5,391.5C 545.826,386.355 559.326,377.022 570,363.5C 591.258,329.323 608.424,293.323 621.5,255.5C 622.924,253.485 623.59,251.152 623.5,248.5C 625.971,237.334 627.304,226.001 627.5,214.5C 627.99,205.795 625.99,197.795 621.5,190.5C 622.434,189.432 622.768,188.099 622.5,186.5 Z"/></g>
<g><path style="opacity:1" fill="#57d390" d="M 345.5,339.5 C 346.329,346.989 346.829,354.656 347,362.5C 347.198,360.618 347.698,358.952 348.5,357.5C 348.074,363.389 347.074,369.056 345.5,374.5C 345.843,372.517 345.176,371.183 343.5,370.5C 345.228,361.298 345.895,351.965 345.5,342.5C 345.5,341.5 345.5,340.5 345.5,339.5 Z"/></g>
<g><path style="opacity:1" fill="#a9e9c8" d="M 172.5,361.5 C 174.277,364.505 175.277,367.838 175.5,371.5C 173.723,368.495 172.723,365.162 172.5,361.5 Z"/></g>
<g><path style="opacity:1" fill="#6ed9a3" d="M 498.5,324.5 C 499.965,338.641 500.632,352.975 500.5,367.5C 498.987,353.361 498.32,339.028 498.5,324.5 Z"/></g>
<g><path style="opacity:1" fill="#3ccb7d" d="M 611.5,342.5 C 611.611,343.117 611.944,343.617 612.5,344C 609.278,345.688 607.278,347.855 606.5,350.5C 598.686,358.476 590.352,365.976 581.5,373C 582.416,373.278 583.082,373.778 583.5,374.5C 581.446,374.635 579.779,373.968 578.5,372.5C 590.073,363.267 601.073,353.267 611.5,342.5 Z"/></g>
<g><path style="opacity:1" fill="#48ce82" d="M 186.5,272.5 C 186.333,292.169 186.5,311.836 187,331.5C 188.283,357.63 194.117,382.63 204.5,406.5C 202.887,406.056 201.72,405.056 201,403.5C 201.083,406.119 201.25,408.786 201.5,411.5C 198.053,404.83 195.386,397.83 193.5,390.5C 193.59,387.848 192.924,385.515 191.5,383.5C 191.768,381.901 191.434,380.568 190.5,379.5C 190.59,376.848 189.924,374.515 188.5,372.5C 186.092,362.649 184.426,352.649 183.5,342.5C 184.29,341.391 184.79,340.058 185,338.5C 185.168,316.33 185.668,294.33 186.5,272.5 Z"/></g>
<g><path style="opacity:1" fill="#22c56f" d="M 605.5,356.5 C 620.737,359.791 635.071,365.291 648.5,373C 646.728,374.487 644.728,374.82 642.5,374C 632.542,368.857 622.209,364.523 611.5,361C 608.823,360.186 606.823,358.686 605.5,356.5 Z"/></g>
<g><path style="opacity:1" fill="#1ec36c" d="M 578.5,372.5 C 579.779,373.968 581.446,374.635 583.5,374.5C 609.341,375.003 632.675,382.67 653.5,397.5C 654.222,397.082 654.722,396.416 655,395.5C 655.186,398.036 655.686,400.369 656.5,402.5C 662.221,405.384 667.555,408.884 672.5,413C 679.993,419.144 683.159,426.977 682,436.5C 679.748,441.409 679.248,446.409 680.5,451.5C 678.646,450.759 676.979,449.759 675.5,448.5C 681.247,431.174 676.247,418.007 660.5,409C 634.411,404.841 608.744,406.841 583.5,415C 580.833,415.667 578.167,415.667 575.5,415C 576.563,413.812 577.897,413.312 579.5,413.5C 579.5,412.167 579.5,410.833 579.5,409.5C 598.172,407.416 616.505,403.583 634.5,398C 642.435,395.781 642.435,393.447 634.5,391C 612.937,383.679 590.937,380.845 568.5,382.5C 567.209,382.737 566.209,382.404 565.5,381.5C 569.553,378.117 573.886,375.117 578.5,372.5 Z"/></g>
<g><path style="opacity:1" fill="#a5e8c6" d="M 188.5,372.5 C 189.924,374.515 190.59,376.848 190.5,379.5C 189.076,377.485 188.41,375.152 188.5,372.5 Z"/></g>
<g><path style="opacity:1" fill="#4fd088" d="M 487.5,377.5 C 487.603,384.386 486.936,391.053 485.5,397.5C 484.691,395.708 484.191,393.708 484,391.5C 483.015,393.175 482.181,394.842 481.5,396.5C 481.527,390.949 482.194,385.616 483.5,380.5C 483.5,381.833 483.5,383.167 483.5,384.5C 484.5,384.5 485.5,384.5 486.5,384.5C 486.198,381.941 486.532,379.607 487.5,377.5 Z"/></g>
<g><path style="opacity:1" fill="#a2e7c4" d="M 191.5,383.5 C 192.924,385.515 193.59,387.848 193.5,390.5C 192.076,388.485 191.41,386.152 191.5,383.5 Z"/></g>
<g><path style="opacity:1" fill="#43cf83" d="M 266.5,423.5 C 266.631,424.239 266.464,424.906 266,425.5C 265.722,424.584 265.222,423.918 264.5,423.5C 260.5,400.169 256.5,376.836 252.5,353.5C 252.833,352.833 253.167,352.167 253.5,351.5C 259.873,375.104 264.206,399.104 266.5,423.5 Z"/></g>
<g><path style="opacity:1" fill="#32c977" d="M 565.5,381.5 C 566.209,382.404 567.209,382.737 568.5,382.5C 551.192,393.555 532.692,402.222 513,408.5C 505.434,426.532 497.101,444.198 488,461.5C 487.51,462.793 487.343,464.127 487.5,465.5C 489.06,465.481 490.56,465.148 492,464.5C 493.257,464.85 493.591,465.517 493,466.5C 490.734,467.956 488.234,468.79 485.5,469C 476.621,476.599 471.288,486.099 469.5,497.5C 468.127,497.343 466.793,497.51 465.5,498C 456.833,506 448.167,514 439.5,522C 438.123,523.241 436.79,523.408 435.5,522.5C 439.518,517.648 444.018,513.315 449,509.5C 476.437,478.622 496.271,443.622 508.5,404.5C 506.684,399.471 507.684,398.637 511.5,402C 516.239,402.726 520.905,402.393 525.5,401C 539.561,395.802 552.894,389.302 565.5,381.5 Z"/></g>
<g><path style="opacity:1" fill="#40ce81" d="M 298.5,351.5 C 299.932,370.383 299.599,389.383 297.5,408.5C 296.71,409.609 296.21,410.942 296,412.5C 295.502,409.183 295.335,405.85 295.5,402.5C 296.536,382.192 296.536,361.858 295.5,341.5C 295.34,339.801 295.506,338.134 296,336.5C 296.732,341.661 297.566,346.661 298.5,351.5 Z"/></g>
<g><path style="opacity:1" fill="#7bdca8" d="M 655.5,389.5 C 655.216,391.415 655.549,393.081 656.5,394.5C 656.5,397.167 656.5,399.833 656.5,402.5C 655.686,400.369 655.186,398.036 655,395.5C 654.722,396.416 654.222,397.082 653.5,397.5C 653.565,394.572 654.232,391.905 655.5,389.5 Z"/></g>
<g><path style="opacity:1" fill="#3ecc7e" d="M 356.5,345.5 C 355.36,362.342 351.86,378.675 346,394.5C 342.034,405.106 336.534,414.772 329.5,423.5C 328.662,423.158 328.328,422.492 328.5,421.5C 327.749,420.427 326.749,420.26 325.5,421C 323.759,422.62 321.925,424.12 320,425.5C 319.833,425 319.667,424.5 319.5,424C 324.382,416.772 328.882,409.272 333,401.5C 336.433,391.032 339.933,380.699 343.5,370.5C 345.176,371.183 345.843,372.517 345.5,374.5C 341.931,389.212 336.598,403.212 329.5,416.5C 330.002,417.521 330.668,417.688 331.5,417C 332.667,415.833 333.833,414.667 335,413.5C 338.565,407.04 341.565,400.373 344,393.5C 348.686,374.387 352.186,355.054 354.5,335.5C 355.302,334.048 355.802,332.382 356,330.5C 356.499,335.489 356.666,340.489 356.5,345.5 Z"/></g>
<g><path style="opacity:1" fill="#2bc773" d="M 485.5,397.5 C 484.235,418.057 480.568,438.057 474.5,457.5C 474.77,454.143 474.104,451.809 472.5,450.5C 474.832,436.511 477.165,422.511 479.5,408.5C 481.217,405.155 481.884,401.489 481.5,397.5C 481.5,397.167 481.5,396.833 481.5,396.5C 482.181,394.842 483.015,393.175 484,391.5C 484.191,393.708 484.691,395.708 485.5,397.5 Z"/></g>
<g><path style="opacity:1" fill="#2dc977" d="M 680.5,398.5 C 691.494,405.033 695.994,414.7 694,427.5C 693.581,428.672 692.915,429.672 692,430.5C 691.667,425.167 691.333,419.833 691,414.5C 689.807,412.395 688.14,410.728 686,409.5C 685.506,407.866 685.34,406.199 685.5,404.5C 683.833,404.5 682.167,404.5 680.5,404.5C 680.5,402.5 680.5,400.5 680.5,398.5 Z"/></g>
<g><path style="opacity:1" fill="#76dba6" d="M 481.5,397.5 C 481.884,401.489 481.217,405.155 479.5,408.5C 479.646,404.613 480.313,400.946 481.5,397.5 Z"/></g>
<g><path style="opacity:1" fill="#4fd08b" d="M 565.5,413.5 C 567.927,414.279 567.927,415.446 565.5,417C 562.299,419.267 558.966,420.934 555.5,422C 559.025,419.302 562.358,416.469 565.5,413.5 Z"/></g>
<g><path style="opacity:1" fill="#4ad086" d="M 215.5,355.5 C 216.75,355.577 217.583,356.244 218,357.5C 225.846,383.417 236.179,408.083 249,431.5C 241.812,422.629 235.812,412.963 231,402.5C 226.611,392.001 222.611,381.334 219,370.5C 217.725,365.513 216.559,360.513 215.5,355.5 Z"/></g>
<g><path style="opacity:1" fill="#4ed088" d="M 322.5,336.5 C 323.167,347.5 323.833,358.5 324.5,369.5C 324.91,389.075 322.243,408.075 316.5,426.5C 316.778,424.654 316.111,423.32 314.5,422.5C 313.289,423.274 313.289,424.107 314.5,425C 313.473,425.513 312.473,426.013 311.5,426.5C 321.159,397.308 324.826,367.308 322.5,336.5 Z"/></g>
<g><path style="opacity:1" fill="#8ae1b6" d="M 328.5,421.5 C 328.328,422.492 328.662,423.158 329.5,423.5C 328.438,425.757 326.772,426.923 324.5,427C 325.977,425.188 327.31,423.355 328.5,421.5 Z"/></g>
<g><path style="opacity:1" fill="#3dca7d" d="M 563.5,421.5 C 568.322,421.561 568.655,422.727 564.5,425C 559.573,425.324 559.24,424.158 563.5,421.5 Z"/></g>
<g><path style="opacity:1" fill="#43ce82" d="M 199.5,363.5 C 201.074,363.937 202.241,364.937 203,366.5C 209.866,382.566 217.533,398.233 226,413.5C 231.588,422.256 237.755,430.589 244.5,438.5C 244.167,438.833 243.833,439.167 243.5,439.5C 241.183,437.684 239.016,435.684 237,433.5C 221.103,412.042 208.603,388.709 199.5,363.5 Z"/></g>
<g><path style="opacity:1" fill="#8de2b8" d="M 264.5,423.5 C 265.222,423.918 265.722,424.584 266,425.5C 266.464,424.906 266.631,424.239 266.5,423.5C 267.803,426.355 267.803,429.355 266.5,432.5C 265.511,429.562 264.844,426.562 264.5,423.5 Z"/></g>
<g><path style="opacity:1" fill="#50d18a" d="M 295.5,402.5 C 295.335,405.85 295.502,409.183 296,412.5C 296.21,410.942 296.71,409.609 297.5,408.5C 295.655,418.654 293.655,428.654 291.5,438.5C 291.631,437.624 291.298,436.957 290.5,436.5C 289.712,437.77 288.712,438.77 287.5,439.5C 291.722,427.383 294.388,415.049 295.5,402.5 Z"/></g>
<g><path style="opacity:1" fill="#5bd599" d="M 331.5,428.5 C 332.765,429.514 333.431,431.014 333.5,433C 333.167,434.5 332.833,436 332.5,437.5C 331.516,434.572 331.183,431.572 331.5,428.5 Z"/></g>
<g><path style="opacity:1" fill="#32cd79" d="M 423.5,435.5 C 423.076,439.012 422.076,442.345 420.5,445.5C 419.624,445.631 418.957,445.298 418.5,444.5C 420.099,440.204 421.599,435.871 423,431.5C 423.49,432.793 423.657,434.127 423.5,435.5 Z"/></g>
<g><path style="opacity:1" fill="#fbfefc" d="M 250.5,447.5 C 253.625,448.479 256.958,448.813 260.5,448.5C 260.5,456.167 260.5,463.833 260.5,471.5C 259.701,489.339 259.035,507.339 258.5,525.5C 257.171,550.003 257.171,574.67 258.5,599.5C 259.452,597.955 259.785,596.288 259.5,594.5C 261.165,570.2 262.165,545.867 262.5,521.5C 264.294,503.018 265.627,484.352 266.5,465.5C 266.704,462.482 267.037,459.482 267.5,456.5C 268.833,456.5 270.167,456.5 271.5,456.5C 271.5,506.833 271.5,557.167 271.5,607.5C 271.237,629.021 271.904,650.354 273.5,671.5C 273.599,680.844 273.932,690.177 274.5,699.5C 274.973,726.213 274.306,752.879 272.5,779.5C 260.833,779.5 249.167,779.5 237.5,779.5C 236.166,774.162 234.833,768.829 233.5,763.5C 233.59,760.848 232.924,758.515 231.5,756.5C 231.5,755.833 231.5,755.167 231.5,754.5C 231.59,751.848 230.924,749.515 229.5,747.5C 227.693,720.868 227.193,694.201 228,667.5C 232.531,616.52 236.865,565.52 241,514.5C 241.667,504.833 241.667,495.167 241,485.5C 239.117,484.347 238.284,482.681 238.5,480.5C 238.666,474.491 238.499,468.491 238,462.5C 237.768,461.263 237.268,460.263 236.5,459.5C 235.74,455.919 235.24,452.252 235,448.5C 234.167,447.667 233.333,446.833 232.5,446C 238.364,447.155 244.364,447.655 250.5,447.5 Z"/></g>
<g><path style="opacity:1" fill="#6bd9a2" d="M 313.5,441.5 C 314.809,443.571 315.475,446.071 315.5,449C 315.167,451.5 314.833,454 314.5,456.5C 313.506,451.544 313.173,446.544 313.5,441.5 Z"/></g>
<g><path style="opacity:1" fill="#36ca79" d="M 695.5,469.5 C 695.647,474.214 695.314,478.881 694.5,483.5C 694.477,485.927 693.977,488.26 693,490.5C 687.101,500.231 679.934,508.897 671.5,516.5C 671.737,515.209 671.404,514.209 670.5,513.5C 679.715,505.779 686.882,496.446 692,485.5C 695.356,473.361 692.189,463.195 682.5,455C 680.956,453.813 679.289,453.48 677.5,454C 672.613,459.886 668.113,466.053 664,472.5C 658.996,478.67 653.496,484.337 647.5,489.5C 647.768,487.901 647.434,486.568 646.5,485.5C 651.797,479.702 657.297,474.035 663,468.5C 667.941,462.277 672.108,455.61 675.5,448.5C 676.979,449.759 678.646,450.759 680.5,451.5C 683.056,450.457 685.223,448.79 687,446.5C 690,441.833 693,437.167 696,432.5C 696.893,431.289 697.726,431.289 698.5,432.5C 694.535,439.603 690.202,446.437 685.5,453C 689.935,457.912 693.268,463.412 695.5,469.5 Z"/></g>
<g><path style="opacity:1" fill="#a3e7c5" d="M 228.5,447.5 C 230.277,450.505 231.277,453.838 231.5,457.5C 229.723,454.495 228.723,451.162 228.5,447.5 Z"/></g>
<g><path style="opacity:1" fill="#7bddac" d="M 330.5,449.5 C 329.506,458.986 329.173,468.652 329.5,478.5C 328.176,466.993 328.176,455.327 329.5,443.5C 330.466,445.396 330.799,447.396 330.5,449.5 Z"/></g>
<g><path style="opacity:1" fill="#fafdfb" d="M 670.5,513.5 C 662.538,519.487 654.205,524.987 645.5,530C 627.915,538.46 610.582,547.46 593.5,557C 580.651,561.463 567.651,565.463 554.5,569C 525.083,572.372 495.749,573.205 466.5,571.5C 471.032,571.818 475.366,571.485 479.5,570.5C 491.563,571.96 503.563,571.46 515.5,569C 527.619,565.85 539.286,561.516 550.5,556C 585.989,538.27 618.322,516.103 647.5,489.5C 653.496,484.337 658.996,478.67 664,472.5C 668.113,466.053 672.613,459.886 677.5,454C 679.289,453.48 680.956,453.813 682.5,455C 692.189,463.195 695.356,473.361 692,485.5C 686.882,496.446 679.715,505.779 670.5,513.5 Z"/></g>
<g><path style="opacity:1" fill="#52d28b" d="M 423.5,435.5 C 423.657,434.127 423.49,432.793 423,431.5C 421.599,435.871 420.099,440.204 418.5,444.5C 418.957,445.298 419.624,445.631 420.5,445.5C 416.906,456.958 412.573,467.958 407.5,478.5C 407.196,476.204 406.196,475.871 404.5,477.5C 412.138,461.424 418.305,444.757 423,427.5C 424.383,424.924 425.217,425.258 425.5,428.5C 425.276,431.08 424.609,433.414 423.5,435.5 Z"/></g>
<g><path style="opacity:1" fill="#22c56e" d="M 204.5,406.5 C 208.655,415.155 213.822,423.155 220,430.5C 231.888,441.577 246.055,446.744 262.5,446C 265.635,447.64 268.635,449.473 271.5,451.5C 278.884,450.102 284.217,446.102 287.5,439.5C 288.712,438.77 289.712,437.77 290.5,436.5C 291.298,436.957 291.631,437.624 291.5,438.5C 292.16,445.689 288.826,449.855 281.5,451C 276.984,465.42 275.317,480.254 276.5,495.5C 275.833,563.5 275.167,631.5 274.5,699.5C 273.932,690.177 273.599,680.844 273.5,671.5C 273.494,649.987 272.828,628.654 271.5,607.5C 271.5,557.167 271.5,506.833 271.5,456.5C 270.167,456.5 268.833,456.5 267.5,456.5C 267.037,459.482 266.704,462.482 266.5,465.5C 263.992,483.929 262.659,502.596 262.5,521.5C 262.165,545.867 261.165,570.2 259.5,594.5C 258.502,571.673 258.169,548.673 258.5,525.5C 259.035,507.339 259.701,489.339 260.5,471.5C 261.492,463.684 261.826,455.684 261.5,447.5C 257.833,447.5 254.167,447.5 250.5,447.5C 244.364,447.655 238.364,447.155 232.5,446C 233.333,446.833 234.167,447.667 235,448.5C 235.24,452.252 235.74,455.919 236.5,459.5C 237.014,466.656 237.681,473.656 238.5,480.5C 238.284,482.681 239.117,484.347 241,485.5C 241.667,495.167 241.667,504.833 241,514.5C 236.865,565.52 232.531,616.52 228,667.5C 227.193,694.201 227.693,720.868 229.5,747.5C 229.41,750.152 230.076,752.485 231.5,754.5C 231.5,755.167 231.5,755.833 231.5,756.5C 231.41,759.152 232.076,761.485 233.5,763.5C 234.833,768.829 236.166,774.162 237.5,779.5C 235.833,779.5 234.167,779.5 232.5,779.5C 231.201,776.316 230.201,772.983 229.5,769.5C 229.59,766.848 228.924,764.515 227.5,762.5C 223.69,742.228 221.69,721.728 221.5,701C 223.115,653.733 226.448,606.566 231.5,559.5C 233.129,548.376 233.796,537.042 233.5,525.5C 233.5,522.833 233.5,520.167 233.5,517.5C 234.166,511.175 234.5,504.675 234.5,498C 234.611,486.964 233.945,476.131 232.5,465.5C 232.425,462.794 232.092,460.127 231.5,457.5C 231.277,453.838 230.277,450.505 228.5,447.5C 227.797,445.284 226.464,443.451 224.5,442C 220.872,441.21 218.872,439.043 218.5,435.5C 215.487,435.893 212.82,435.226 210.5,433.5C 210.863,431.089 209.863,429.589 207.5,429C 207.728,428.601 208.062,428.435 208.5,428.5C 209.598,427.399 209.765,426.066 209,424.5C 206.477,420.112 203.977,415.778 201.5,411.5C 201.25,408.786 201.083,406.119 201,403.5C 201.72,405.056 202.887,406.056 204.5,406.5 Z"/></g>
<g><path style="opacity:1" fill="#9ce6c1" d="M 250.5,447.5 C 254.167,447.5 257.833,447.5 261.5,447.5C 261.826,455.684 261.492,463.684 260.5,471.5C 260.5,463.833 260.5,456.167 260.5,448.5C 256.958,448.813 253.625,448.479 250.5,447.5 Z"/></g>
<g><path style="opacity:1" fill="#79ddab" d="M 297.5,446.5 C 296.65,453.799 296.317,461.132 296.5,468.5C 295.347,462.347 295.18,456.014 296,449.5C 296.232,448.263 296.732,447.263 297.5,446.5 Z"/></g>
<g><path style="opacity:1" fill="#45d083" d="M 361.5,483.5 C 360.778,483.918 360.278,484.584 360,485.5C 359.833,484.833 359.667,484.167 359.5,483.5C 360.586,480.58 361.252,477.58 361.5,474.5C 364.146,461.392 367.312,448.392 371,435.5C 372.342,434.098 373.176,434.431 373.5,436.5C 369.495,452.202 365.495,467.869 361.5,483.5 Z"/></g>
<g><path style="opacity:1" fill="#6dd89f" d="M 300.5,447.5 C 300.365,454.862 300.698,462.196 301.5,469.5C 300.778,469.082 300.278,468.416 300,467.5C 299.179,460.654 299.346,453.987 300.5,447.5 Z"/></g>
<g><path style="opacity:1" fill="#77dcaa" d="M 236.5,459.5 C 237.268,460.263 237.768,461.263 238,462.5C 238.499,468.491 238.666,474.491 238.5,480.5C 237.681,473.656 237.014,466.656 236.5,459.5 Z"/></g>
<g><path style="opacity:1" fill="#4fd088" d="M 286.5,454.5 C 288.045,455.23 288.878,456.563 289,458.5C 290.342,464.87 291.842,471.203 293.5,477.5C 293.167,478.167 292.833,478.833 292.5,479.5C 291.586,475.728 289.586,472.728 286.5,470.5C 286.167,469.167 285.833,467.833 285.5,466.5C 286.164,462.524 286.497,458.524 286.5,454.5 Z"/></g>
<g><path style="opacity:1" fill="#30cd7a" d="M 330.5,449.5 C 331.254,454.463 331.587,459.463 331.5,464.5C 331.825,472.019 331.492,479.352 330.5,486.5C 330.425,483.794 330.092,481.127 329.5,478.5C 329.173,468.652 329.506,458.986 330.5,449.5 Z"/></g>
<g><path style="opacity:1" fill="#4bcf86" d="M 472.5,450.5 C 474.104,451.809 474.77,454.143 474.5,457.5C 471.473,467.877 467.139,477.544 461.5,486.5C 461.5,485.833 461.167,485.5 460.5,485.5C 465.882,474.305 469.882,462.639 472.5,450.5 Z"/></g>
<g><path style="opacity:1" fill="#70d9a2" d="M 315.5,466.5 C 316.777,467.694 317.444,469.36 317.5,471.5C 317.167,473.167 316.833,474.833 316.5,476.5C 315.513,473.232 315.18,469.898 315.5,466.5 Z"/></g>
<g><path style="opacity:1" fill="#38ca7a" d="M 665.5,440.5 C 666.552,440.351 667.552,440.517 668.5,441C 663.446,443.389 658.946,446.555 655,450.5C 643.422,465.99 632.088,481.657 621,497.5C 617.323,501.725 613.489,505.058 609.5,507.5C 618.473,494.694 627.64,482.027 637,469.5C 643.356,456.645 652.856,446.978 665.5,440.5 Z"/></g>
<g><path style="opacity:1" fill="#85dfb2" d="M 695.5,469.5 C 696.162,471.304 696.495,473.304 696.5,475.5C 696.713,478.527 696.047,481.193 694.5,483.5C 695.314,478.881 695.647,474.214 695.5,469.5 Z"/></g>
<g><path style="opacity:1" fill="#7bddad" d="M 331.5,464.5 C 332.822,473.342 332.822,482.342 331.5,491.5C 330.548,489.955 330.215,488.288 330.5,486.5C 331.492,479.352 331.825,472.019 331.5,464.5 Z"/></g>
<g><path style="opacity:1" fill="#7dddac" d="M 266.5,465.5 C 265.627,484.352 264.294,503.018 262.5,521.5C 262.659,502.596 263.992,483.929 266.5,465.5 Z"/></g>
<g><path style="opacity:1" fill="#63d598" d="M 361.5,474.5 C 361.252,477.58 360.586,480.58 359.5,483.5C 359.667,484.167 359.833,484.833 360,485.5C 360.278,484.584 360.778,483.918 361.5,483.5C 361.405,485.786 360.738,487.786 359.5,489.5C 359.649,488.448 359.483,487.448 359,486.5C 358.392,488.066 357.558,489.4 356.5,490.5C 357.566,484.88 359.233,479.547 361.5,474.5 Z"/></g>
<g><path style="opacity:1" fill="#2ac672" d="M 316.5,426.5 C 313.976,434.526 308.809,440.193 301,443.5C 300.51,444.793 300.343,446.127 300.5,447.5C 299.346,453.987 299.179,460.654 300,467.5C 300.278,468.416 300.778,469.082 301.5,469.5C 304.266,490.763 315.099,506.429 334,516.5C 334.617,517.449 334.451,518.282 333.5,519C 331.19,519.497 328.857,519.663 326.5,519.5C 327.169,515.324 325.669,513.991 322,515.5C 320.872,517.345 320.372,519.345 320.5,521.5C 319.833,519.5 319.167,517.5 318.5,515.5C 318.737,514.209 318.404,513.209 317.5,512.5C 316.955,510.407 316.122,508.407 315,506.5C 311.592,501.258 307.092,497.258 301.5,494.5C 300.319,492.865 300.319,491.198 301.5,489.5C 299.659,488.77 297.825,488.103 296,487.5C 295.812,485.939 296.645,485.272 298.5,485.5C 298.562,479.727 297.896,474.061 296.5,468.5C 296.317,461.132 296.65,453.799 297.5,446.5C 302.563,440.105 307.23,433.438 311.5,426.5C 312.473,426.013 313.473,425.513 314.5,425C 313.289,424.107 313.289,423.274 314.5,422.5C 316.111,423.32 316.778,424.654 316.5,426.5 Z"/></g>
<g><path style="opacity:1" fill="#51d18c" d="M 318.5,482.5 C 319.79,483.058 320.623,484.058 321,485.5C 323,491.5 325,497.5 327,503.5C 327.781,504.944 327.614,506.277 326.5,507.5C 321.845,499.867 319.178,491.533 318.5,482.5 Z"/></g>
<g><path style="opacity:1" fill="#7bddac" d="M 232.5,465.5 C 233.945,476.131 234.611,486.964 234.5,498C 234.5,504.675 234.166,511.175 233.5,517.5C 233.48,500.159 233.147,482.826 232.5,465.5 Z"/></g>
<g><path style="opacity:1" fill="#37ca7a" d="M 407.5,478.5 C 400.931,491.976 393.097,504.643 384,516.5C 380.965,519.87 377.632,522.87 374,525.5C 373.333,524.5 373.333,523.5 374,522.5C 386.181,508.784 396.348,493.784 404.5,477.5C 406.196,475.871 407.196,476.204 407.5,478.5 Z"/></g>
<g><path style="opacity:1" fill="#4acf85" d="M 333.5,501.5 C 335.888,502.219 337.388,503.885 338,506.5C 338.65,513.939 337.317,513.939 334,506.5C 333.506,504.866 333.34,503.199 333.5,501.5 Z"/></g>
<g><path style="opacity:1" fill="#4fd18a" d="M 359.5,489.5 C 357.39,499.952 354.057,509.952 349.5,519.5C 349.167,518.833 348.833,518.167 348.5,517.5C 351.167,508.497 353.834,499.497 356.5,490.5C 357.558,489.4 358.392,488.066 359,486.5C 359.483,487.448 359.649,488.448 359.5,489.5 Z"/></g>
<g><path style="opacity:1" fill="#24c56f" d="M 646.5,485.5 C 647.434,486.568 647.768,487.901 647.5,489.5C 618.322,516.103 585.989,538.27 550.5,556C 539.286,561.516 527.619,565.85 515.5,569C 503.563,571.46 491.563,571.96 479.5,570.5C 462.895,569.244 447.895,563.744 434.5,554C 432.081,552.491 431.081,550.325 431.5,547.5C 433.5,547.5 435.5,547.5 437.5,547.5C 437.232,550.119 437.565,552.619 438.5,555C 445.136,556.483 451.469,558.817 457.5,562C 466.143,563.795 474.809,565.462 483.5,567C 493.54,567.795 503.54,567.462 513.5,566C 562.654,546.773 606.988,519.939 646.5,485.5 Z"/></g>
<g><path style="opacity:1" fill="#3ecc7e" d="M 452.5,439.5 C 453.693,439.97 454.36,440.97 454.5,442.5C 446.889,464.617 436.389,485.284 423,504.5C 415.713,513.576 408.546,522.743 401.5,532C 387.567,534.821 373.567,535.154 359.5,533C 358.692,532.692 358.025,532.192 357.5,531.5C 368.814,531.072 380.147,530.905 391.5,531C 393.949,530.275 396.283,529.275 398.5,528C 411.604,515.967 422.437,502.134 431,486.5C 439.341,471.166 446.507,455.5 452.5,439.5 Z"/></g>
<g><path style="opacity:1" fill="#27c671" d="M 683.5,467.5 C 684.675,467.281 685.675,467.614 686.5,468.5C 680.995,475.169 674.662,481.002 667.5,486C 645.427,506.744 622.76,526.744 599.5,546C 595.275,549.446 590.609,551.779 585.5,553C 612.391,531.115 638.391,508.115 663.5,484C 670.356,478.636 677.023,473.136 683.5,467.5 Z"/></g>
<g><path style="opacity:1" fill="#2dc774" d="M 460.5,485.5 C 461.167,485.5 461.5,485.833 461.5,486.5C 449.878,504.652 434.211,518.152 414.5,527C 412.17,528.345 409.837,528.512 407.5,527.5C 411.579,524.86 415.912,522.694 420.5,521C 421.743,519.846 422.743,518.512 423.5,517C 428.048,516.06 432.048,514.06 435.5,511C 444.063,502.605 452.396,494.105 460.5,485.5 Z"/></g>
<g><path style="opacity:1" fill="#2dc774" d="M 498.5,513.5 C 499.675,513.281 500.675,513.614 501.5,514.5C 485.783,522.428 469.117,525.928 451.5,525C 467.624,522.552 483.291,518.718 498.5,513.5 Z"/></g>
<g><path style="opacity:1" fill="#27c670" d="M 343.5,568.5 C 342.778,568.918 342.278,569.584 342,570.5C 340.365,566.598 340.199,562.598 341.5,558.5C 341.501,553.997 342.334,549.663 344,545.5C 344.829,540.467 344.662,535.467 343.5,530.5C 342.28,529.289 341.113,529.289 340,530.5C 339.058,533.374 337.891,536.04 336.5,538.5C 336.617,536.516 335.95,534.85 334.5,533.5C 335.309,531.929 335.643,530.262 335.5,528.5C 335.995,526.518 336.495,524.518 337,522.5C 338.865,520.145 341.031,519.978 343.5,522C 345.667,524.167 347.833,526.333 350,528.5C 348.423,541.891 346.257,555.224 343.5,568.5 Z"/></g>
<g><path style="opacity:1" fill="#62d79d" d="M 318.5,515.5 C 319.167,517.5 319.833,519.5 320.5,521.5C 320.5,525.167 320.5,528.833 320.5,532.5C 318.55,527.265 317.883,521.598 318.5,515.5 Z"/></g>
<g><path style="opacity:1" fill="#32c875" d="M 427.5,525.5 C 433.776,525.059 439.776,526.059 445.5,528.5C 439.862,529.33 434.196,529.83 428.5,530C 426.5,530.667 425.167,532 424.5,534C 422.19,534.497 419.857,534.663 417.5,534.5C 417.351,535.552 417.517,536.552 418,537.5C 421.333,541.5 424.667,545.5 428,549.5C 428.688,550.332 428.521,550.998 427.5,551.5C 419.654,546.33 413.654,539.663 409.5,531.5C 416.141,531.167 422.141,529.167 427.5,525.5 Z"/></g>
<g><path style="opacity:1" fill="#2ac874" d="M 399.5,537.5 C 405.643,537.477 405.643,538.811 399.5,541.5C 398.374,540.192 398.374,538.858 399.5,537.5 Z"/></g>
<g><path style="opacity:1" fill="#d8f5e7" d="M 317.5,512.5 C 318.404,513.209 318.737,514.209 318.5,515.5C 317.883,521.598 318.55,527.265 320.5,532.5C 320.079,536.2 319.412,539.867 318.5,543.5C 317.501,533.188 317.168,522.855 317.5,512.5 Z"/></g>
<g><path style="opacity:1" fill="#44ce86" d="M 505.5,542.5 C 507.604,542.201 509.604,542.534 511.5,543.5C 510.5,543.833 509.5,544.167 508.5,544.5C 506.97,544.36 505.97,543.693 505.5,542.5 Z"/></g>
<g><path style="opacity:1" fill="#3ccb7b" d="M 335.5,528.5 C 335.643,530.262 335.309,531.929 334.5,533.5C 335.95,534.85 336.617,536.516 336.5,538.5C 334.029,547.051 331.862,555.717 330,564.5C 329.501,568.152 329.335,571.818 329.5,575.5C 328.178,575.33 327.011,575.663 326,576.5C 325.863,583.957 324.863,591.291 323,598.5C 316.185,618.945 309.352,639.445 302.5,660C 301.833,662 301.167,662 300.5,660C 305.158,640.19 310.491,620.69 316.5,601.5C 318.258,598.146 319.258,594.479 319.5,590.5C 324.234,569.559 329.568,548.893 335.5,528.5 Z"/></g>
<g><path style="opacity:1" fill="#4cd08d" d="M 493.5,545.5 C 495.857,545.337 498.19,545.503 500.5,546C 497.816,548.145 495.483,547.978 493.5,545.5 Z"/></g>
<g><path style="opacity:1" fill="#98e5c0" d="M 258.5,525.5 C 258.169,548.673 258.502,571.673 259.5,594.5C 259.785,596.288 259.452,597.955 258.5,599.5C 257.171,574.67 257.171,550.003 258.5,525.5 Z"/></g>
<g><path style="opacity:1" fill="#80deaf" d="M 233.5,525.5 C 233.796,537.042 233.129,548.376 231.5,559.5C 231.511,547.976 232.178,536.642 233.5,525.5 Z"/></g>
<g><path style="opacity:1" fill="#86dfb0" d="M 315.5,559.5 C 317.89,559.685 318.89,561.018 318.5,563.5C 318.658,565.319 317.991,566.652 316.5,567.5C 315.52,564.914 315.187,562.247 315.5,559.5 Z"/></g>
<g><path style="opacity:1" fill="#69d598" d="M 341.5,558.5 C 340.199,562.598 340.365,566.598 342,570.5C 342.278,569.584 342.778,568.918 343.5,568.5C 343.451,572.078 342.785,575.411 341.5,578.5C 341.932,575.123 341.265,572.123 339.5,569.5C 339.116,565.511 339.783,561.845 341.5,558.5 Z"/></g>
<g><path style="opacity:1" fill="#12c46a" d="M 339.5,569.5 C 341.265,572.123 341.932,575.123 341.5,578.5C 340.842,579.398 340.176,580.398 339.5,581.5C 338.534,579.604 338.201,577.604 338.5,575.5C 338.325,573.379 338.659,571.379 339.5,569.5 Z"/></g>
<g><path style="opacity:1" fill="#6bd89f" d="M 315.5,579.5 C 317.484,579.484 318.484,580.484 318.5,582.5C 318.547,584 317.881,585 316.5,585.5C 315.534,583.604 315.201,581.604 315.5,579.5 Z"/></g>
<g><path style="opacity:1" fill="#5bd38f" d="M 338.5,575.5 C 338.201,577.604 338.534,579.604 339.5,581.5C 340.176,580.398 340.842,579.398 341.5,578.5C 340.867,583.36 339.867,588.027 338.5,592.5C 338.665,589.482 338.498,586.482 338,583.5C 337.292,584.381 336.458,585.047 335.5,585.5C 335.804,582.478 336.304,579.478 337,576.5C 337.383,575.944 337.883,575.611 338.5,575.5 Z"/></g>
<g><path style="opacity:1" fill="#89e0b4" d="M 319.5,590.5 C 319.258,594.479 318.258,598.146 316.5,601.5C 316.742,597.521 317.742,593.854 319.5,590.5 Z"/></g>
<g><path style="opacity:1" fill="#32ca77" d="M 338.5,592.5 C 331.981,625.24 325.148,657.907 318,690.5C 317.213,700.303 315.713,709.969 313.5,719.5C 312.732,713.339 312.732,707.006 313.5,700.5C 314.092,697.873 314.425,695.206 314.5,692.5C 316.875,687.911 317.875,682.911 317.5,677.5C 323.113,646.77 329.113,616.103 335.5,585.5C 336.458,585.047 337.292,584.381 338,583.5C 338.498,586.482 338.665,589.482 338.5,592.5 Z"/></g>
<g><path style="opacity:1" fill="#85e0b2" d="M 271.5,607.5 C 272.828,628.654 273.494,649.987 273.5,671.5C 271.904,650.354 271.237,629.021 271.5,607.5 Z"/></g>
<g><path style="opacity:1" fill="#29c671" d="M 670.5,513.5 C 671.404,514.209 671.737,515.209 671.5,516.5C 664.223,522.81 656.556,528.643 648.5,534C 602.326,562.167 552.159,576.334 498,576.5C 480.197,577.532 462.864,575.199 446,569.5C 440.055,576.013 435.055,583.347 431,591.5C 393.306,643.55 354.639,694.883 315,745.5C 310.332,756.332 307.832,767.665 307.5,779.5C 305.5,779.5 303.5,779.5 301.5,779.5C 304.173,762.469 307.173,745.469 310.5,728.5C 311.268,727.737 311.768,726.737 312,725.5C 312.172,729.871 312.672,734.204 313.5,738.5C 314.107,738.376 314.44,738.043 314.5,737.5C 327.842,719.501 341.675,701.834 356,684.5C 364.733,670.737 374.733,657.737 386,645.5C 401.076,623.692 416.41,602.025 432,580.5C 434.696,576.44 436.863,572.107 438.5,567.5C 435.874,565.177 433.207,562.843 430.5,560.5C 431,560.167 431.5,559.833 432,559.5C 438.792,561.646 445.292,564.479 451.5,568C 456.329,569.958 461.329,571.124 466.5,571.5C 495.749,573.205 525.083,572.372 554.5,569C 567.651,565.463 580.651,561.463 593.5,557C 610.582,547.46 627.915,538.46 645.5,530C 654.205,524.987 662.538,519.487 670.5,513.5 Z"/></g>
<g><path style="opacity:1" fill="#75daa4" d="M 317.5,677.5 C 317.875,682.911 316.875,687.911 314.5,692.5C 314.978,687.273 315.978,682.273 317.5,677.5 Z"/></g>
<g><path style="opacity:1" fill="#3bcc82" d="M 276.5,495.5 C 276.816,590.18 276.483,684.847 275.5,779.5C 274.5,779.5 273.5,779.5 272.5,779.5C 274.306,752.879 274.973,726.213 274.5,699.5C 275.167,631.5 275.833,563.5 276.5,495.5 Z"/></g>
<g><path style="opacity:1" fill="#76dba7" d="M 313.5,700.5 C 312.732,707.006 312.732,713.339 313.5,719.5C 313.44,720.043 313.107,720.376 312.5,720.5C 311.211,713.627 311.545,706.96 313.5,700.5 Z"/></g>
<g><path style="opacity:1" fill="#bfefd7" d="M 314.5,737.5 C 314.44,738.043 314.107,738.376 313.5,738.5C 312.672,734.204 312.172,729.871 312,725.5C 311.768,726.737 311.268,727.737 310.5,728.5C 310.116,726.335 310.783,724.668 312.5,723.5C 313.167,728.317 313.834,732.983 314.5,737.5 Z"/></g>
<g><path style="opacity:1" fill="#9ae5bf" d="M 252.5,737.5 C 253.496,737.414 254.329,737.748 255,738.5C 255.167,740.333 255.333,742.167 255.5,744C 255.695,746.793 255.029,749.293 253.5,751.5C 252.507,746.88 252.173,742.214 252.5,737.5 Z"/></g>
<g><path style="opacity:1" fill="#7eddae" d="M 229.5,747.5 C 230.924,749.515 231.59,751.848 231.5,754.5C 230.076,752.485 229.41,750.152 229.5,747.5 Z"/></g>
<g><path style="opacity:1" fill="#78dcaa" d="M 231.5,756.5 C 232.924,758.515 233.59,760.848 233.5,763.5C 232.076,761.485 231.41,759.152 231.5,756.5 Z"/></g>
<g><path style="opacity:1" fill="#77dba6" d="M 252.5,759.5 C 253.787,760.871 254.453,762.705 254.5,765C 254.167,766.833 253.833,768.667 253.5,770.5C 252.511,766.893 252.177,763.226 252.5,759.5 Z"/></g>
<g><path style="opacity:1" fill="#99e5bf" d="M 227.5,762.5 C 228.924,764.515 229.59,766.848 229.5,769.5C 228.076,767.485 227.41,765.152 227.5,762.5 Z"/></g>
</svg>
